<svg width="123" height="123" viewBox="0 0 123 123" fill="none" xmlns="http://www.w3.org/2000/svg">
    <path d="M55.1307 112.546L55.1303 112.546L20.9649 92.8219C16.7363 90.3787 14.1277 85.8605 14.126 80.9768C14.126 80.9767 14.126 80.9767 14.126 80.9766L14.1175 41.5329C14.1251 36.643 16.7343 32.1312 20.9607 29.6911L55.1275 9.96489C59.3647 7.51852 64.576 7.51634 68.8033 9.95877L68.8037 9.95899L102.969 29.6831C107.198 32.1263 109.806 36.6443 109.808 41.528C109.808 41.5281 109.808 41.5283 109.808 41.5284L109.807 80.9766C109.8 85.867 107.19 90.3792 102.964 92.8195L68.8065 112.54C64.5692 114.987 59.3579 114.989 55.1307 112.546Z"
          fill="white" stroke="#0f766e" stroke-width="2.59141"/>
    <path d="M97.0426 39.9818V84.406C97.0426 88.632 93.7212 91.9951 89.7003 91.9951H34.4169C30.396 91.9951 27.0745 88.632 27.0745 84.406V39.9818C27.0745 35.7558 30.396 32.3926 34.4169 32.3926H43.0549H89.7003C93.7212 32.3926 97.0426 35.7558 97.0426 39.9818Z"
          fill="white" stroke="#0f766e" stroke-width="2.59141"/>
    <path d="M43.0399 50.9744C42.893 50.6797 42.5827 50.4921 42.2418 50.4921C41.901 50.4921 41.5934 50.6797 41.4437 50.9744L39.6619 54.5189L35.6825 55.0869C35.35 55.1351 35.0728 55.3601 34.9703 55.6682C34.8678 55.9763 34.9509 56.3166 35.1892 56.5443L38.0768 59.3065L37.3951 63.21C37.3396 63.5315 37.4782 63.8583 37.7525 64.0486C38.0269 64.2388 38.3899 64.2629 38.6892 64.1102L42.2446 62.275L45.8 64.1102C46.0993 64.2629 46.4623 64.2415 46.7366 64.0486C47.011 63.8557 47.1495 63.5315 47.0941 63.21L46.4096 59.3065L49.2972 56.5443C49.5355 56.3166 49.6214 55.9763 49.5161 55.6682C49.4108 55.3601 49.1365 55.1351 48.8039 55.0869L44.8218 54.5189L43.0399 50.9744Z"
          stroke="#0f766e" stroke-width="2.59141"/>
    <path d="M62.856 50.9744C62.7091 50.6797 62.3988 50.4921 62.0579 50.4921C61.7171 50.4921 61.4095 50.6797 61.2598 50.9744L59.478 54.5189L55.4986 55.0869C55.1661 55.1351 54.8889 55.3601 54.7864 55.6682C54.6839 55.9763 54.767 56.3166 55.0053 56.5443L57.8929 59.3065L57.2112 63.21C57.1557 63.5315 57.2943 63.8583 57.5686 64.0486C57.843 64.2388 58.206 64.2629 58.5053 64.1102L62.0607 62.275L65.6161 64.1102C65.9154 64.2629 66.2784 64.2415 66.5527 64.0486C66.8271 63.8557 66.9656 63.5315 66.9102 63.21L66.2257 59.3065L69.1133 56.5443C69.3516 56.3166 69.4375 55.9763 69.3322 55.6682C69.2269 55.3601 68.9526 55.1351 68.62 55.0869L64.6379 54.5189L62.856 50.9744Z"
          stroke="#0f766e" stroke-width="2.59141"/>
    <path d="M82.6721 50.9744C82.5253 50.6797 82.2149 50.4921 81.874 50.4921C81.5332 50.4921 81.2256 50.6797 81.0759 50.9744L79.2941 54.5189L75.3147 55.0869C74.9822 55.1351 74.7051 55.3601 74.6025 55.6682C74.5 55.9763 74.5831 56.3166 74.8214 56.5443L77.709 59.3065L77.0273 63.21C76.9719 63.5315 77.1104 63.8583 77.3848 64.0486C77.6591 64.2388 78.0221 64.2629 78.3214 64.1102L81.8768 62.275L85.4322 64.1102C85.7315 64.2629 86.0945 64.2415 86.3689 64.0486C86.6432 63.8557 86.7818 63.5315 86.7263 63.21L86.0419 59.3065L88.9294 56.5443C89.1677 56.3166 89.2536 55.9763 89.1483 55.6682C89.043 55.3601 88.7687 55.1351 88.4361 55.0869L84.454 54.5189L82.6721 50.9744Z"
          stroke="#0f766e" stroke-width="2.59141"/>
    <path d="M43.0399 67.6931C42.893 67.3984 42.5827 67.2108 42.2418 67.2108C41.901 67.2108 41.5934 67.3984 41.4437 67.6931L39.6619 71.2376L35.6825 71.8056C35.35 71.8538 35.0728 72.0788 34.9703 72.3869C34.8678 72.695 34.9509 73.0353 35.1892 73.263L38.0768 76.0252L37.3951 79.9287C37.3396 80.2502 37.4782 80.577 37.7525 80.7673C38.0269 80.9575 38.3899 80.9816 38.6892 80.8289L42.2446 78.9937L45.8 80.8289C46.0993 80.9816 46.4623 80.9602 46.7366 80.7673C47.011 80.5744 47.1495 80.2502 47.0941 79.9287L46.4096 76.0252L49.2972 73.263C49.5355 73.0353 49.6214 72.695 49.5161 72.3869C49.4108 72.0788 49.1365 71.8538 48.8039 71.8056L44.8218 71.2376L43.0399 67.6931Z"
          stroke="#0f766e" stroke-width="2.59141"/>
    <path d="M62.856 67.6931C62.7091 67.3984 62.3988 67.2108 62.0579 67.2108C61.7171 67.2108 61.4095 67.3984 61.2598 67.6931L59.478 71.2376L55.4986 71.8056C55.1661 71.8538 54.8889 72.0788 54.7864 72.3869C54.6839 72.695 54.767 73.0353 55.0053 73.263L57.8929 76.0252L57.2112 79.9287C57.1557 80.2502 57.2943 80.577 57.5686 80.7673C57.843 80.9575 58.206 80.9816 58.5053 80.8289L62.0607 78.9937L65.6161 80.8289C65.9154 80.9816 66.2784 80.9602 66.5527 80.7673C66.8271 80.5744 66.9656 80.2502 66.9102 79.9287L66.2257 76.0252L69.1133 73.263C69.3516 73.0353 69.4375 72.695 69.3322 72.3869C69.2269 72.0788 68.9526 71.8538 68.62 71.8056L64.6379 71.2376L62.856 67.6931Z"
          stroke="#0f766e" stroke-width="2.59141"/>
    <path d="M82.6721 67.6931C82.5253 67.3984 82.2149 67.2108 81.874 67.2108C81.5332 67.2108 81.2256 67.3984 81.0759 67.6931L79.2941 71.2376L75.3147 71.8056C74.9822 71.8538 74.7051 72.0788 74.6025 72.3869C74.5 72.695 74.5831 73.0353 74.8214 73.263L77.709 76.0252L77.0273 79.9287C76.9719 80.2502 77.1104 80.577 77.3848 80.7673C77.6591 80.9575 78.0221 80.9816 78.3214 80.8289L81.8768 78.9937L85.4322 80.8289C85.7315 80.9816 86.0945 80.9602 86.3689 80.7673C86.6432 80.5744 86.7818 80.2502 86.7263 79.9287L86.0419 76.0252L88.9294 73.263C89.1677 73.0353 89.2536 72.695 89.1483 72.3869C89.043 72.0788 88.7687 71.8538 88.4361 71.8056L84.454 71.2376L82.6721 67.6931Z"
          stroke="#0f766e" stroke-width="2.59141"/>
    <line x1="29.3116" y1="42.7583" x2="96.6883" y2="42.7583" stroke="#0f766e" stroke-width="2.59141"/>
    <path d="M76.6049 25.9141L76.6049 37.884" stroke="#0f766e" stroke-width="2.59141"/>
    <path d="M47.4515 25.9141L47.4515 37.884" stroke="#0f766e" stroke-width="2.59141"/>
</svg>
