<svg width="122" height="123" viewBox="0 0 122 123" fill="none" xmlns="http://www.w3.org/2000/svg">
<path d="M54.7306 112.546L54.7302 112.546L20.5649 92.8219C16.3362 90.3787 13.7276 85.8605 13.726 80.9768C13.726 80.9767 13.726 80.9767 13.726 80.9766L13.7174 41.5329C13.7251 36.643 16.3342 32.1312 20.5606 29.6911L54.7274 9.96489C58.9647 7.51852 64.176 7.51634 68.4032 9.95877L68.4036 9.95899L102.569 29.6831C106.798 32.1263 109.406 36.6443 109.408 41.528C109.408 41.5281 109.408 41.5283 109.408 41.5284L109.407 80.9766C109.4 85.867 106.79 90.3792 102.564 92.8195L68.4064 112.54C64.1692 114.987 58.9579 114.989 54.7306 112.546Z" fill="white" stroke="#0f766e" stroke-width="2.59141"/>
<path d="M94.0512 39.9818V84.406C94.0512 88.7252 90.9187 91.9951 87.3259 91.9951H35.9913C32.3984 91.9951 29.2659 88.7252 29.2659 84.406V39.9818C29.2659 35.6626 32.3984 32.3926 35.9912 32.3926H44.0123H87.3259C90.9187 32.3926 94.0512 35.6626 94.0512 39.9818Z" fill="white" stroke="#0f766e" stroke-width="2.59141"/>
<path d="M52.5479 59.3337C52.4011 59.039 52.0907 58.8515 51.7498 58.8515C51.409 58.8515 51.1014 59.039 50.9517 59.3337L49.1699 62.8782L45.1905 63.4462C44.858 63.4944 44.5808 63.7195 44.4783 64.0276C44.3758 64.3357 44.4589 64.6759 44.6972 64.9037L47.5848 67.6658L46.9031 71.5693C46.8477 71.8908 46.9862 72.2177 47.2606 72.4079C47.5349 72.5981 47.8979 72.6222 48.1972 72.4695L51.7526 70.6343L55.308 72.4695C55.6073 72.6222 55.9703 72.6008 56.2447 72.4079C56.519 72.215 56.6576 71.8908 56.6021 71.5693L55.9177 67.6658L58.8052 64.9037C59.0435 64.6759 59.1294 64.3357 59.0241 64.0276C58.9188 63.7195 58.6445 63.4944 58.3119 63.4462L54.3298 62.8782L52.5479 59.3337Z" stroke="#0f766e" stroke-width="2.59141"/>
<path d="M72.364 59.3337C72.2172 59.039 71.9068 58.8515 71.5659 58.8515C71.2251 58.8515 70.9175 59.039 70.7678 59.3337L68.986 62.8782L65.0066 63.4462C64.6741 63.4944 64.3969 63.7195 64.2944 64.0276C64.1919 64.3357 64.275 64.6759 64.5133 64.9037L67.4009 67.6658L66.7192 71.5693C66.6638 71.8908 66.8023 72.2177 67.0767 72.4079C67.351 72.5981 67.714 72.6222 68.0133 72.4695L71.5687 70.6343L75.1241 72.4695C75.4234 72.6222 75.7864 72.6008 76.0608 72.4079C76.3351 72.215 76.4737 71.8908 76.4182 71.5693L75.7338 67.6658L78.6213 64.9037C78.8596 64.6759 78.9455 64.3357 78.8402 64.0276C78.7349 63.7195 78.4606 63.4944 78.128 63.4462L74.1459 62.8782L72.364 59.3337Z" stroke="#0f766e" stroke-width="2.59141"/>
<line x1="31.503" y1="42.7583" x2="93.6969" y2="42.7583" stroke="#0f766e" stroke-width="2.59141"/>
<path d="M76.2049 25.9141L76.2049 37.884" stroke="#0f766e" stroke-width="2.59141"/>
<path d="M47.0515 25.9141L47.0515 37.884" stroke="#0f766e" stroke-width="2.59141"/>
</svg>
