<svg width="122" height="123" viewBox="0 0 122 123" fill="none" xmlns="http://www.w3.org/2000/svg">
<path d="M54.5307 112.546L54.5303 112.546L20.365 92.8219C16.1363 90.3787 13.5277 85.8605 13.5261 80.9768C13.5261 80.9767 13.5261 80.9767 13.5261 80.9766L13.5175 41.5329C13.5251 36.643 16.1343 32.1312 20.3607 29.6911L54.5275 9.96489C58.7647 7.51852 63.9761 7.51634 68.2033 9.95877L68.2037 9.95899L102.369 29.6831C106.598 32.1263 109.206 36.6443 109.208 41.528C109.208 41.5281 109.208 41.5283 109.208 41.5284L109.207 80.9766C109.2 85.867 106.59 90.3792 102.364 92.8195L68.2065 112.54C63.9693 114.987 58.758 114.989 54.5307 112.546Z" fill="white" stroke="#0f766e" stroke-width="2.59141"/>
<path d="M96.4427 39.9818V84.406C96.4427 88.632 93.1212 91.9951 89.1003 91.9951H33.8169C29.796 91.9951 26.4746 88.632 26.4746 84.406V39.9818C26.4746 35.7558 29.796 32.3926 33.8169 32.3926H42.4549H89.1003C93.1212 32.3926 96.4427 35.7558 96.4427 39.9818Z" fill="white" stroke="#0f766e" stroke-width="2.59141"/>
<path d="M42.4399 50.9744C42.2931 50.6797 41.9827 50.4921 41.6418 50.4921C41.301 50.4921 40.9934 50.6797 40.8437 50.9744L39.0619 54.5189L35.0825 55.0869C34.75 55.1351 34.4729 55.3601 34.3703 55.6682C34.2678 55.9763 34.3509 56.3166 34.5892 56.5443L37.4768 59.3065L36.7951 63.21C36.7397 63.5315 36.8782 63.8583 37.1526 64.0486C37.4269 64.2388 37.7899 64.2629 38.0892 64.1102L41.6446 62.275L45.2 64.1102C45.4993 64.2629 45.8623 64.2415 46.1367 64.0486C46.411 63.8557 46.5496 63.5315 46.4941 63.21L45.8097 59.3065L48.6972 56.5443C48.9355 56.3166 49.0214 55.9763 48.9161 55.6682C48.8108 55.3601 48.5365 55.1351 48.2039 55.0869L44.2218 54.5189L42.4399 50.9744Z" stroke="#0f766e" stroke-width="2.59141"/>
<path d="M62.256 50.9744C62.1092 50.6797 61.7988 50.4921 61.4579 50.4921C61.1171 50.4921 60.8095 50.6797 60.6599 50.9744L58.878 54.5189L54.8986 55.0869C54.5661 55.1351 54.289 55.3601 54.1864 55.6682C54.0839 55.9763 54.167 56.3166 54.4053 56.5443L57.2929 59.3065L56.6112 63.21C56.5558 63.5315 56.6943 63.8583 56.9687 64.0486C57.243 64.2388 57.606 64.2629 57.9053 64.1102L61.4607 62.275L65.0161 64.1102C65.3154 64.2629 65.6784 64.2415 65.9528 64.0486C66.2271 63.8557 66.3657 63.5315 66.3102 63.21L65.6258 59.3065L68.5133 56.5443C68.7516 56.3166 68.8375 55.9763 68.7322 55.6682C68.6269 55.3601 68.3526 55.1351 68.0201 55.0869L64.0379 54.5189L62.256 50.9744Z" stroke="#0f766e" stroke-width="2.59141"/>
<path d="M82.0721 50.9744C81.9253 50.6797 81.6149 50.4921 81.2741 50.4921C80.9332 50.4921 80.6256 50.6797 80.476 50.9744L78.6941 54.5189L74.7147 55.0869C74.3822 55.1351 74.1051 55.3601 74.0025 55.6682C73.9 55.9763 73.9831 56.3166 74.2215 56.5443L77.109 59.3065L76.4273 63.21C76.3719 63.5315 76.5104 63.8583 76.7848 64.0486C77.0591 64.2388 77.4221 64.2629 77.7214 64.1102L81.2768 62.275L84.8322 64.1102C85.1315 64.2629 85.4945 64.2415 85.7689 64.0486C86.0432 63.8557 86.1818 63.5315 86.1264 63.21L85.4419 59.3065L88.3294 56.5443C88.5677 56.3166 88.6537 55.9763 88.5483 55.6682C88.443 55.3601 88.1687 55.1351 87.8362 55.0869L83.854 54.5189L82.0721 50.9744Z" stroke="#0f766e" stroke-width="2.59141"/>
<path d="M52.348 67.6931C52.2011 67.3984 51.8907 67.2108 51.5499 67.2108C51.209 67.2108 50.9014 67.3984 50.7518 67.6931L48.9699 71.2376L44.9906 71.8056C44.658 71.8538 44.3809 72.0788 44.2784 72.3869C44.1758 72.695 44.259 73.0353 44.4973 73.263L47.3848 76.0252L46.7031 79.9287C46.6477 80.2502 46.7863 80.577 47.0606 80.7673C47.335 80.9575 47.698 80.9816 47.9973 80.8289L51.5527 78.9937L55.1081 80.8289C55.4073 80.9816 55.7704 80.9602 56.0447 80.7673C56.3191 80.5744 56.4576 80.2502 56.4022 79.9287L55.7177 76.0252L58.6053 73.263C58.8436 73.0353 58.9295 72.695 58.8242 72.3869C58.7189 72.0788 58.4445 71.8538 58.112 71.8056L54.1298 71.2376L52.348 67.6931Z" stroke="#0f766e" stroke-width="2.59141"/>
<path d="M72.1641 67.6931C72.0172 67.3984 71.7069 67.2108 71.366 67.2108C71.0251 67.2108 70.7175 67.3984 70.5679 67.6931L68.786 71.2376L64.8067 71.8056C64.4741 71.8538 64.197 72.0788 64.0945 72.3869C63.9919 72.695 64.0751 73.0353 64.3134 73.263L67.2009 76.0252L66.5192 79.9287C66.4638 80.2502 66.6024 80.577 66.8767 80.7673C67.1511 80.9575 67.5141 80.9816 67.8134 80.8289L71.3688 78.9937L74.9242 80.8289C75.2235 80.9816 75.5865 80.9602 75.8608 80.7673C76.1352 80.5744 76.2737 80.2502 76.2183 79.9287L75.5338 76.0252L78.4214 73.263C78.6597 73.0353 78.7456 72.695 78.6403 72.3869C78.535 72.0788 78.2606 71.8538 77.9281 71.8056L73.9459 71.2376L72.1641 67.6931Z" stroke="#0f766e" stroke-width="2.59141"/>
<line x1="28.7117" y1="42.7583" x2="96.0884" y2="42.7583" stroke="#0f766e" stroke-width="2.59141"/>
<path d="M76.0049 25.9141L76.0049 37.884" stroke="#0f766e" stroke-width="2.59141"/>
<path d="M46.8516 25.9141L46.8516 37.884" stroke="#0f766e" stroke-width="2.59141"/>
</svg>
