<?xml version="1.0" encoding="UTF-8"?>
<svg id="Layer_1" xmlns="http://www.w3.org/2000/svg" version="1.1" viewBox="0 0 122 124">
  <!-- Generator: Adobe Illustrator 29.0.1, SVG Export Plug-In . SVG Version: 2.1.0 Build 192)  -->
  <defs>
    <style>
      .st0, .st1, .st2 {
        isolation: isolate;
      }

      .st3 {
        fill: #fff;
        stroke: #0f766e;
        stroke-width: 2.6px;
      }

      .st1 {
        fill: #68642a;
        font-family: ArialRoundedMTBold, 'Arial Rounded MT Bold';
        font-size: 39.4px;
      }

      .st2 {
        fill: #78c692;
        font-family: ArialMT, Arial;
        font-size: 70.5px;
      }
    </style>
  </defs>
  <path class="st3" d="M54.3,113.1h0l-34.2-19.7c-4.2-2.4-6.8-7-6.8-11.8h0v-39.4c0-4.9,2.6-9.4,6.8-11.8L54.3,10.5c4.2-2.4,9.4-2.4,13.7,0h0l34.2,19.7c4.2,2.4,6.8,7,6.8,11.8h0v39.4c0,4.9-2.6,9.4-6.8,11.8l-34.2,19.7c-4.2,2.4-9.4,2.4-13.7,0v.2Z"/>
  <g class="st0">
    <text class="st2" transform="translate(43.8 85.9)"><tspan x="0" y="0">$</tspan></text>
  </g>
  <g class="st0">
    <text class="st1" transform="translate(32.9 76)"><tspan x="0" y="0">1M</tspan></text>
  </g>
</svg>