<svg width="122" height="123" viewBox="0 0 122 123" fill="none" xmlns="http://www.w3.org/2000/svg">
<path d="M54.3307 112.546L54.3303 112.546L20.165 92.8219C15.9363 90.3787 13.3277 85.8605 13.3261 80.9768C13.3261 80.9767 13.3261 80.9767 13.3261 80.9766L13.3175 41.5329C13.3251 36.643 15.9343 32.1312 20.1607 29.6911L54.3275 9.96489C58.5647 7.51852 63.776 7.51634 68.0033 9.95877L68.0037 9.95899L102.169 29.6831C106.398 32.1263 109.006 36.6443 109.008 41.528C109.008 41.5281 109.008 41.5283 109.008 41.5284L109.007 80.9766C109 85.867 106.39 90.3792 102.164 92.8195L68.0065 112.54C63.7693 114.987 58.5579 114.989 54.3307 112.546Z" fill="white" stroke="#0f766e" stroke-width="2.59141"/>
<path d="M96.2427 39.9818V84.406C96.2427 88.632 92.9212 91.9951 88.9003 91.9951H33.6169C29.596 91.9951 26.2746 88.632 26.2746 84.406V39.9818C26.2746 35.7558 29.596 32.3926 33.6169 32.3926H42.2549H88.9003C92.9212 32.3926 96.2427 35.7558 96.2427 39.9818Z" fill="white" stroke="#0f766e" stroke-width="2.59141"/>
<path d="M42.2399 59.3337C42.0931 59.039 41.7827 58.8515 41.4418 58.8515C41.101 58.8515 40.7934 59.039 40.6438 59.3337L38.8619 62.8782L34.8825 63.4462C34.55 63.4944 34.2729 63.7195 34.1703 64.0276C34.0678 64.3357 34.1509 64.6759 34.3893 64.9037L37.2768 67.6658L36.5951 71.5693C36.5397 71.8908 36.6782 72.2177 36.9526 72.4079C37.2269 72.5981 37.5899 72.6222 37.8892 72.4695L41.4446 70.6343L45 72.4695C45.2993 72.6222 45.6623 72.6008 45.9367 72.4079C46.211 72.215 46.3496 71.8908 46.2941 71.5693L45.6097 67.6658L48.4972 64.9037C48.7355 64.6759 48.8214 64.3357 48.7161 64.0276C48.6108 63.7195 48.3365 63.4944 48.004 63.4462L44.0218 62.8782L42.2399 59.3337Z" stroke="#0f766e" stroke-width="2.59141"/>
<path d="M62.056 59.3337C61.9092 59.039 61.5988 58.8515 61.258 58.8515C60.9171 58.8515 60.6095 59.039 60.4599 59.3337L58.678 62.8782L54.6986 63.4462C54.3661 63.4944 54.089 63.7195 53.9864 64.0276C53.8839 64.3357 53.967 64.6759 54.2054 64.9037L57.0929 67.6658L56.4112 71.5693C56.3558 71.8908 56.4943 72.2177 56.7687 72.4079C57.043 72.5981 57.406 72.6222 57.7053 72.4695L61.2607 70.6343L64.8161 72.4695C65.1154 72.6222 65.4784 72.6008 65.7528 72.4079C66.0271 72.215 66.1657 71.8908 66.1102 71.5693L65.4258 67.6658L68.3133 64.9037C68.5516 64.6759 68.6375 64.3357 68.5322 64.0276C68.4269 63.7195 68.1526 63.4944 67.8201 63.4462L63.8379 62.8782L62.056 59.3337Z" stroke="#0f766e" stroke-width="2.59141"/>
<path d="M81.8721 59.3337C81.7253 59.039 81.4149 58.8515 81.0741 58.8515C80.7332 58.8515 80.4256 59.039 80.276 59.3337L78.4941 62.8782L74.5147 63.4462C74.1822 63.4944 73.9051 63.7195 73.8025 64.0276C73.7 64.3357 73.7831 64.6759 74.0215 64.9037L76.909 67.6658L76.2273 71.5693C76.1719 71.8908 76.3104 72.2177 76.5848 72.4079C76.8591 72.5981 77.2221 72.6222 77.5214 72.4695L81.0768 70.6343L84.6322 72.4695C84.9315 72.6222 85.2945 72.6008 85.5689 72.4079C85.8432 72.215 85.9818 71.8908 85.9264 71.5693L85.2419 67.6658L88.1294 64.9037C88.3677 64.6759 88.4536 64.3357 88.3483 64.0276C88.243 63.7195 87.9687 63.4944 87.6362 63.4462L83.654 62.8782L81.8721 59.3337Z" stroke="#0f766e" stroke-width="2.59141"/>
<line x1="28.5117" y1="42.7583" x2="95.8884" y2="42.7583" stroke="#0f766e" stroke-width="2.59141"/>
<path d="M75.8049 25.9141L75.8049 37.884" stroke="#0f766e" stroke-width="2.59141"/>
<path d="M46.6516 25.9141L46.6515 37.884" stroke="#0f766e" stroke-width="2.59141"/>
</svg>
