<svg width="123" height="123" viewBox="0 0 123 123" fill="none" xmlns="http://www.w3.org/2000/svg">
<path d="M55.1307 112.546L55.1303 112.546L20.9649 92.8219C16.7363 90.3787 14.1277 85.8605 14.126 80.9768C14.126 80.9767 14.126 80.9767 14.126 80.9766L14.1175 41.5329C14.1251 36.643 16.7343 32.1312 20.9607 29.6911L55.1275 9.96489C59.3647 7.51852 64.576 7.51634 68.8033 9.95877L68.8037 9.95899L102.969 29.6831C107.198 32.1263 109.806 36.6443 109.808 41.528C109.808 41.5281 109.808 41.5283 109.808 41.5284L109.807 80.9766C109.8 85.867 107.19 90.3792 102.964 92.8195L68.8065 112.54C64.5692 114.987 59.3579 114.989 55.1307 112.546Z" fill="white" stroke="#0f766e" stroke-width="2.59141"/>
<path d="M94.4512 39.9818V84.406C94.4512 88.7252 91.3187 91.9951 87.7259 91.9951H36.3913C32.7985 91.9951 29.6659 88.7252 29.6659 84.406V39.9818C29.6659 35.6626 32.7985 32.3926 36.3913 32.3926H44.4123H87.7259C91.3187 32.3926 94.4512 35.6626 94.4512 39.9818Z" fill="white" stroke="#0f766e" stroke-width="2.59141"/>
<path d="M62.856 59.3337C62.7091 59.039 62.3987 58.8515 62.0579 58.8515C61.717 58.8515 61.4094 59.039 61.2598 59.3337L59.4779 62.8782L55.4985 63.4462C55.166 63.4944 54.8889 63.7195 54.7864 64.0276C54.6838 64.3357 54.767 64.6759 55.0053 64.9037L57.8928 67.6658L57.2111 71.5693C57.1557 71.8908 57.2943 72.2177 57.5686 72.4079C57.8429 72.5981 58.206 72.6222 58.5053 72.4695L62.0606 70.6343L65.616 72.4695C65.9153 72.6222 66.2784 72.6008 66.5527 72.4079C66.827 72.215 66.9656 71.8908 66.9102 71.5693L66.2257 67.6658L69.1132 64.9037C69.3516 64.6759 69.4375 64.3357 69.3322 64.0276C69.2269 63.7195 68.9525 63.4944 68.62 63.4462L64.6378 62.8782L62.856 59.3337Z" stroke="#0f766e" stroke-width="2.59141"/>
<line x1="31.9031" y1="42.7583" x2="94.0969" y2="42.7583" stroke="#0f766e" stroke-width="2.59141"/>
<path d="M76.6049 25.9141L76.6049 37.884" stroke="#0f766e" stroke-width="2.59141"/>
<path d="M47.4515 25.9141L47.4515 37.884" stroke="#0f766e" stroke-width="2.59141"/>
</svg>
