<svg width="123" height="123" viewBox="0 0 123 123" fill="none" xmlns="http://www.w3.org/2000/svg">
<path d="M54.9307 112.546L54.9303 112.546L20.765 92.8219C16.5363 90.3787 13.9277 85.8605 13.9261 80.9768C13.9261 80.9767 13.9261 80.9767 13.9261 80.9766L13.9175 41.5329C13.9252 36.643 16.5343 32.1312 20.7607 29.6911L54.9275 9.96489C59.1648 7.51852 64.3761 7.51634 68.6034 9.95877L68.6037 9.95899L102.769 29.6831C106.998 32.1263 109.606 36.6443 109.608 41.528C109.608 41.5281 109.608 41.5283 109.608 41.5284L109.607 80.9766C109.6 85.867 106.99 90.3792 102.764 92.8195L68.6065 112.54C64.3693 114.987 59.158 114.989 54.9307 112.546Z" fill="white" stroke="#0f766e" stroke-width="2.59141"/>
<path d="M96.8427 39.9818V84.406C96.8427 88.632 93.5213 91.9951 89.5004 91.9951H34.2169C30.196 91.9951 26.8746 88.632 26.8746 84.406V39.9818C26.8746 35.7558 30.196 32.3926 34.2169 32.3926H42.855H89.5004C93.5213 32.3926 96.8427 35.7558 96.8427 39.9818Z" fill="white" stroke="#0f766e" stroke-width="2.59141"/>
<path d="M42.84 50.9744C42.6931 50.6797 42.3827 50.4921 42.0419 50.4921C41.701 50.4921 41.3934 50.6797 41.2438 50.9744L39.4619 54.5189L35.4825 55.0869C35.15 55.1351 34.8729 55.3601 34.7704 55.6682C34.6678 55.9763 34.751 56.3166 34.9893 56.5443L37.8768 59.3065L37.1951 63.21C37.1397 63.5315 37.2782 63.8583 37.5526 64.0486C37.8269 64.2388 38.19 64.2629 38.4892 64.1102L42.0446 62.275L45.6 64.1102C45.8993 64.2629 46.2623 64.2415 46.5367 64.0486C46.811 63.8557 46.9496 63.5315 46.8942 63.21L46.2097 59.3065L49.0972 56.5443C49.3356 56.3166 49.4215 55.9763 49.3162 55.6682C49.2109 55.3601 48.9365 55.1351 48.604 55.0869L44.6218 54.5189L42.84 50.9744Z" stroke="#0f766e" stroke-width="2.59141"/>
<path d="M62.6561 50.9744C62.5092 50.6797 62.1988 50.4921 61.858 50.4921C61.5171 50.4921 61.2095 50.6797 61.0599 50.9744L59.278 54.5189L55.2986 55.0869C54.9661 55.1351 54.689 55.3601 54.5865 55.6682C54.4839 55.9763 54.5671 56.3166 54.8054 56.5443L57.6929 59.3065L57.0112 63.21C56.9558 63.5315 57.0943 63.8583 57.3687 64.0486C57.643 64.2388 58.0061 64.2629 58.3053 64.1102L61.8607 62.275L65.4161 64.1102C65.7154 64.2629 66.0784 64.2415 66.3528 64.0486C66.6271 63.8557 66.7657 63.5315 66.7103 63.21L66.0258 59.3065L68.9133 56.5443C69.1517 56.3166 69.2376 55.9763 69.1323 55.6682C69.027 55.3601 68.7526 55.1351 68.4201 55.0869L64.4379 54.5189L62.6561 50.9744Z" stroke="#0f766e" stroke-width="2.59141"/>
<path d="M82.4722 50.9744C82.3253 50.6797 82.0149 50.4921 81.6741 50.4921C81.3332 50.4921 81.0256 50.6797 80.876 50.9744L79.0941 54.5189L75.1147 55.0869C74.7822 55.1351 74.5051 55.3601 74.4026 55.6682C74.3 55.9763 74.3832 56.3166 74.6215 56.5443L77.509 59.3065L76.8273 63.21C76.7719 63.5315 76.9105 63.8583 77.1848 64.0486C77.4591 64.2388 77.8222 64.2629 78.1215 64.1102L81.6769 62.275L85.2322 64.1102C85.5315 64.2629 85.8946 64.2415 86.1689 64.0486C86.4432 63.8557 86.5818 63.5315 86.5264 63.21L85.8419 59.3065L88.7295 56.5443C88.9678 56.3166 89.0537 55.9763 88.9484 55.6682C88.8431 55.3601 88.5687 55.1351 88.2362 55.0869L84.254 54.5189L82.4722 50.9744Z" stroke="#0f766e" stroke-width="2.59141"/>
<path d="M62.6561 67.6931C62.5092 67.3984 62.1988 67.2108 61.858 67.2108C61.5171 67.2108 61.2095 67.3984 61.0599 67.6931L59.278 71.2376L55.2986 71.8056C54.9661 71.8538 54.689 72.0788 54.5865 72.3869C54.4839 72.695 54.5671 73.0353 54.8054 73.263L57.6929 76.0252L57.0112 79.9287C56.9558 80.2502 57.0943 80.577 57.3687 80.7673C57.643 80.9575 58.0061 80.9816 58.3053 80.8289L61.8607 78.9937L65.4161 80.8289C65.7154 80.9816 66.0784 80.9602 66.3528 80.7673C66.6271 80.5744 66.7657 80.2502 66.7103 79.9287L66.0258 76.0252L68.9133 73.263C69.1517 73.0353 69.2376 72.695 69.1323 72.3869C69.027 72.0788 68.7526 71.8538 68.4201 71.8056L64.4379 71.2376L62.6561 67.6931Z" stroke="#0f766e" stroke-width="2.59141"/>
<line x1="29.1117" y1="42.7583" x2="96.4884" y2="42.7583" stroke="#0f766e" stroke-width="2.59141"/>
<path d="M76.405 25.9141L76.405 37.884" stroke="#0f766e" stroke-width="2.59141"/>
<path d="M47.2516 25.9141L47.2516 37.884" stroke="#0f766e" stroke-width="2.59141"/>
</svg>
