<svg width="122" height="123" viewBox="0 0 122 123" fill="none" xmlns="http://www.w3.org/2000/svg">
<path d="M54.0355 111.755L54.0351 111.755L20.6462 92.3293C20.6461 92.3292 20.646 92.3291 20.6458 92.329C16.5233 89.9285 13.9753 85.4858 13.9737 80.6784C13.9737 80.6783 13.9737 80.6783 13.9737 80.6782L13.9654 41.8321C13.9728 37.0184 16.5215 32.582 20.6421 30.1846L54.0323 10.7573C58.1623 8.35436 63.2402 8.35225 67.3604 10.7512L67.3608 10.7515L100.75 30.1767C104.872 32.5772 107.42 37.0198 107.422 41.8273C107.422 41.8274 107.422 41.8276 107.422 41.8277L107.421 80.6783C107.414 85.4924 104.865 89.9293 100.744 92.3269L67.3635 111.749C63.2335 114.152 58.1556 114.154 54.0355 111.755Z" fill="white" stroke="#0f766e" stroke-width="2.59141"/>
<path d="M51.8896 81.9838V79.3923H59.9629V69.6646C57.6805 69.256 55.6829 68.3016 53.9703 66.8016C52.2576 65.3015 51.079 63.4419 50.4345 61.2226C47.6935 60.9003 45.3571 59.7765 43.4252 57.8512C41.4933 55.926 40.5273 53.6045 40.5273 50.8868V48.2954C40.5273 47.601 40.7856 46.9955 41.3022 46.4789C41.8189 45.9623 42.4244 45.704 43.1187 45.704H49.9959V40.5212H72.5213V45.704H79.3985C80.0928 45.704 80.6984 45.9623 81.215 46.4789C81.7316 46.9955 81.9899 47.601 81.9899 48.2954V50.8868C81.9899 53.6045 81.0239 55.926 79.092 57.8512C77.1601 59.7765 74.8237 60.9003 72.0827 61.2226C71.4382 63.4419 70.2596 65.3015 68.5469 66.8016C66.8343 68.3016 64.8367 69.256 62.5543 69.6646V79.3923H70.6276V81.9838H51.8896ZM49.9959 58.4418V48.2954H43.1187V50.8868C43.1187 52.8603 43.7765 54.5555 45.0921 55.9725C46.4078 57.3895 48.0424 58.2125 49.9959 58.4418ZM61.2586 67.133C63.6507 67.133 65.6773 66.3024 67.3384 64.6413C68.9996 62.9801 69.8302 60.9535 69.8302 58.5614V43.1126H52.687V58.5614C52.687 60.9535 53.5176 62.9801 55.1788 64.6413C56.8399 66.3024 58.8665 67.133 61.2586 67.133ZM72.5213 58.4418C74.4748 58.2125 76.1094 57.3895 77.4251 55.9725C78.7407 54.5555 79.3985 52.8603 79.3985 50.8868V48.2954H72.5213V58.4418Z" fill="#0f766e"/>
</svg>
