<svg width="123" height="124" viewBox="0 0 123 124" fill="none" xmlns="http://www.w3.org/2000/svg">
<path d="M54.9307 113.105L54.9303 113.104L20.765 93.3803C16.5363 90.9371 13.9277 86.4189 13.9261 81.5352C13.9261 81.5351 13.9261 81.5351 13.9261 81.535L13.9175 42.0913C13.9252 37.2014 16.5343 32.6896 20.7607 30.2495L54.9275 10.5233C59.1648 8.07693 64.3761 8.07475 68.6034 10.5172L68.6037 10.5174L102.769 30.2415C106.998 32.6847 109.606 37.2028 109.608 42.0864C109.608 42.0865 109.608 42.0867 109.608 42.0868L109.607 81.535C109.6 86.4254 106.99 90.9376 102.764 93.3779L68.6065 113.099C64.3693 115.545 59.158 115.547 54.9307 113.105Z" fill="white" stroke="#0f766e" stroke-width="2.59141"/>
<path d="M73.4897 73.5632L85.4618 61.5911L91.053 67.1823L79.0809 79.1544C79.0347 79.2007 78.997 79.2251 78.9537 79.2468C78.9043 79.2715 78.8487 79.2929 78.7377 79.3306L72.0042 80.6399L73.3135 73.9064C73.3513 73.7954 73.3726 73.7398 73.3973 73.6904C73.419 73.6471 73.4435 73.6094 73.4897 73.5632ZM98.2587 56.5507C99.1961 57.4881 99.1961 59.0392 98.2587 59.9767L95.2568 62.9785L89.6656 57.3873L92.6674 54.3854C93.6049 53.448 95.156 53.448 96.0934 54.3854L98.2587 56.5507Z" stroke="#0f766e" stroke-width="2.59141"/>
<path d="M62.8023 84.7793C63.5179 84.7793 64.0981 84.1992 64.0981 83.4836C64.0981 82.768 63.5179 82.1879 62.8023 82.1879V84.7793ZM62.8023 82.1879H26.5226V84.7793H62.8023V82.1879Z" fill="#0f766e"/>
<path d="M40.9694 53.8789L47.016 41.7856L53.0626 53.8789L65.1559 59.9255L53.0626 65.9721L47.016 78.0654L40.9694 65.9721L28.8761 59.9255L40.9694 53.8789Z" stroke="#0f766e" stroke-width="2.59141" stroke-linejoin="round"/>
<path d="M71.7522 45.0845L75.0504 38.4882L78.3485 45.0845L84.9448 48.3826L78.3485 51.6808L75.0504 58.2771L71.7522 51.6808L65.1559 48.3826L71.7522 45.0845Z" stroke="#0f766e" stroke-width="2.59141" stroke-linejoin="round"/>
</svg>
