<svg width="604" height="316" viewBox="0 0 604 316" fill="none" xmlns="http://www.w3.org/2000/svg">
<g clip-path="url(#clip0_99_2685)">
<path d="M521.456 265.841C518.575 264.074 515.845 262.211 513.277 260.261C510.555 258.397 507.986 256.445 505.582 254.414C511.191 258.042 516.49 261.856 521.456 265.841Z" fill="#BBADE9"/>
<path d="M526.45 265.779C524.629 263.752 523.003 261.659 521.58 259.509C519.957 257.408 518.529 255.249 517.305 253.043C519.116 255.071 520.738 257.165 522.162 259.313C523.788 261.414 525.219 263.573 526.45 265.779Z" fill="#BBADE9"/>
<path d="M533.077 253.625C533.276 253.625 531.987 256.227 531.38 259.511C530.772 262.795 531.02 265.475 530.822 265.483C530.573 264.911 530.456 264.32 530.475 263.727C530.373 262.301 530.46 260.873 530.735 259.456C531.005 258.043 531.456 256.646 532.086 255.279C532.291 254.701 532.625 254.144 533.077 253.625Z" fill="#BBADE9"/>
<path d="M340.871 57.8028C341.614 54.3622 333.931 51.533 328.157 51.2273C325.393 51.0941 322.531 51.3605 319.928 50.7806C314.265 49.5345 312.01 44.9183 306.496 43.4449C302.369 42.3398 297.623 43.3195 293.62 44.597C289.618 45.8744 285.665 47.4732 281.228 47.6535C277.337 47.8103 273.111 46.8698 269.716 48.1002C267.238 48.9937 265.85 50.8354 263.52 51.9248C261.19 53.0142 258.253 53.218 255.416 53.3199C252.578 53.4218 249.653 53.4296 247.063 54.182C244.474 54.9344 242.354 56.6507 242.887 58.4141L340.871 57.8028Z" fill="#D9CEFF"/>
<path d="M121.64 41.3906C122.346 38.1381 115.11 35.4734 109.657 35.1913C107.067 35.0581 104.366 35.3089 101.912 34.7681C96.5835 33.5925 94.4769 29.282 89.2474 27.8556C85.3687 26.8211 80.8952 27.738 77.128 28.9371C73.3609 30.1362 69.6928 31.6488 65.4176 31.8213C61.7 31.9702 57.7841 31.1081 54.5746 32.2366C52.1953 33.0831 50.9437 34.8229 48.7379 35.8496C46.5322 36.8763 43.7811 37.0644 41.1045 37.1585C38.4278 37.2525 35.6768 37.2682 33.2355 37.9422C30.7943 38.6162 28.7992 40.2934 29.2949 41.9314L121.64 41.3906Z" fill="#D9CEFF"/>
<path d="M131.912 94.1186C132.47 91.5715 126.769 89.4711 122.494 89.2517C120.45 89.1498 118.33 89.3457 116.397 88.9225C112.209 87.9977 110.536 84.5728 106.484 83.4834C103.435 82.6997 99.916 83.3972 96.9543 84.3377C93.9926 85.2782 91.0557 86.4694 87.747 86.6027C84.8721 86.7202 81.7493 86.0384 79.2337 86.9318C77.3501 87.5902 76.3712 88.9617 74.6363 89.7689C72.8219 90.4669 70.7236 90.813 68.6014 90.7643C66.4904 90.7296 64.3882 90.9477 62.4054 91.4069C60.497 91.9555 58.9108 93.2408 59.3073 94.5418L131.912 94.1186Z" fill="#E6E1FD"/>
<path d="M423.422 65.874C423.979 63.3191 418.279 61.2265 414.004 61.0071C411.959 60.9052 409.84 61.1011 407.907 60.6701C403.719 59.7531 402.046 56.3282 397.993 55.2388C394.933 54.4551 391.413 55.1448 388.452 56.0931C385.49 57.0414 382.565 58.217 379.257 58.3502C376.369 58.4678 373.247 57.7938 370.731 58.6872C368.86 59.3456 367.868 60.7171 366.146 61.5243C364.344 62.2234 362.262 62.5799 360.148 62.551C358.039 62.5187 355.938 62.7339 353.952 63.1858C352.044 63.7423 350.458 65.0198 350.854 66.3208L423.422 65.874Z" fill="#E6E1FD"/>
<path d="M153.586 134.598L210.527 97.3711L226.488 100.788L282.314 160.038L315.339 170.72L343.593 222.674L256.873 219.837L153.586 134.598Z" fill="#BBADE9"/>
<path d="M602.971 201.867C603.033 201.969 468.53 234.51 302.589 274.527C136.647 314.544 2.00798 346.92 1.93362 346.81C1.85927 346.701 136.35 314.176 302.353 274.159C468.356 234.141 602.909 201.758 602.971 201.867Z" fill="#263238"/>
<path d="M582.845 118.508L551.667 109.879L466.385 32.3994L443.497 27.1641L350.507 91.7042L324.682 100.639L227.665 164.466L202.621 179.051L336.418 265.841L603.998 201.356V146.338L582.845 118.508Z" fill="#D9CEFF"/>
<path d="M466.386 32.3994L443.498 27.1641L395.727 60.3158L445.134 34.9308L459 47.3843C459.496 47.2824 464.8 42.0157 464.8 42.0157C464.8 42.0157 489.584 53.5209 489.286 53.2074C488.989 52.8939 466.386 32.3994 466.386 32.3994Z" fill="white"/>
<path d="M228.102 164.984L338.366 110.695L383.237 104.135L417.303 45.3398L350.51 91.7053L324.685 100.64L228.102 164.984Z" fill="#BBADE9"/>
<path d="M551.668 109.879L575.758 123.814L603.999 146.338L582.846 118.508L551.668 109.879Z" fill="#BBADE9"/>
<path d="M228.102 164.984L228.535 164.678L229.849 163.785L235.004 160.313L254.596 147.193L324.487 100.522L350.312 91.5484H350.237L424.688 39.8223C430.934 35.4804 437.109 31.1934 443.214 26.9613L443.351 26.8594L443.561 26.9064L466.449 32.1496H466.536L466.598 32.1966L551.806 109.715L551.707 109.668L582.86 118.289H582.922V118.328L597.309 137.357C598.945 139.552 600.209 141.237 601.027 142.381C601.436 142.945 601.758 143.376 601.981 143.666L602.291 144.113C602.291 144.113 602.154 143.972 601.931 143.682L600.94 142.405L597.086 137.404L582.563 118.423L582.649 118.477L551.459 109.856H551.397C529.091 89.5656 499.35 62.6837 466.041 32.416L466.189 32.4866L443.301 27.2512L443.648 27.1964L425.209 40.1593L350.72 91.8306L324.821 100.796L324.896 100.757L254.893 147.326L235.19 160.383L229.973 163.816L228.634 164.694L228.102 164.984Z" fill="#263238"/>
<path d="M252.128 200.425L226.315 190.832L133.313 121.566L110.425 127.186L46.9162 214.344L15.7502 223.6L0 253.821L2.26774 346.105L89.5199 325.477L337.806 265.506L252.128 200.425Z" fill="#D9CEFF"/>
<path d="M46.918 214.344L59.31 209.634L71.9003 193.865L81.975 198.678L112.819 133.126L134.468 122.319L133.315 121.566L110.427 127.186L46.918 214.344Z" fill="#BBADE9"/>
<path d="M110.427 127.186L133.315 121.566L181.086 157.148C181.086 157.148 141.717 135.156 141.209 135.156C141.209 135.156 137.33 143.401 136.834 143.291C136.339 143.182 113.29 128.636 113.29 128.636L103.934 136.136L110.427 127.186Z" fill="white"/>
<path d="M337.806 265.538C337.806 265.538 337.249 265.146 336.208 264.371L331.61 260.914C327.583 257.881 321.697 253.43 314.187 247.755L251.917 200.536L251.992 200.575L226.167 190.998C202.696 173.536 176.177 153.786 148.196 132.955L133.078 121.693L133.437 121.755L110.537 127.375L110.71 127.265C86.0377 161.091 64.0543 191.288 47.1268 214.408V214.455H47.0525L15.8246 223.711L15.9237 223.64L4.23807 245.898C2.87495 248.469 1.82163 250.452 1.11528 251.8L0.297409 253.312C0.111528 253.657 0 253.822 0 253.822C0 253.822 0.0743524 253.649 0.247841 253.304C0.421329 252.959 0.681561 252.45 1.01615 251.776L4.05219 245.859C6.72886 240.678 10.6323 233.123 15.5768 223.57V223.523H15.6387L46.7922 214.235L46.6931 214.306L110.14 127.1V127.03H110.264L133.152 121.403L133.45 121.332L133.598 121.442L148.655 132.649L226.563 190.723H226.489L252.301 200.324L314.398 247.607L331.722 260.836L336.257 264.316L337.806 265.538Z" fill="#263238"/>
<path d="M303.776 237.918L312.612 213.975L352.34 175.965L383.742 171.105L425.813 200.589L463.274 206.577L520.673 221.727L281.582 279.409L285.758 259.338L303.776 237.918Z" fill="#E6E1FD"/>
<path d="M303.778 237.911C303.778 237.911 303.394 238.397 302.625 239.337L299.18 243.507L285.884 259.385C284.719 265.083 283.331 271.838 281.757 279.456L281.485 279.323L511.456 223.757L520.527 221.57V221.946L463.127 206.797L425.678 200.793H425.591V200.746L383.545 171.255L383.805 171.302L352.404 176.106L352.553 176.043L312.75 214.031L306.108 231.829C305.339 233.835 304.769 235.364 304.373 236.398C303.976 237.433 303.765 237.966 303.765 237.966C303.765 237.966 303.927 237.441 304.298 236.398C304.67 235.356 305.228 233.828 305.946 231.806C307.434 227.762 309.664 221.774 312.452 213.999L352.107 175.957V175.91H352.206L383.595 171.035H383.744L383.855 171.106L425.988 200.574L425.914 200.402L463.375 206.389L520.799 221.562L521.543 221.758L520.787 221.946L511.703 224.133L281.658 279.558L281.336 279.637V279.425C282.935 271.807 284.36 265.051 285.562 259.362V259.322L298.97 243.467C300.519 241.665 301.696 240.286 302.489 239.345C303.282 238.405 303.778 237.911 303.778 237.911Z" fill="#263238"/>
<path d="M569.768 173.461L578.604 149.518L618.333 111.508L649.734 106.648L691.805 136.132L729.266 142.12L786.666 157.27L547.574 214.952L551.75 194.881L569.768 173.461Z" fill="#F4F2FF"/>
<path d="M575.312 196.281C576.303 196.784 577.216 197.346 578.039 197.958C580.117 199.38 582.062 200.876 583.863 202.441C585.659 204.003 587.314 205.628 588.82 207.308C589.506 207.986 590.075 208.709 590.517 209.464C589.753 208.825 589.058 208.155 588.436 207.457C587.196 206.211 585.4 204.503 583.293 202.684C581.186 200.866 579.154 199.275 577.655 198.147C576.808 197.559 576.025 196.936 575.312 196.281Z" fill="#263238"/>
<path d="M586.415 189.203C586.907 190.132 587.32 191.076 587.654 192.032C588.385 193.788 589.463 196.194 590.826 198.827C592.189 201.461 593.552 203.812 594.544 205.505C595.153 206.409 595.679 207.336 596.117 208.279C595.861 208.067 595.656 207.832 595.51 207.582C595.163 207.127 594.692 206.453 594.122 205.614C592.995 203.937 591.557 201.594 590.182 198.953C588.806 196.312 587.802 193.874 587.183 192.103C586.873 191.209 586.638 190.488 586.514 189.987C586.422 189.73 586.389 189.466 586.415 189.203Z" fill="#263238"/>
<path d="M605.126 193.742C605.213 193.742 604.606 194.401 603.974 195.506C603.171 196.943 602.715 198.449 602.623 199.973C602.623 201.768 602.425 203.421 602.536 204.581C602.659 205.216 602.721 205.854 602.722 206.493C602.358 205.888 602.14 205.251 602.078 204.605C601.9 203.058 601.867 201.506 601.978 199.957C602.065 198.389 602.599 196.844 603.552 195.396C603.89 194.782 604.426 194.219 605.126 193.742Z" fill="#263238"/>
<path d="M254.022 291.121C252.153 289.793 250.101 288.574 247.888 287.477C245.533 286.494 243.045 285.644 240.453 284.938C241.31 284.974 242.149 285.106 242.932 285.329C244.833 285.781 246.63 286.392 248.272 287.148C249.922 287.894 251.402 288.78 252.672 289.781C253.239 290.176 253.696 290.629 254.022 291.121Z" fill="#263238"/>
<path d="M254.034 274.801C254.145 274.801 253.922 275.671 253.885 277.066C253.853 278.88 254.233 280.688 255.013 282.434C255.81 284.179 257.009 285.84 258.569 287.364C259.808 288.532 260.676 289.19 260.589 289.237C260.319 289.121 260.077 288.981 259.87 288.822C259.259 288.418 258.695 287.985 258.185 287.529C254.763 284.479 253.084 280.783 253.426 277.05C253.483 276.492 253.599 275.937 253.773 275.389C253.807 275.185 253.895 274.986 254.034 274.801Z" fill="#263238"/>
<path d="M266.837 278.926C266.648 279.353 266.416 279.772 266.143 280.18C265.629 281.192 265.395 282.252 265.449 283.315C265.505 284.366 265.849 285.402 266.465 286.379C266.787 286.773 267.06 287.181 267.283 287.602C267.221 287.602 266.651 287.249 266.044 286.497C265.282 285.52 264.859 284.451 264.805 283.362C264.742 282.259 265.055 281.16 265.722 280.141C265.933 279.685 266.315 279.268 266.837 278.926Z" fill="#263238"/>
<path d="M228.098 164.984L228.531 164.678L229.845 163.785L235 160.313L254.592 147.193L324.483 100.522L350.308 91.5484H350.233L424.684 39.8223C430.93 35.4804 437.105 31.1934 443.211 26.9613L443.347 26.8594L443.558 26.9064L466.446 32.1496H466.532L466.594 32.1966L551.802 109.715L551.703 109.668L582.856 118.289H582.918V118.328L597.305 137.357C598.941 139.552 600.205 141.237 601.023 142.381C601.432 142.945 601.754 143.376 601.977 143.666L602.287 144.113C602.287 144.113 602.15 143.972 601.927 143.682L600.936 142.405L597.082 137.404L582.559 118.423L582.645 118.477L551.455 109.856H551.393C529.087 89.5656 499.346 62.6837 466.037 32.416L466.185 32.4866L443.297 27.2512L443.644 27.1964L425.205 40.1593L350.717 91.8306L324.817 100.796L324.892 100.757L254.889 147.326L235.186 160.383L229.969 163.816L228.631 164.694L228.098 164.984Z" fill="#263238"/>
<path d="M273.917 280.967L272.419 293.02L272.606 294.571C272.606 294.571 291.524 298.377 292.273 301.73L257.791 307.511L256.461 299.37L258.334 279.512L273.917 280.967Z" fill="#D912AE"/>
<path d="M261.706 294.861C261.392 295.02 261.145 295.292 261.014 295.627C260.883 295.961 260.876 296.333 260.995 296.672C261.135 297.004 261.395 297.267 261.72 297.405C262.045 297.543 262.409 297.547 262.736 297.414C263.07 297.245 263.331 296.954 263.468 296.598C263.605 296.241 263.608 295.846 263.476 295.487C263.295 295.163 262.999 294.923 262.649 294.819C262.3 294.715 261.925 294.754 261.603 294.928" fill="#BBADE9"/>
<path d="M257.782 307.557L257.426 304.667L290.625 300.234C290.625 300.234 292.273 300.668 292.273 301.805L257.782 307.557Z" fill="#324650"/>
<path d="M273.143 294.328C273.143 294.501 272.337 294.723 271.598 295.417C270.858 296.111 270.53 296.92 270.361 296.872C270.193 296.824 270.287 295.793 271.204 294.945C272.122 294.097 273.152 294.164 273.143 294.328Z" fill="white"/>
<path d="M276.999 295.267C277.064 295.431 276.381 295.845 275.931 296.674C275.482 297.502 275.425 298.302 275.257 298.321C275.088 298.34 274.826 297.358 275.416 296.394C276.006 295.431 276.971 295.103 276.999 295.267Z" fill="white"/>
<path d="M279.763 299.369C279.613 299.436 279.239 298.608 279.529 297.586C279.819 296.565 280.531 296.054 280.625 296.189C280.719 296.324 280.316 296.912 280.1 297.75C279.885 298.588 279.922 299.33 279.763 299.369Z" fill="white"/>
<path d="M355.805 249.391L361.872 259.55L363.489 262.311C363.489 262.311 382.735 263.458 383.905 266.676L350.5 277.197L348.112 269.326L347.344 249.391L355.805 249.391Z" fill="#D912AE"/>
<path d="M352.718 264.075C352.42 264.279 352.208 264.589 352.121 264.946C352.034 265.302 352.08 265.679 352.25 266.002C352.434 266.31 352.727 266.533 353.067 266.624C353.407 266.716 353.768 266.669 354.076 266.494C354.384 266.279 354.605 265.955 354.695 265.583C354.785 265.211 354.738 264.818 354.563 264.48C354.337 264.18 354.006 263.983 353.641 263.929C353.276 263.875 352.905 263.969 352.605 264.191" fill="#BBADE9"/>
<path d="M350.496 277.197L349.766 274.384L382.066 265.355C382.066 265.355 383.752 265.548 383.939 266.675L350.496 277.197Z" fill="#324650"/>
<path d="M363.98 261.968C363.98 262.142 363.231 262.469 362.585 263.259C361.938 264.049 361.723 264.897 361.555 264.878C361.386 264.859 361.339 263.809 362.135 262.864C362.931 261.92 363.961 261.805 363.98 261.968Z" fill="white"/>
<path d="M367.925 262.35C368.009 262.504 367.391 263.015 367.045 263.891C366.698 264.768 366.764 265.577 366.605 265.626C366.445 265.674 366.052 264.749 366.502 263.699C366.951 262.648 367.878 262.196 367.925 262.35Z" fill="white"/>
<path d="M371.165 266.04C371.024 266.117 370.547 265.356 370.697 264.306C370.847 263.255 371.493 262.648 371.633 262.764C371.774 262.88 371.418 263.525 371.305 264.392C371.193 265.26 371.352 265.973 371.165 266.04Z" fill="white"/>
<path d="M270.022 180.51L263.082 225.217C263.082 225.217 256.535 280.696 256.301 291.873H273.087C273.087 291.873 283.864 239.583 288.34 231.827C292.817 224.071 302.341 162.242 302.341 162.242L270.022 180.51Z" fill="#263238"/>
<path d="M304.766 157.638C304.766 157.638 351.526 183.326 355.187 189.434C358.849 195.543 362.411 259.481 362.411 259.481L347.713 265.587L336.994 209.824L284.406 189.453C284.406 189.453 270.93 183.884 264.617 177.535C258.305 171.185 260.038 159.488 260.038 159.488L264.393 153.707L306.901 146.086L304.766 157.638Z" fill="#263238"/>
<path d="M273.957 185.957C274.145 186.076 274.346 186.17 274.556 186.236L276.308 186.93L282.788 189.416L304.141 197.654C312.485 200.872 320.061 203.743 325.549 205.747C328.303 206.759 330.532 207.549 332.105 208.079L333.884 208.686C334.089 208.77 334.303 208.828 334.521 208.86C334.329 208.752 334.129 208.662 333.922 208.59L332.171 207.896L325.69 205.41L304.319 197.143C295.974 193.916 288.398 191.054 282.91 189.04C280.157 188.077 277.928 187.238 276.354 186.709L274.575 186.111C274.373 186.045 274.166 185.993 273.957 185.957Z" fill="#87A5B3"/>
<path d="M305.012 157.818C303.116 157.46 301.24 156.997 299.393 156.43C296.311 155.621 293.773 155.178 293.773 155.043C295.715 155.069 297.643 155.371 299.505 155.939C301.403 156.35 303.251 156.98 305.012 157.818Z" fill="#324650"/>
<path d="M340.798 123.285L413.233 258.96L414.349 258.211L343.337 119.824L340.798 123.285Z" fill="#324650"/>
<path d="M337.047 118.299C337.047 118.299 333.25 113.405 330.129 112.001C327.008 110.597 324.5 110.326 326.714 107.867C328.929 105.408 335.008 100.941 336.303 102.535C337.598 104.128 336.407 103.588 336.554 105.159C336.701 106.73 341.705 112.181 343.382 114.534C345.058 116.888 350.916 124.124 349.88 125.185C349.139 125.926 344.894 127.715 342.564 128.669C342.365 128.751 342.153 128.795 341.941 128.801C341.728 128.807 341.52 128.773 341.329 128.701C341.138 128.63 340.968 128.523 340.828 128.386C340.689 128.25 340.584 128.087 340.519 127.907L337.047 118.299Z" fill="#263238"/>
<path d="M352.395 114.596C351.336 112.569 349.714 110.86 347.678 109.626C345.643 108.393 343.26 107.674 340.748 107.536C334.602 107.28 335.59 107.83 335.59 107.83L335.584 110.121C342.654 107.615 347.081 112.052 348.282 112.915C349.812 113.99 351.595 117.157 350.355 118.389C349.115 119.622 345.395 119.11 345.395 119.11L343.9 120.922C343.9 120.922 349.808 121.935 352.13 121.201C354.451 120.466 354.303 118.147 352.395 114.596Z" fill="#263238"/>
<path d="M378.354 184.814C378.506 185.268 378.504 185.764 378.348 186.239C378.192 186.715 377.888 187.148 377.476 187.484C377.063 187.82 376.56 188.045 376.031 188.129C375.501 188.213 374.968 188.152 374.5 187.956C374.031 187.759 373.648 187.435 373.398 187.024C373.149 186.612 373.044 186.133 373.098 185.646C373.152 185.159 373.361 184.686 373.7 184.288C374.038 183.889 374.491 183.582 375.001 183.406C375.685 183.172 376.421 183.189 377.049 183.453C377.677 183.716 378.146 184.206 378.354 184.814Z" fill="#324650"/>
<path d="M400.949 228.257C401.063 228.646 401.047 229.066 400.902 229.465C400.758 229.864 400.492 230.225 400.137 230.502C399.782 230.78 399.354 230.962 398.905 231.027C398.457 231.091 398.008 231.035 397.614 230.865C397.219 230.695 396.898 230.419 396.688 230.07C396.479 229.722 396.391 229.317 396.435 228.905C396.479 228.493 396.653 228.093 396.936 227.754C397.22 227.415 397.599 227.151 398.028 226.996C398.325 226.889 398.639 226.837 398.949 226.842C399.26 226.848 399.561 226.912 399.834 227.03C400.107 227.147 400.347 227.317 400.539 227.528C400.73 227.739 400.87 227.987 400.949 228.257Z" fill="#324650"/>
<path d="M266.826 138.572C266.826 138.572 271.928 138.644 272.679 139.109C273.431 139.575 276.43 141.868 276.43 142.386C276.427 142.699 276.499 143.009 276.641 143.29C276.641 143.29 278.526 145.911 277.676 147.031C276.826 148.152 276.199 148.519 276.219 148.866C276.239 149.213 275.969 150.419 275.25 150.747C274.557 151.046 273.916 151.453 273.352 151.952C273.031 152.448 272.648 152.902 272.211 153.302C271.701 153.621 271.152 153.875 270.577 154.056C270.416 154.362 270.175 154.619 269.879 154.8C269.583 154.982 269.243 155.08 268.896 155.084C267.815 154.986 265.844 152.942 265.204 152.182C264.407 151.231 262.376 149.561 262.113 148.715C261.953 148.197 261.751 147.693 261.506 147.208L256.562 142.562L264.275 134.863L266.826 138.572Z" fill="#FFBF9D"/>
<path d="M264.116 86.8633C264.116 86.8633 258.249 91.8039 256.865 93.0423C255.481 94.2807 237.445 109.338 236.239 116.153C235.474 120.517 238.876 123.931 240.702 126.794C242.02 128.93 250.141 143.608 257.728 144.034C258.177 144.034 260.464 146.838 260.464 146.838L268.697 139.86C267.536 138.417 266.493 136.883 265.579 135.273C262.283 129.127 255.105 119.547 255.329 119.115C256.931 116.133 253.127 116.841 253.127 116.841L268.908 102.458L264.116 86.8633Z" fill="#00AA45"/>
<path d="M230.571 40.9875C232.595 41.4659 234.177 43.0909 236.029 44.0934C239.503 45.9674 243.715 45.4695 247.024 43.9427C250.333 42.416 253.023 40.0112 255.996 37.9799C258.969 35.9487 261.329 33.9043 265.62 33.5177C273.194 32.8624 280.781 39.487 277.34 45.1156L270.979 47.3238C268.007 56.1577 261.984 63.6602 253.979 68.5015C252.383 69.4647 250.577 70.3559 248.593 70.1069C246.609 69.8579 244.592 67.9773 245.014 66.1754C241.863 66.8306 238.62 67.4335 235.324 66.942C232.028 66.4506 228.607 64.6224 227.144 61.7C225.68 58.7776 226.972 54.833 230.149 54.2629C227.216 52.4741 224.705 49.5582 224.52 46.3999C224.335 43.2416 227.275 40.2078 230.571 40.9875Z" fill="#7C755D"/>
<path d="M293.78 28.3134C289.68 27.206 285.87 28.451 282.106 30.4429C278.284 32.595 275.213 35.8537 273.302 39.7847C271.39 43.7157 270.729 48.1325 271.407 52.4463C271.801 54.6437 272.638 56.7392 273.868 58.6063C275.099 60.4735 276.697 62.0736 278.566 63.3103C283.727 66.5866 290.761 66.2852 295.968 63.1072C301.176 59.9292 304.538 54.163 305.375 48.1413C306.007 43.9697 305.304 39.7061 303.364 35.9536C302.381 34.0951 301.023 32.4577 299.375 31.1433C297.727 29.8289 295.825 28.8656 293.786 28.3134" fill="#7C755D"/>
<path d="M276.898 75.8236L280.194 40.0142C280.285 39.2418 280.663 38.5312 281.255 38.0229C281.847 37.5146 282.609 37.2454 283.391 37.2687L300.372 35.375C305.705 35.5388 308.282 42.4452 307.926 47.733C307.498 53.6303 306.733 60.766 305.441 65.0186C302.844 73.5696 295.955 73.7662 295.955 73.7662C295.955 73.7662 295.916 74.1069 295.441 77.2718C295.441 77.2718 294.578 83.8243 287.228 82.3893C282.455 81.4588 276.898 75.8236 276.898 75.8236Z" fill="#FFBF9D"/>
<path d="M304.79 54.5681C304.754 54.8604 304.604 55.1269 304.372 55.3106C304.14 55.4943 303.846 55.5806 303.551 55.5509C303.406 55.5426 303.264 55.5057 303.134 55.4424C303.003 55.379 302.887 55.2905 302.791 55.1819C302.695 55.0734 302.622 54.947 302.576 54.8101C302.53 54.6732 302.512 54.5286 302.523 54.3846C302.562 54.092 302.714 53.8258 302.946 53.6414C303.178 53.4571 303.472 53.3689 303.768 53.3952C303.914 53.4034 304.056 53.4405 304.186 53.5044C304.317 53.5682 304.433 53.6575 304.529 53.7668C304.624 53.8762 304.696 54.0035 304.741 54.1411C304.786 54.2787 304.803 54.4239 304.79 54.5681Z" fill="#263238"/>
<path d="M305.869 51.2482C305.711 51.3727 304.94 50.6323 303.727 50.4685C302.514 50.3047 301.538 50.7896 301.426 50.6257C301.314 50.4619 301.551 50.3047 301.98 50.0753C302.556 49.7883 303.207 49.6831 303.845 49.7739C304.475 49.8549 305.062 50.1352 305.52 50.5733C305.856 50.9272 305.948 51.1893 305.869 51.2482Z" fill="#263238"/>
<path d="M294.224 52.9827C294.186 53.2755 294.034 53.5421 293.802 53.7257C293.569 53.9092 293.273 53.9953 292.978 53.9656C292.833 53.9564 292.692 53.9189 292.563 53.8552C292.433 53.7915 292.317 53.7028 292.222 53.5943C292.127 53.4859 292.055 53.3597 292.009 53.2233C291.963 53.0868 291.945 52.9426 291.956 52.7992C291.994 52.5059 292.145 52.2387 292.378 52.0541C292.61 51.8695 292.906 51.7819 293.202 51.8098C293.347 51.818 293.489 51.8551 293.62 51.919C293.751 51.9828 293.867 52.0721 293.962 52.1815C294.058 52.2908 294.13 52.4181 294.175 52.5557C294.22 52.6934 294.236 52.8385 294.224 52.9827Z" fill="#263238"/>
<path d="M294.26 49.2484C294.101 49.3794 293.33 48.6324 292.117 48.4686C290.904 48.3048 289.929 48.7897 289.817 48.6259C289.705 48.4621 289.942 48.3048 290.37 48.082C290.945 47.7899 291.597 47.6823 292.236 47.7741C292.867 47.8568 293.454 48.1395 293.91 48.58C294.246 48.9142 294.339 49.196 294.26 49.2484Z" fill="#263238"/>
<path d="M297.082 59.4C297.748 59.2847 298.426 59.2539 299.099 59.3083C299.416 59.3083 299.719 59.3083 299.798 59.0986C299.869 58.7834 299.841 58.4542 299.719 58.155C299.528 57.3687 299.33 56.5497 299.126 55.6847C298.308 52.1726 297.768 49.3026 297.913 49.2698C298.058 49.2371 298.829 52.0612 299.64 55.5733C299.831 56.4383 300.022 57.2639 300.193 58.0502C300.342 58.4475 300.342 58.8847 300.193 59.282C300.135 59.3848 300.053 59.4726 299.955 59.5386C299.857 59.6045 299.744 59.6468 299.626 59.6621C299.447 59.6815 299.266 59.6815 299.086 59.6621C298.41 59.6555 297.737 59.5675 297.082 59.4Z" fill="#263238"/>
<path d="M295.954 73.7803C291.806 73.2835 287.878 71.65 284.609 69.0625C284.609 69.0625 286.739 75.5167 295.651 75.8902L295.954 73.7803Z" fill="#FF9A6C"/>
<path d="M299.843 65.4006C299.814 65.0287 299.691 64.6703 299.484 64.3591C299.277 64.0479 298.993 63.7943 298.66 63.6222C298.424 63.49 298.164 63.4075 297.894 63.3796C297.625 63.3518 297.353 63.3793 297.094 63.4604C296.843 63.5361 296.621 63.6874 296.46 63.8934C296.298 64.0994 296.205 64.3501 296.192 64.6109C296.233 64.9011 296.36 65.1727 296.556 65.3913C296.753 65.6099 297.01 65.7657 297.295 65.8389C297.891 65.9899 298.509 66.0254 299.118 65.9436C299.288 65.9348 299.455 65.8983 299.613 65.8355C299.686 65.8034 299.748 65.7513 299.793 65.6851C299.838 65.619 299.862 65.5416 299.864 65.462" fill="#FF9A6C"/>
<path d="M295.733 63.5576C295.896 63.4473 296.473 64.6422 297.936 64.9778C299.4 65.3134 300.578 64.5662 300.667 64.72C300.715 64.7905 300.497 65.0884 299.969 65.3652C299.276 65.7192 298.481 65.8181 297.722 65.6447C296.992 65.4826 296.356 65.0409 295.952 64.4155C295.657 63.949 295.645 63.5929 295.733 63.5576Z" fill="#263238"/>
<path d="M277.736 38.4191C279.957 33.5506 288.157 27.4174 293.437 28.4069L301.348 34.4745C300.9 35.8853 300.078 37.1499 298.968 38.1348C297.857 39.1197 296.5 39.7884 295.039 40.0703C293.484 40.3455 291.658 40.2604 290.61 41.4398C289.561 42.6193 289.851 44.6243 288.836 45.8759C287.439 47.6188 284.222 47.1536 283.108 49.08C282.614 49.9188 282.693 51.0065 282.185 51.8386C281.526 52.946 278.349 54.0862 277.162 53.5488C275.976 53.0115 276.213 50.9278 275.943 49.7877C275.579 48.4844 275.677 47.0964 276.22 45.8562C277.05 43.4645 276.681 40.7452 277.736 38.4191Z" fill="#7C755D"/>
<path d="M280.682 55.0068C280.767 54.3516 280.22 52.72 279.588 52.53C277.9 52.032 274.769 51.7437 274.136 56.1011C273.279 62.0573 279.469 61.6838 279.508 61.5135C279.548 61.3431 280.379 57.2543 280.682 55.0068Z" fill="#FFBF9D"/>
<path d="M278.007 58.9999C278.007 58.9999 277.889 59.0589 277.704 59.1113C277.44 59.1802 277.16 59.1474 276.92 59.0196C276.32 58.6985 275.931 57.6239 276.056 56.5427C276.115 56.0307 276.289 55.5382 276.564 55.1012C276.649 54.9285 276.775 54.7787 276.931 54.6647C277.087 54.5506 277.269 54.4756 277.46 54.4459C277.585 54.4307 277.711 54.459 277.816 54.5259C277.922 54.5929 278.001 54.6943 278.04 54.8129C278.093 54.9964 278.04 55.1077 278.04 55.1209C278.04 55.134 278.185 55.0422 278.172 54.7867C278.16 54.634 278.095 54.4902 277.987 54.3804C277.84 54.234 277.642 54.1496 277.434 54.1445C277.181 54.1586 276.936 54.2371 276.722 54.3725C276.509 54.5079 276.334 54.6957 276.214 54.9177C275.881 55.3939 275.675 55.9462 275.614 56.5231C275.476 57.7288 275.931 58.941 276.761 59.3079C276.913 59.382 277.08 59.4204 277.249 59.4204C277.418 59.4204 277.585 59.382 277.737 59.3079C277.974 59.1441 278.02 59.013 278.007 58.9999Z" fill="#FF9A6C"/>
<path d="M299.777 32.4922C300.094 34.9821 303.508 38.4681 304.959 40.519C307.72 44.4505 308.221 45.702 307.397 53.7813C309.144 51.1603 310.535 48.5393 310.733 45.3417C310.978 42.1508 310.04 38.9811 308.096 36.4302C307.113 35.178 305.85 34.1707 304.407 33.4883C302.964 32.8059 301.381 32.467 299.784 32.4987" fill="#7C755D"/>
<path d="M274.68 38.043C275.001 38.1887 275.334 38.3071 275.675 38.3969C275.998 38.5017 276.4 38.6196 276.875 38.7245C277.349 38.8293 277.877 38.98 278.483 39.0652C279.891 39.3247 281.317 39.478 282.748 39.5239C284.5 39.5709 286.252 39.4767 287.989 39.2421C289.724 38.9873 291.434 38.5907 293.104 38.0561C294.46 37.6127 295.782 37.0718 297.059 36.4377C297.619 36.1821 298.087 35.8938 298.509 35.6579C298.931 35.422 299.287 35.1992 299.564 35.0027C299.868 34.8206 300.156 34.6146 300.427 34.3867C300.101 34.5246 299.788 34.6912 299.491 34.8847C299.201 35.0551 298.832 35.2648 298.41 35.4744C297.988 35.6841 297.507 35.9659 296.953 36.2018C295.67 36.7979 294.349 37.3101 292.998 37.7351C291.34 38.2422 289.645 38.6255 287.929 38.8817C286.212 39.1114 284.48 39.2144 282.748 39.1897C281.33 39.1592 279.916 39.0322 278.516 38.8097C277.916 38.7376 277.382 38.6131 276.914 38.5214C276.446 38.4296 276.038 38.3379 275.708 38.2527C275.373 38.15 275.028 38.0798 274.68 38.043Z" fill="#324650"/>
<path d="M273.629 42.2731C273.836 42.3825 274.058 42.4619 274.288 42.5089C274.919 42.6897 275.559 42.8363 276.206 42.948C280.501 43.6891 284.917 43.2635 288.988 41.7161C289.621 41.4898 290.24 41.225 290.84 40.9232C291.063 40.8336 291.272 40.7122 291.46 40.5629C291.46 40.5104 290.511 40.9494 288.955 41.4802C284.891 42.8702 280.554 43.2855 276.299 42.6924C274.637 42.4696 273.642 42.2141 273.629 42.2731Z" fill="#324650"/>
<path d="M264.284 93.6286C261.364 94.4084 258.78 95.3061 255.59 93.6286C252.399 91.9512 249.73 88.806 249.657 85.2152C249.618 82.2797 249.611 76.8673 251.984 75.1178C254.357 73.3683 265.273 71.586 271.384 71.6056C294.91 71.6777 297.942 75.5371 301.706 77.457C301.863 78.1365 301.812 78.8472 301.56 79.4977C301.307 80.1481 300.865 80.7085 300.289 81.1068" fill="#00AA45"/>
<path d="M262.28 89.2584C262.28 89.2584 262.939 102.141 263.908 107.009C264.877 111.878 268.773 126.45 268.773 126.45C268.773 126.45 266.61 127.256 266.933 130.172C266.933 130.172 264.593 132.197 264.33 136.653C264.066 141.108 265.365 143.048 265.365 143.048L259.68 157.854L305.258 156.081L305.97 151.317C305.97 151.317 309.042 153.283 309.602 144.109C310.162 134.936 309.062 128.089 309.549 119.669C310.037 111.249 313.195 107.966 312.384 100.358C311.936 95.8896 297.664 77.1363 297.664 77.1363C297.664 77.1363 276.927 73.6307 274.844 75.8848C272.761 78.1388 262.28 89.2584 262.28 89.2584Z" fill="#00AA45"/>
<g opacity="0.3">
<path d="M307.319 128.96C297.115 123.26 289.705 113.778 282.58 104.539L281.828 102.691C282.56 106.551 282.764 111.93 283.502 115.796C283.993 118.951 284.801 122.048 285.915 125.042C287.037 128.054 289.045 130.661 291.676 132.525C296.291 135.546 302.553 135.048 307.398 132.459C308.11 132.079 308.881 131.509 308.868 130.71C308.855 129.911 308.024 129.367 307.319 128.96Z" fill="black"/>
</g>
<path d="M261.363 97.6133C261.527 97.9704 261.659 98.3409 261.759 98.7207C261.99 99.4349 262.299 100.483 262.662 101.781C263.394 104.402 264.277 107.992 265.213 111.996C266.149 116 267.006 119.623 267.685 122.225C268.021 123.489 268.298 124.524 268.502 125.311C268.621 125.684 268.711 126.065 268.772 126.451C268.613 126.092 268.48 125.722 268.377 125.344C268.133 124.629 267.823 123.587 267.454 122.29C266.709 119.669 265.806 116.078 264.877 112.075C263.947 108.071 263.097 104.448 262.431 101.84C262.102 100.582 261.831 99.5397 261.627 98.7534C261.512 98.3801 261.424 97.9991 261.363 97.6133Z" fill="#263238"/>
<path d="M281.943 133.978C281.208 133.757 280.488 133.488 279.788 133.172C278.469 132.655 276.65 131.934 274.587 131.298C272.826 130.757 271.022 130.364 269.195 130.125C267.791 129.955 266.914 129.942 266.914 129.883C267.116 129.831 267.326 129.813 267.534 129.831C268.097 129.816 268.66 129.836 269.221 129.89C271.077 130.057 272.909 130.422 274.686 130.977C276.458 131.527 278.195 132.183 279.887 132.943C280.546 133.238 281.053 133.48 281.409 133.664C281.6 133.745 281.78 133.851 281.943 133.978Z" fill="#263238"/>
<path d="M308.717 149.891C308.614 149.998 308.503 150.097 308.384 150.187C308.045 150.455 307.681 150.691 307.298 150.893C305.861 151.578 304.303 151.977 302.712 152.068C297.505 152.267 292.292 152.199 287.092 151.866C280.994 151.56 275.488 151.229 271.506 151.076L266.781 150.93L265.493 150.894C265.342 150.898 265.191 150.886 265.043 150.859C265.191 150.832 265.342 150.822 265.493 150.827L266.782 150.797C267.9 150.779 269.513 150.793 271.488 150.839C275.484 150.929 281.003 151.225 287.088 151.533C293.173 151.841 298.693 152.003 302.673 151.829C304.242 151.762 305.785 151.404 307.222 150.774C307.736 150.507 308.235 150.212 308.717 149.891Z" fill="#263238"/>
<g opacity="0.3">
<path d="M257.168 94.0593C258.737 96.6803 262.112 97.9515 265.17 97.5518C268.229 97.1521 270.958 95.3436 273.041 93.0764C275.124 90.8093 276.64 88.1031 278.136 85.4231L282.204 78.1367C277.378 80.1352 275.737 85.6852 272.085 89.407C268.433 93.1289 261.36 95.5926 257.168 94.0593Z" fill="black"/>
</g>
<path d="M282.613 78.1758C282.613 78.1758 282.132 78.2937 281.295 78.6607C280.164 79.2092 279.151 79.9728 278.315 80.9082C277.098 82.3254 276.029 83.8622 275.125 85.4949C274.554 86.4472 273.931 87.3681 273.26 88.2535C272.513 89.1952 271.647 90.0365 270.682 90.7566C268.818 92.1383 266.726 93.185 264.499 93.8494C262.692 94.4255 260.799 94.687 258.903 94.6226C257.616 94.5973 256.354 94.2646 255.224 93.6528C254.922 93.4835 254.641 93.2789 254.387 93.0434C254.294 92.9654 254.21 92.8775 254.137 92.7813C254.507 93.0558 254.892 93.3096 255.29 93.5414C256.42 94.089 257.659 94.3757 258.916 94.3801C260.78 94.4112 262.636 94.1299 264.407 93.548C266.59 92.8773 268.643 91.8426 270.478 90.488C271.416 89.7829 272.262 88.964 272.996 88.0504C273.663 87.1771 274.284 86.2694 274.855 85.3311C275.786 83.69 276.891 82.1523 278.151 80.7444C279.02 79.8062 280.075 79.0567 281.249 78.5427C281.569 78.4121 281.9 78.309 282.238 78.2348C282.359 78.1971 282.486 78.1773 282.613 78.1758Z" fill="#263238"/>
<path d="M278.817 128.493C278.771 128.598 276.622 127.589 273.774 127.032C272.043 126.75 270.298 126.558 268.547 126.455C269.055 126.341 269.576 126.299 270.096 126.331C271.353 126.332 272.607 126.455 273.84 126.698C275.071 126.942 276.274 127.306 277.433 127.785C277.924 127.958 278.39 128.196 278.817 128.493Z" fill="#263238"/>
<path d="M267.11 129.806C267.156 129.851 266.603 130.461 265.944 131.535C265.56 132.179 265.234 132.854 264.968 133.554C264.663 134.415 264.443 135.304 264.309 136.207C264.184 137.113 264.148 138.028 264.203 138.94C264.261 139.687 264.382 140.428 264.566 141.154C264.882 142.393 265.225 143.12 265.185 143.12C265.068 142.972 264.971 142.809 264.895 142.635C264.791 142.439 264.7 142.235 264.625 142.026C264.512 141.756 264.413 141.481 264.329 141.2C264.108 140.465 263.962 139.71 263.893 138.946C263.814 138.009 263.838 137.067 263.966 136.135C264.11 135.208 264.353 134.299 264.691 133.423C264.978 132.709 265.335 132.027 265.759 131.385C265.917 131.14 266.089 130.903 266.273 130.677C266.408 130.5 266.553 130.332 266.708 130.172C266.959 129.93 267.11 129.792 267.11 129.806Z" fill="#263238"/>
<g opacity="0.3">
<path d="M261.568 97.9453C261.135 101.158 261.935 104.414 263.809 107.066C263.156 104 262.253 101.025 261.568 97.9453Z" fill="black"/>
</g>
<path d="M329.873 117.883C329.873 117.883 331.429 112.796 332.114 112.177C332.799 111.558 336.008 109.221 336.552 109.378C336.87 109.475 337.206 109.494 337.532 109.432C337.532 109.432 340.706 108.29 341.624 109.479C342.542 110.668 342.708 111.389 343.061 111.472C343.414 111.555 344.568 112.169 344.685 112.991C344.789 113.77 345.015 114.528 345.356 115.238C345.767 115.703 346.115 116.22 346.391 116.776C346.568 117.379 346.667 118.001 346.687 118.628C346.949 118.88 347.139 119.197 347.235 119.546C347.332 119.896 347.332 120.264 347.235 120.614C346.82 121.666 344.183 123.047 343.225 123.47C342.017 123.995 339.769 125.542 338.812 125.557C338.241 125.568 337.671 125.624 337.109 125.725L330.953 129.312L325.386 119.359L329.873 117.883Z" fill="#FFBF9D"/>
<path d="M342.209 112.833C341.446 112.983 340.673 113.075 339.896 113.108C339.132 113.252 338.359 113.335 337.582 113.357C338.289 113.002 339.065 112.801 339.856 112.767C340.636 112.621 341.439 112.643 342.209 112.833Z" fill="#FF9A6C"/>
<path d="M280.953 100.155C283.59 107.252 286.088 116.785 287.94 122.296C290.452 129.786 298.243 132.57 302.225 132.872C307.32 133.252 332.152 128.58 332.152 128.58L331.005 116.13L328.19 116.202C327.639 115.7 326.951 115.371 326.212 115.259C320.985 114.033 306.898 115.056 306.898 115.056C306.898 115.056 303.108 99.9127 302.284 92.4756C301.625 86.5784 301.625 76.9593 292.35 76.4023C286.319 76.6841 282.423 78.8989 280.953 85.3203" fill="#00AA45"/>
<path d="M280.953 85.3444C280.953 85.3444 280.953 85.2526 281.006 85.0823C281.058 84.9119 281.111 84.6433 281.197 84.3091C281.467 83.3119 281.857 82.3506 282.357 81.4456C283.164 79.973 284.37 78.7542 285.837 77.9269C287.853 76.9031 290.08 76.356 292.344 76.3281L293.352 76.4526C293.7 76.4836 294.044 76.5472 294.38 76.6426L295.422 76.931L296.43 77.3962C297.807 78.1481 298.948 79.2638 299.726 80.62C300.56 82.0948 301.145 83.695 301.46 85.3575C301.808 87.129 302.057 88.9184 302.205 90.7174C302.625 94.6312 303.266 98.5186 304.123 102.361C304.98 106.424 305.956 110.663 307.037 115.04L306.865 114.922C310.24 114.693 313.754 114.536 317.359 114.516C319.166 114.516 320.998 114.516 322.85 114.667C323.783 114.727 324.712 114.838 325.632 115.001C326.102 115.075 326.565 115.187 327.016 115.335C327.483 115.5 327.91 115.762 328.269 116.102L328.144 116.056L330.958 115.984H331.116V116.148V116.318C331.505 120.518 331.888 124.64 332.25 128.571V128.722H332.099C327.056 129.659 322.152 130.511 317.425 131.264C315.057 131.644 312.739 131.987 310.471 132.293C308.197 132.601 305.975 132.87 303.787 132.988C301.645 133.084 299.508 132.715 297.525 131.907C295.648 131.194 293.897 130.19 292.337 128.932C290.898 127.742 289.694 126.298 288.784 124.673C288.015 123.155 287.409 121.56 286.978 119.915C285.106 113.736 283.682 108.776 282.601 105.369C282.06 103.665 281.619 102.361 281.315 101.477C281.17 101.044 281.052 100.71 280.973 100.474C280.931 100.363 280.896 100.249 280.867 100.133C280.867 100.133 280.913 100.238 280.999 100.461C281.085 100.684 281.217 101.025 281.375 101.457C281.698 102.335 282.159 103.632 282.693 105.33C283.827 108.711 285.271 113.684 287.169 119.85C287.607 121.477 288.214 123.053 288.982 124.555C289.88 126.15 291.07 127.565 292.489 128.729C294.03 129.96 295.756 130.944 297.604 131.644C299.554 132.428 301.652 132.783 303.754 132.686C305.923 132.568 308.144 132.293 310.412 131.985C312.679 131.677 314.993 131.33 317.353 130.943C322.073 130.183 326.977 129.331 332.013 128.394L331.875 128.571C331.512 124.64 331.13 120.525 330.741 116.325V116.154L330.912 116.305L328.104 116.377H328.032L327.979 116.325C327.283 115.742 326.421 115.389 325.513 115.316C324.606 115.154 323.691 115.045 322.771 114.988C320.939 114.857 319.113 114.831 317.313 114.831C313.714 114.831 310.207 115.001 306.839 115.224H306.7L306.668 115.086C305.586 110.703 304.617 106.463 303.774 102.394C302.915 98.5391 302.282 94.6383 301.875 90.7109C301.732 88.9211 301.49 87.1405 301.15 85.3771C300.848 83.7395 300.281 82.1616 299.469 80.7052C298.707 79.3818 297.591 78.2934 296.246 77.56L295.27 77.1013L294.255 76.813C293.927 76.7144 293.589 76.6507 293.247 76.623L292.251 76.4919C290.014 76.5075 287.811 77.0344 285.811 78.0318C284.36 78.8354 283.162 80.0241 282.35 81.4653C281.843 82.3579 281.441 83.3055 281.151 84.2894L280.933 85.0561L280.953 85.3444Z" fill="#263238"/>
<path d="M303.543 122.346C305.463 120.246 306.623 117.568 306.839 114.738C306.936 115.151 306.954 115.577 306.892 115.996C306.808 117.015 306.559 118.013 306.153 118.952C305.75 119.892 305.193 120.76 304.505 121.52C304.243 121.856 303.916 122.137 303.543 122.346Z" fill="#263238"/>
<path d="M329.073 128.901C328.723 126.821 328.487 124.723 328.368 122.617C328.137 120.52 328.018 118.411 328.012 116.301C328.361 118.383 328.594 120.483 328.71 122.591C328.945 124.687 329.066 126.793 329.073 128.901Z" fill="#263238"/>
<path d="M-1.64966 310.922L7.18584 286.979L46.9146 248.969L78.316 244.109L120.387 273.593L157.848 279.581L215.248 294.73L-23.8438 352.413L-19.6676 332.342L-1.64966 310.922Z" fill="#F4F2FF"/>
<path d="M419.67 312.924C419.727 313.038 460.017 293.21 509.643 268.637C559.269 244.065 599.468 224.037 599.411 223.923C599.354 223.809 559.072 243.632 509.43 268.213C459.788 292.794 419.613 312.809 419.67 312.924Z" fill="#263238"/>
</g>
<defs>
<clipPath id="clip0_99_2685">
<rect width="604" height="316" fill="white"/>
</clipPath>
</defs>
</svg>
