<svg width="122" height="124" viewBox="0 0 122 124" fill="none" xmlns="http://www.w3.org/2000/svg">
<path d="M54.7306 113.105L54.7302 113.104L20.5649 93.3803C16.3362 90.9371 13.7276 86.4189 13.726 81.5352C13.726 81.5351 13.726 81.5351 13.726 81.535L13.7174 42.0913C13.7251 37.2014 16.3342 32.6896 20.5606 30.2495L54.7274 10.5233C58.9647 8.07693 64.176 8.07475 68.4032 10.5172L68.4036 10.5174L102.569 30.2415C106.798 32.6847 109.406 37.2028 109.408 42.0864C109.408 42.0865 109.408 42.0867 109.408 42.0868L109.407 81.535C109.4 86.4254 106.79 90.9376 102.564 93.3779L68.4064 113.099C64.1692 115.545 58.9579 115.547 54.7306 113.105Z" fill="white" stroke="#0f766e" stroke-width="2.59141"/>
<path d="M55.6414 50.2467C54.3087 50.8833 53.0597 51.7536 51.9559 52.8574C46.7399 58.0734 46.7399 66.5302 51.9559 71.7462C57.1719 76.9622 65.6287 76.9622 70.8447 71.7462C76.0607 66.5302 76.0607 58.0734 70.8447 52.8574C69.7409 51.7536 68.4919 50.8833 67.1592 50.2467" stroke="#0f766e" stroke-width="2.59141"/>
<path d="M65.0019 44.8178L61.1853 45.6582V29.7899L65.2809 28.8868C67.5423 28.3909 69.9344 28.6206 72.0177 29.5393C74.7659 30.7503 78.0008 30.7503 80.749 29.5393L81.3188 29.2888C82.5415 28.7511 83.9779 29.5341 83.9779 30.7347V43.659C83.9779 44.3584 83.4853 44.9796 82.7433 45.2249L80.6837 45.9035C77.9415 46.8118 74.8965 46.6708 72.273 45.5172C70.0234 44.5307 67.4414 44.2801 65.0019 44.8178Z" fill="white" stroke="#0f766e" stroke-width="2.59141"/>
<path d="M61.6585 26.3915V62.7523" stroke="#0f766e" stroke-width="2.59141" stroke-linecap="round"/>
<path d="M63.4458 86.6215C63.2898 86.2875 62.96 86.075 62.5978 86.075C62.2357 86.075 61.9088 86.2875 61.7498 86.6215L59.8565 90.6388L55.6283 91.2825C55.2749 91.3372 54.9805 91.5922 54.8715 91.9414C54.7626 92.2906 54.8509 92.6762 55.1042 92.9343L58.1723 96.0649L57.448 100.489C57.3891 100.853 57.5363 101.224 57.8278 101.439C58.1193 101.655 58.505 101.682 58.823 101.509L62.6008 99.4293L66.3785 101.509C66.6965 101.682 67.0823 101.658 67.3738 101.439C67.6653 101.221 67.8125 100.853 67.7536 100.489L67.0263 96.0649L70.0945 92.9343C70.3477 92.6762 70.439 92.2906 70.3271 91.9414C70.2152 91.5922 69.9237 91.3372 69.5703 91.2825L65.3391 90.6388L63.4458 86.6215Z" stroke="#0f766e" stroke-width="2.59141"/>
<path d="M34.9403 65.8903C34.7843 65.5562 34.4545 65.3437 34.0923 65.3437C33.7301 65.3437 33.4033 65.5562 33.2443 65.8903L31.351 69.9075L27.1227 70.5512C26.7694 70.6059 26.475 70.861 26.366 71.2101C26.2571 71.5593 26.3454 71.945 26.5986 72.2031L29.6668 75.3337L28.9424 79.7578C28.8835 80.1222 29.0308 80.4926 29.3223 80.7082C29.6138 80.9238 29.9995 80.9511 30.3175 80.7781L34.0953 78.6981L37.873 80.7781C38.191 80.9511 38.5767 80.9269 38.8682 80.7082C39.1597 80.4896 39.307 80.1222 39.2481 79.7578L38.5208 75.3337L41.5889 72.2031C41.8422 71.945 41.9334 71.5593 41.8215 71.2101C41.7097 70.861 41.4182 70.6059 41.0648 70.5512L36.8336 69.9075L34.9403 65.8903Z" stroke="#0f766e" stroke-width="2.59141"/>
<path d="M91.9514 65.8903C91.7953 65.5562 91.4655 65.3437 91.1034 65.3437C90.7412 65.3437 90.4144 65.5562 90.2553 65.8903L88.3621 69.9075L84.1338 70.5512C83.7805 70.6059 83.486 70.861 83.3771 71.2101C83.2681 71.5593 83.3565 71.945 83.6097 72.2031L86.6778 75.3337L85.9535 79.7578C85.8946 80.1222 86.0418 80.4926 86.3333 80.7082C86.6248 80.9238 87.0105 80.9511 87.3285 80.7781L91.1063 78.6981L94.8841 80.7781C95.2021 80.9511 95.5878 80.9269 95.8793 80.7082C96.1708 80.4896 96.318 80.1222 96.2591 79.7578L95.5318 75.3337L98.6 72.2031C98.8532 71.945 98.9445 71.5593 98.8326 71.2101C98.7207 70.861 98.4292 70.6059 98.0759 70.5512L93.8447 69.9075L91.9514 65.8903Z" stroke="#0f766e" stroke-width="2.59141"/>
</svg>
