<svg width="604" height="316" viewBox="0 0 604 316" fill="none" xmlns="http://www.w3.org/2000/svg">
<path d="M569.428 255.172H37.3516V274.132H569.428V255.172Z" fill="#E1D8FF"/>
<path d="M577.954 273.914C577.954 274.022 454.371 274.114 301.907 274.114C149.443 274.114 25.8281 274.022 25.8281 273.914C25.8281 273.807 149.412 273.715 301.907 273.715C454.401 273.715 577.954 273.807 577.954 273.914Z" fill="#263238"/>
<path d="M347.957 92.8826L339.765 93.2694C335.465 98.5358 329.34 102.013 322.592 103.018C315.844 104.023 308.962 102.483 303.299 98.7002C297.636 94.9176 293.6 89.1662 291.986 82.5764C290.372 75.9865 291.296 69.0349 294.576 63.0877C297.857 57.1406 303.256 52.6281 309.713 50.4371C316.17 48.2461 323.218 48.5352 329.472 51.2474C335.726 53.9597 340.733 58.899 343.509 65.0945C346.285 71.29 346.63 78.2937 344.475 84.7289L347.957 92.8826Z" fill="#CBEDFD"/>
<path d="M347.957 92.8821L347.762 92.3732L347.127 90.8157C346.543 89.4008 345.693 87.3446 344.598 84.7081C344.584 84.6807 344.561 84.6593 344.533 84.648C344.504 84.6367 344.473 84.6364 344.444 84.647C344.424 84.6429 344.403 84.6429 344.383 84.647L344.598 84.7488C345.815 81.2225 346.281 77.4833 345.967 73.7683C345.653 70.0534 344.566 66.4438 342.775 63.1686C341.218 60.2479 339.136 57.636 336.631 55.4628C333.555 52.8004 329.921 50.8518 325.994 49.7584C322.066 48.665 317.943 48.4542 313.924 49.1413C309.904 49.8283 306.089 51.396 302.754 53.7307C299.42 56.0653 296.65 59.1084 294.645 62.6392C292.414 66.5212 291.189 70.8939 291.081 75.3634C290.968 79.6235 291.845 83.8521 293.642 87.7212C295.608 91.9235 298.619 95.5584 302.391 98.2826C306.163 101.007 310.571 102.73 315.2 103.291C319.828 103.851 324.524 103.229 328.843 101.485C333.163 99.7403 336.964 96.9302 339.887 93.3199H339.805L345.949 92.9636L347.506 92.872C347.673 92.882 347.841 92.882 348.008 92.872H347.455L345.868 92.9229L339.815 93.1366C339.789 93.1273 339.76 93.1273 339.734 93.1366C336.82 96.6597 333.057 99.3924 328.795 101.08C324.533 102.768 319.911 103.355 315.359 102.788C310.806 102.221 306.473 100.518 302.761 97.8372C299.05 95.1563 296.082 91.5852 294.133 87.4565C292.385 83.6567 291.534 79.5098 291.645 75.3329C291.759 70.9527 292.962 66.6688 295.147 62.8632C297.12 59.4087 299.839 56.4314 303.107 54.1448C306.375 51.8582 310.111 50.3191 314.049 49.6379C317.986 48.9568 322.026 49.1504 325.879 50.205C329.732 51.2597 333.302 53.149 336.334 55.7376C338.832 57.8616 340.915 60.4256 342.478 63.3009C343.886 65.8386 344.861 68.5902 345.366 71.4444C346.165 75.8633 345.849 80.4104 344.444 84.6776C344.434 84.7073 344.436 84.7397 344.449 84.7682C344.463 84.7966 344.486 84.8188 344.516 84.8303C344.536 84.8468 344.561 84.8559 344.588 84.8559C344.614 84.8559 344.639 84.8468 344.659 84.8303H344.444C345.591 87.4464 346.492 89.4619 347.086 90.8463L347.772 92.4139C347.864 92.6989 347.957 92.8821 347.957 92.8821Z" fill="#441170"/>
<path d="M326.196 76.1571C326.196 76.7027 326.359 77.236 326.663 77.6897C326.968 78.1433 327.402 78.4969 327.909 78.7057C328.416 78.9145 328.974 78.9691 329.512 78.8626C330.051 78.7562 330.545 78.4935 330.933 78.1077C331.321 77.7219 331.586 77.2303 331.693 76.6952C331.8 76.1601 331.745 75.6054 331.535 75.1014C331.325 74.5973 330.969 74.1665 330.513 73.8633C330.056 73.5602 329.52 73.3984 328.971 73.3984C328.235 73.3984 327.529 73.6891 327.009 74.2064C326.488 74.7238 326.196 75.4254 326.196 76.1571Z" fill="#441170"/>
<path d="M315.094 76.1571C315.094 76.7027 315.257 77.236 315.562 77.6897C315.867 78.1433 316.3 78.4969 316.807 78.7057C317.314 78.9145 317.872 78.9691 318.411 78.8626C318.949 78.7562 319.444 78.4935 319.832 78.1077C320.22 77.7219 320.484 77.2303 320.591 76.6952C320.698 76.1601 320.643 75.6054 320.433 75.1014C320.223 74.5973 319.868 74.1665 319.411 73.8633C318.955 73.5602 318.418 73.3984 317.869 73.3984C317.133 73.3984 316.427 73.6891 315.907 74.2064C315.387 74.7238 315.094 75.4254 315.094 76.1571Z" fill="#441170"/>
<path d="M304.025 74.7716C303.752 75.2447 303.626 75.7877 303.663 76.3321C303.7 76.8764 303.899 77.3976 304.234 77.8297C304.569 78.2618 305.025 78.5854 305.546 78.7597C306.066 78.9339 306.626 78.951 307.156 78.8086C307.686 78.6663 308.161 78.3709 308.522 77.96C308.883 77.549 309.114 77.0409 309.184 76.4998C309.255 75.9587 309.162 75.409 308.918 74.9202C308.674 74.4314 308.29 74.0254 307.814 73.7536C307.176 73.3919 306.419 73.2958 305.709 73.4865C304.999 73.6772 304.394 74.1391 304.025 74.7716Z" fill="#441170"/>
<path d="M216.84 105.976L225.032 106.363C229.332 111.63 235.457 115.107 242.205 116.112C248.953 117.117 255.834 115.577 261.498 111.794C267.161 108.011 271.196 102.26 272.811 95.6701C274.425 89.0803 273.501 82.1286 270.221 76.1815C266.94 70.2343 261.541 65.7218 255.084 63.5309C248.627 61.3399 241.579 61.6289 235.325 64.3412C229.071 67.0534 224.064 71.9927 221.288 78.1882C218.512 84.3837 218.167 91.3874 220.322 97.8227L216.84 105.976Z" fill="#FFCE99"/>
<path d="M216.84 105.976L217.035 105.467L217.67 103.909C218.253 102.495 219.103 100.438 220.199 97.8019C220.212 97.7745 220.236 97.7531 220.264 97.7418C220.292 97.7305 220.324 97.7301 220.353 97.7408C220.373 97.7367 220.394 97.7367 220.414 97.7408L220.199 97.8426C218.982 94.3163 218.516 90.577 218.83 86.8621C219.143 83.1471 220.231 79.5376 222.022 76.2623C223.578 73.3416 225.661 70.7297 228.166 68.5565C231.242 65.8941 234.876 63.9455 238.803 62.8522C242.731 61.7588 246.854 61.548 250.873 62.235C254.893 62.9221 258.708 64.4898 262.043 66.8244C265.377 69.1591 268.147 72.2022 270.152 75.733C272.383 79.615 273.608 83.9876 273.716 88.4572C273.828 92.7172 272.952 96.9459 271.155 100.815C269.189 105.017 266.178 108.652 262.406 111.376C258.634 114.1 254.225 115.824 249.597 116.384C244.969 116.945 240.273 116.323 235.954 114.579C231.634 112.834 227.833 110.024 224.91 106.414H224.992L218.847 106.057L217.291 105.966C217.124 105.976 216.956 105.976 216.789 105.966H217.342L218.929 106.017L224.981 106.23C225.008 106.221 225.037 106.221 225.063 106.23C227.976 109.753 231.739 112.486 236.002 114.174C240.264 115.861 244.886 116.449 249.438 115.882C253.991 115.315 258.324 113.612 262.036 110.931C265.747 108.25 268.715 104.679 270.664 100.55C272.412 96.7504 273.263 92.6036 273.152 88.4267C273.038 84.0465 271.835 79.7625 269.65 75.9569C267.677 72.5025 264.958 69.5251 261.69 67.2385C258.422 64.9519 254.686 63.4128 250.748 62.7317C246.811 62.0505 242.771 62.2442 238.918 63.2988C235.065 64.3534 231.495 66.2428 228.463 68.8314C225.965 70.9554 223.882 73.5194 222.319 76.3946C220.911 78.9323 219.935 81.6839 219.431 84.5381C218.631 88.957 218.948 93.5041 220.353 97.7713C220.363 97.8011 220.361 97.8335 220.348 97.8619C220.334 97.8903 220.31 97.9126 220.281 97.924C220.261 97.9406 220.236 97.9496 220.209 97.9496C220.183 97.9496 220.158 97.9406 220.138 97.924H220.353C219.206 100.54 218.305 102.556 217.711 103.94L217.025 105.508C216.932 105.793 216.84 105.976 216.84 105.976Z" fill="#441170"/>
<path d="M238.601 89.2508C238.601 89.7964 238.438 90.3298 238.133 90.7834C237.828 91.2371 237.395 91.5906 236.888 91.7994C236.381 92.0082 235.823 92.0628 235.285 91.9564C234.746 91.85 234.252 91.5872 233.864 91.2014C233.475 90.8156 233.211 90.3241 233.104 89.789C232.997 89.2539 233.052 88.6992 233.262 88.1951C233.472 87.6911 233.828 87.2602 234.284 86.9571C234.741 86.654 235.277 86.4922 235.826 86.4922C236.562 86.4922 237.268 86.7828 237.788 87.3002C238.309 87.8175 238.601 88.5192 238.601 89.2508Z" fill="#441170"/>
<path d="M249.703 89.2508C249.703 89.7964 249.54 90.3298 249.235 90.7834C248.93 91.2371 248.497 91.5906 247.99 91.7994C247.482 92.0082 246.924 92.0628 246.386 91.9564C245.848 91.85 245.353 91.5872 244.965 91.2014C244.577 90.8156 244.313 90.3241 244.206 89.789C244.099 89.2539 244.154 88.6992 244.364 88.1951C244.574 87.6911 244.929 87.2602 245.386 86.9571C245.842 86.654 246.379 86.4922 246.927 86.4922C247.664 86.4922 248.369 86.7828 248.89 87.3002C249.41 87.8175 249.703 88.5192 249.703 89.2508Z" fill="#441170"/>
<path d="M260.771 87.8653C261.045 88.3384 261.171 88.8815 261.134 89.4258C261.097 89.9701 260.898 90.4913 260.563 90.9234C260.228 91.3555 259.771 91.6792 259.251 91.8534C258.731 92.0277 258.171 92.0447 257.641 91.9024C257.111 91.76 256.636 91.4647 256.275 91.0537C255.914 90.6428 255.683 90.1346 255.613 89.5935C255.542 89.0525 255.635 88.5028 255.879 88.014C256.122 87.5251 256.507 87.1192 256.982 86.8474C257.621 86.4856 258.378 86.3896 259.088 86.5803C259.798 86.771 260.403 87.2329 260.771 87.8653Z" fill="#441170"/>
<path d="M350.023 148.216L354.222 119.113C356.127 96.4229 355.697 68.8368 359.096 61.6399C365.374 48.3457 384.349 48.0301 384.349 48.0301C409.551 47.5008 413.022 66.9027 414.702 84.5028C414.978 87.4854 415.982 92.8194 417.282 98.9881C420.355 111.845 424.359 125.098 433.206 134.178C436.595 137.751 438.729 142.319 439.289 147.198C439.852 151.992 437.026 157.591 432.203 158.14C433.378 159.362 434.255 160.836 434.768 162.448C435.281 164.06 435.414 165.767 435.159 167.438C434.904 169.11 434.267 170.7 433.296 172.089C432.326 173.477 431.048 174.625 429.561 175.445C425.465 177.756 420.344 177.206 415.613 176.463C410.882 175.72 406.079 174.651 402.526 171.547C398.973 168.442 397.324 163.739 396.116 159.179C394.647 153.697 393.62 148.108 393.043 142.464L350.023 148.216Z" fill="#263238"/>
<path d="M380.663 54.9007L382.301 53.5469L398.932 61.2018C400.113 61.3265 401.204 61.8872 401.989 62.7732C402.774 63.6591 403.196 64.8057 403.171 65.9861L397.826 122.339C397.652 126.075 399.137 127.877 396.72 130.737L380.13 149.773C374.334 156.633 375.635 140.947 371.733 132.875C371.457 132.305 372.87 130.32 372.757 129.933C372.669 129.523 372.604 129.108 372.563 128.691C372.286 124.243 372.45 120.405 372.45 120.405C372.45 115.529 372.45 113.534 372.389 113.575C372.327 113.615 364.561 107.964 361.238 95.3557C360.133 91.1623 361.605 85.9293 361.765 83.3109C361.955 80.2041 360.128 77 360.428 73.814C361.647 61.4257 370.658 54.3918 380.663 54.9007Z" fill="#AE7461"/>
<path d="M380.199 82.8707C380.194 83.3191 380.366 83.7517 380.678 84.0754C380.99 84.3991 381.418 84.5879 381.869 84.6012C382.088 84.6178 382.309 84.5908 382.518 84.5217C382.727 84.4526 382.92 84.3429 383.086 84.1988C383.252 84.0548 383.387 83.8794 383.484 83.6829C383.581 83.4863 383.637 83.2725 383.65 83.054C383.653 82.6053 383.481 82.1731 383.17 81.8483C382.858 81.5236 382.432 81.3318 381.981 81.3133C381.761 81.2967 381.539 81.3241 381.33 81.3938C381.12 81.4635 380.927 81.5742 380.761 81.7193C380.595 81.8644 380.459 82.0409 380.363 82.2387C380.267 82.4364 380.211 82.6513 380.199 82.8707Z" fill="#263238"/>
<path d="M365.164 83.0216C365.161 83.4692 365.334 83.9003 365.645 84.2234C365.957 84.5465 366.383 84.7362 366.833 84.7521C367.053 84.7701 367.274 84.744 367.484 84.6755C367.694 84.6069 367.887 84.4973 368.053 84.353C368.22 84.2087 368.355 84.0327 368.451 83.8355C368.548 83.6383 368.604 83.4238 368.615 83.2048C368.623 82.7574 368.454 82.3247 368.143 82.0008C367.833 81.6768 367.406 81.4876 366.956 81.4743C366.736 81.4563 366.514 81.4823 366.304 81.5507C366.094 81.6191 365.899 81.7286 365.732 81.8728C365.565 82.017 365.429 82.1929 365.332 82.3901C365.234 82.5874 365.177 82.8021 365.164 83.0216Z" fill="#263238"/>
<path d="M362.065 77.3862C362.28 77.6101 363.591 76.6431 365.455 76.6533C367.318 76.6635 368.68 77.5796 368.885 77.3557C369.09 77.1317 368.762 76.8467 368.168 76.4191C367.362 75.8652 366.404 75.5703 365.424 75.5743C364.457 75.5767 363.516 75.8792 362.731 76.4395C362.157 76.8772 361.963 77.2844 362.065 77.3862Z" fill="#263238"/>
<path d="M380.898 78.5281C381.134 78.7215 382.342 77.6323 384.196 77.449C386.049 77.2658 387.503 78.0496 387.677 77.8053C387.851 77.561 387.503 77.3065 386.868 76.9401C386.01 76.4685 385.026 76.2729 384.052 76.3802C383.09 76.4817 382.184 76.8804 381.461 77.5203C380.939 77.9784 380.785 78.4364 380.898 78.5281Z" fill="#263238"/>
<path d="M373.73 91.6273C372.731 91.3251 371.7 91.144 370.658 91.0878C370.176 91.0878 369.736 90.9453 369.634 90.6196C369.591 90.1332 369.702 89.6458 369.951 89.225C370.391 88.0747 370.862 86.8837 371.354 85.6215C373.31 80.5318 374.723 76.287 374.518 76.2158C374.313 76.1445 372.552 80.2264 370.606 85.3772L369.255 89.0011C368.952 89.5695 368.865 90.2268 369.009 90.8537C369.076 91.0212 369.181 91.171 369.316 91.2911C369.451 91.4113 369.612 91.4985 369.787 91.5459C370.052 91.6133 370.323 91.6509 370.596 91.6579C371.637 91.7895 372.692 91.7792 373.73 91.6273Z" fill="#263238"/>
<path d="M372.469 113.524C378.819 113.627 385.073 111.974 390.533 108.75C390.533 108.75 385.986 118.023 372.489 116.761L372.469 113.524Z" fill="#6F4439"/>
<path d="M370.631 98.8461C371.307 97.9605 373.294 96.5965 374.461 96.7186C374.832 96.7997 375.182 96.9553 375.49 97.1758C375.798 97.3964 376.058 97.6773 376.253 98.0012C376.745 98.6527 376.253 100.454 375.782 101.055C375.529 101.431 375.169 101.724 374.747 101.897C374.326 102.069 373.863 102.113 373.416 102.022C372.526 101.778 371.368 100.465 370.652 99.8844C370.44 99.7417 370.258 99.5583 370.119 99.3449C369.996 99.1209 370.436 98.9682 370.59 98.785" fill="#6F4439"/>
<path d="M401.634 89.3781C401.634 89.3781 391.977 91.8415 387.779 68.2457C386.345 60.1735 379.238 53.3431 379.238 53.3431L382.31 52.5898C382.31 52.5898 400.743 58.7891 401.102 59.0334C401.46 59.2777 405.341 68.9176 405.341 68.9176L401.634 89.3781Z" fill="#263238"/>
<path d="M399.34 88.4029C399.34 87.385 400.497 85.0437 401.491 84.891C404.143 84.4838 408.915 84.6976 408.956 91.3855C409.017 100.547 399.739 98.6942 399.739 98.4296C399.739 98.1649 399.33 91.8435 399.34 88.4029Z" fill="#AE7461"/>
<path d="M402.535 94.9572C402.535 94.9572 402.699 95.059 402.976 95.1812C403.359 95.3389 403.79 95.3389 404.174 95.1812C405.136 94.8249 405.945 93.2878 405.986 91.6387C406.002 90.8533 405.841 90.0744 405.515 89.3586C405.431 89.0727 405.276 88.8123 405.065 88.6007C404.854 88.3892 404.594 88.2334 404.307 88.1472C404.123 88.0985 403.928 88.1156 403.756 88.1957C403.583 88.2757 403.445 88.4135 403.365 88.5849C403.242 88.8394 403.303 89.0226 403.252 89.043C403.201 89.0634 403.057 88.8903 403.129 88.5137C403.178 88.2851 403.305 88.0802 403.488 87.9335C403.611 87.8372 403.752 87.7668 403.904 87.7265C404.055 87.6863 404.213 87.677 404.368 87.6993C404.746 87.7699 405.099 87.9362 405.394 88.1824C405.688 88.4285 405.913 88.746 406.048 89.1041C406.444 89.8933 406.641 90.7669 406.621 91.6489C406.621 93.4914 405.597 95.2219 404.307 95.6087C404.061 95.6822 403.801 95.6993 403.548 95.6588C403.294 95.6182 403.053 95.521 402.842 95.3746C402.556 95.171 402.504 94.9674 402.535 94.9572Z" fill="#6F4439"/>
<path d="M352.901 126.41C352.901 126.41 338.759 139.175 342.036 155.472C345.313 171.769 345.108 205.84 345.108 205.84C345.108 205.84 343.705 219.073 341.8 233.477C339.978 247.229 336.035 269.868 336.035 269.868L351.232 276.352C351.232 276.352 364.544 233.182 366.357 219.592C368.671 202.053 363.961 161.417 363.961 161.417L352.901 126.41Z" fill="#AE7461"/>
<path d="M336.013 267.672L304.637 273.718C304.637 273.718 303.152 275.683 306.122 275.927C309.091 276.172 350.821 275.927 350.821 275.927L336.013 267.672Z" fill="#AE7461"/>
<path d="M361.142 205.514C361.142 205.667 358.121 205.189 354.414 204.955C350.707 204.72 347.686 204.792 347.676 204.649C348.32 204.48 348.986 204.401 349.652 204.415C351.249 204.33 352.848 204.33 354.445 204.415C356.041 204.52 357.631 204.71 359.206 204.985C359.873 205.074 360.524 205.252 361.142 205.514Z" fill="#6F4439"/>
<path d="M464.539 279.182C464.539 279.182 502.603 281.899 521.138 280.719C532.403 280.006 541.23 267.669 530.959 258.874C525.992 254.629 463.669 240.887 463.669 240.887C451.8 249.193 458.733 269.705 464.539 279.182Z" fill="#AE7461"/>
<path d="M533.006 260.3C533.006 260.422 524.721 257.776 514.573 254.365C504.425 250.955 496.294 248.095 496.376 247.973C496.458 247.851 504.66 250.497 514.808 253.907C524.957 257.317 533.047 260.188 533.006 260.3Z" fill="#6F4439"/>
<path d="M486.586 206.359C486.586 206.359 521.27 222.646 536.375 233.375C545.53 239.89 546.493 255.017 533.088 257.073C526.616 258.091 466.413 236.959 466.413 236.959C460.76 223.664 476.612 211.327 486.586 206.359Z" fill="#AE7461"/>
<path d="M437.064 193.207L440.444 196.322C440.444 196.322 452.589 190.214 472.015 198.51C483.832 203.6 513.161 218.126 513.161 218.126C513.161 218.126 496.5 223.715 496.776 237.833C497.053 251.952 496.5 252.044 491.82 255.098C487.14 258.151 469.895 256.523 468.144 267.71C466.393 278.897 465.799 279.874 465.799 279.874C465.799 279.874 416.174 278.286 401.561 271.894C386.948 265.501 381.612 229.619 381.612 229.619L379.82 222.432L437.064 193.207Z" fill="#263238"/>
<path d="M488.278 246.191C488.027 246.161 487.779 246.103 487.541 246.018L485.493 245.428L477.833 243.178L452.6 235.605C447.973 234.177 443.216 233.206 438.397 232.704C434.476 232.338 430.521 232.596 426.682 233.467C424.095 234.06 421.615 235.046 419.329 236.389C418.531 236.867 417.926 237.274 417.527 237.569C417.331 237.729 417.122 237.872 416.902 237.997C417.077 237.817 417.265 237.65 417.466 237.498C418.026 237.036 418.615 236.608 419.227 236.216C421.505 234.813 423.994 233.782 426.6 233.162C430.471 232.229 434.47 231.93 438.438 232.276C443.269 232.752 448.04 233.704 452.682 235.116C462.554 238.058 471.443 240.837 477.884 242.832L485.503 245.235L487.551 245.917C487.802 245.983 488.046 246.076 488.278 246.191Z" fill="#22272B"/>
<path d="M448.379 219.594C447.129 221.509 446.098 223.558 445.306 225.701C444.698 227.889 444.354 230.141 444.282 232.41C444.098 231.747 444.029 231.059 444.078 230.374C444.089 228.728 444.355 227.094 444.866 225.528C445.377 223.965 446.119 222.487 447.068 221.141C447.413 220.555 447.856 220.031 448.379 219.594Z" fill="#22272B"/>
<path d="M369.397 199.885L380.426 222.392C380.426 222.392 423.077 210.848 429.825 202.898C436.574 194.948 438.827 191.599 438.827 191.599L422.514 161.875L419.001 123.611L400.425 120.832C390.543 125.83 376.872 126.94 373.001 121.31C373.001 121.31 361.931 121.382 353.934 125.82L345.844 147.319L369.397 199.885Z" fill="#146CFD"/>
<path d="M341.645 178.183H363.468L355.747 125.047C355.747 125.047 343.694 129.119 341.645 141.578C339.894 152.287 341.645 178.183 341.645 178.183Z" fill="#146CFD"/>
<path d="M352.174 144.805C352.216 144.982 352.243 145.162 352.255 145.344C352.255 145.762 352.348 146.281 352.399 146.922C352.45 147.563 352.532 148.449 352.645 149.416C352.757 150.383 352.86 151.452 353.044 152.694C353.361 155.127 353.853 158.007 354.519 161.183C355.184 164.359 356.106 167.8 357.232 171.363C358.359 174.925 359.659 178.264 360.929 181.247C362.199 184.229 363.489 186.856 364.646 189.024C365.199 190.123 365.763 191.06 366.223 191.935C366.684 192.811 367.114 193.513 367.473 194.103L368.261 195.478C368.366 195.632 368.448 195.8 368.507 195.976C368.382 195.839 368.272 195.689 368.179 195.529L367.309 194.205C366.93 193.635 366.479 192.923 365.988 192.068C365.496 191.212 364.902 190.276 364.339 189.187C363.141 187.039 361.83 184.402 360.509 181.43C359.188 178.458 357.908 175.099 356.761 171.515C355.614 167.932 354.713 164.461 354.068 161.275C353.423 158.089 352.962 155.167 352.696 152.745C352.532 151.523 352.46 150.414 352.368 149.436C352.276 148.459 352.235 147.624 352.204 146.932C352.174 146.24 352.204 145.772 352.204 145.354C352.165 145.174 352.154 144.988 352.174 144.805Z" fill="#263238"/>
<path d="M418.294 123.593C422.379 123.714 426.336 125.035 429.666 127.391C432.996 129.746 435.549 133.03 437.003 136.826C442.123 149.826 443.076 166.713 443.076 166.713L415.549 172.526L418.55 149.235C418.55 149.235 415.304 139.717 414.986 134.251C414.259 121.038 418.294 123.593 418.294 123.593Z" fill="#146CFD"/>
<path d="M443.127 166.733C442.971 166.808 442.806 166.86 442.635 166.886L441.191 167.202L435.866 168.291L418.089 171.742H417.833V171.467C417.772 171.029 417.72 170.551 417.659 170.072L415.365 151.271C415.109 148.909 414.904 146.975 414.751 145.56C414.689 144.929 414.648 144.41 414.607 144.003C414.589 143.82 414.589 143.636 414.607 143.453C414.673 143.627 414.714 143.808 414.73 143.993C414.792 144.4 414.863 144.909 414.955 145.53C415.15 146.945 415.416 148.869 415.734 151.23C416.348 156.096 417.178 162.723 418.089 170.031C418.15 170.51 418.212 170.988 418.263 171.436L417.966 171.212L435.774 167.914L441.13 166.978L442.584 166.744L443.127 166.733Z" fill="#263238"/>
<path d="M441.735 167.016L421.336 170.609L422.432 176.869L414.578 176.177L398.582 183.639C398.582 183.639 411.946 198.022 420.261 201.961C428.576 205.901 442.012 207.703 443.752 193.238C444.93 183.425 441.735 167.016 441.735 167.016Z" fill="#AE7461"/>
<path d="M438.201 186.828C438.14 186.828 437.484 185.993 436.266 184.721C434.678 183.079 432.877 181.655 430.91 180.486C428.937 179.326 426.815 178.435 424.602 177.839C422.902 177.381 421.806 177.239 421.816 177.157C421.827 177.076 422.093 177.157 422.595 177.157C423.284 177.22 423.968 177.329 424.643 177.483C426.926 177.993 429.114 178.859 431.125 180.048C433.135 181.237 434.945 182.731 436.491 184.476C436.959 185.003 437.39 185.56 437.781 186.146C438.099 186.573 438.232 186.807 438.201 186.828Z" fill="#6F4439"/>
<path d="M403.036 166.873C403.036 166.873 405.268 163.952 406.948 163.3C407.727 162.979 408.524 162.7 409.334 162.465C409.334 162.465 408.494 159.412 411.658 159.137C412.291 159.679 413.065 160.032 413.891 160.155C414.123 160.114 414.362 160.12 414.591 160.173C414.821 160.226 415.038 160.324 415.229 160.462C415.42 160.599 415.582 160.774 415.704 160.975C415.825 161.175 415.906 161.398 415.939 161.631C416.226 162.832 416.963 166.16 415.939 167.738C414.915 169.316 413.061 170.884 413.891 175.129C413.891 175.129 412.775 179.842 410.358 181.043C409.257 181.698 408.014 182.078 406.733 182.152C406.733 182.152 404.5 184.84 402.637 184.463C400.773 184.086 399.943 184.005 399.943 184.005C399.943 184.005 398.459 186.295 395.202 184.504C394.672 184.856 394.059 185.064 393.422 185.107C392.786 185.15 392.15 185.026 391.577 184.748C390.707 184.28 386.457 180.035 386.273 176.798C386.088 173.561 386.221 171.342 387.02 170.141C388.218 168.369 389.949 169.978 389.949 169.978C389.949 169.978 390.369 166.924 391.577 165.702C392.785 164.481 393.717 164.684 393.717 164.684C393.717 164.684 393.338 160.979 396.226 160.704C399.114 160.43 398.827 163.85 398.919 165.692L399.094 167.555C399.094 167.555 400.199 164.837 403.036 166.873Z" fill="#AE7461"/>
<path d="M403.035 166.874C403.035 166.936 402.667 166.63 401.929 166.365C401.48 166.198 400.987 166.18 400.527 166.315C399.92 166.554 399.434 167.023 399.175 167.618L398.929 168.137V167.567C398.878 166.773 398.806 165.897 398.775 164.91C398.812 163.866 398.631 162.826 398.243 161.856C397.823 160.838 396.379 160.665 395.345 161.225C394.311 161.785 393.942 163.261 394.034 164.635V164.93H393.696C393.187 164.987 392.7 165.169 392.279 165.461C391.859 165.752 391.519 166.144 391.29 166.6C390.764 167.67 390.418 168.818 390.266 170L390.173 170.539L389.764 170.173C389.513 169.892 389.173 169.704 388.801 169.641C388.429 169.578 388.046 169.644 387.716 169.826C387.115 170.426 386.751 171.221 386.692 172.066C386.562 172.986 386.511 173.916 386.538 174.845C386.519 175.815 386.608 176.785 386.804 177.736C387.469 179.616 388.534 181.332 389.928 182.764C390.276 183.151 390.645 183.518 391.023 183.864C391.205 184.038 391.396 184.201 391.597 184.352C391.789 184.484 391.999 184.587 392.222 184.658C392.689 184.8 393.183 184.836 393.667 184.764C394.151 184.692 394.612 184.513 395.017 184.24L395.212 184.118L395.386 184.22C396.254 184.754 397.291 184.946 398.294 184.76C398.841 184.607 399.322 184.282 399.666 183.833L399.81 183.65H400.004L401.929 183.986C402.237 183.986 402.605 184.108 402.861 184.128C403.131 184.153 403.403 184.122 403.66 184.037C404.764 183.58 405.736 182.856 406.486 181.93L406.589 181.808H406.773C407.663 181.737 408.533 181.509 409.344 181.136C410.173 180.867 410.905 180.365 411.453 179.69C412.468 178.299 413.196 176.721 413.593 175.048V175.181C413.127 173.302 413.379 171.318 414.3 169.613C414.75 168.809 415.324 168.127 415.775 167.444C416.103 166.728 416.244 165.94 416.184 165.154C416.161 164.372 416.076 163.592 415.928 162.823C415.888 162.101 415.666 161.401 415.283 160.787C415.063 160.567 414.774 160.427 414.464 160.39C414.157 160.319 413.778 160.39 413.44 160.278C412.756 160.067 412.122 159.721 411.576 159.26L411.75 159.311C411.365 159.31 410.986 159.402 410.645 159.579C410.304 159.757 410.012 160.014 409.794 160.329C409.482 160.961 409.406 161.682 409.579 162.365V162.538L409.405 162.589L407.715 163.149C407.217 163.277 406.74 163.48 406.302 163.749C405.631 164.214 405.007 164.742 404.438 165.327C403.967 165.806 403.629 166.182 403.414 166.437C403.199 166.691 403.066 166.834 403.056 166.813C403.13 166.654 403.226 166.507 403.343 166.376C403.547 166.101 403.865 165.704 404.315 165.195C404.873 164.572 405.494 164.009 406.169 163.515C406.62 163.219 407.114 162.992 407.633 162.843L409.333 162.233L409.21 162.457C408.991 161.692 409.06 160.874 409.405 160.156C409.651 159.772 409.987 159.453 410.385 159.227C410.783 159.002 411.231 158.877 411.689 158.863H411.781L411.852 158.924C412.344 159.334 412.916 159.639 413.532 159.82C414.054 159.932 415.058 159.759 415.682 160.441C415.967 160.754 416.161 161.137 416.246 161.551C416.327 161.927 416.42 162.304 416.491 162.691C416.649 163.487 416.749 164.293 416.788 165.103C416.856 165.991 416.693 166.881 416.317 167.689C415.846 168.483 415.293 169.114 414.863 169.867C414.018 171.448 413.802 173.287 414.259 175.018V175.089V175.16C413.853 176.933 413.09 178.606 412.016 180.077C411.726 180.464 411.381 180.807 410.992 181.095C410.577 181.346 410.142 181.564 409.692 181.747C408.788 182.169 407.811 182.414 406.814 182.469L407.111 182.347C406.277 183.375 405.196 184.176 403.967 184.678C403.617 184.791 403.248 184.832 402.882 184.8C402.493 184.8 402.237 184.699 401.909 184.648L400.015 184.322L400.352 184.169C399.913 184.761 399.285 185.188 398.571 185.381C397.392 185.624 396.164 185.41 395.14 184.78H395.519C395.023 185.113 394.458 185.331 393.866 185.417C393.274 185.504 392.67 185.456 392.099 185.279C391.806 185.19 391.53 185.056 391.279 184.882C391.054 184.709 390.839 184.525 390.645 184.342C390.245 183.976 389.866 183.589 389.508 183.192C388.039 181.677 386.924 179.859 386.241 177.868C386.045 176.88 385.963 175.872 385.995 174.865C385.967 173.899 386.022 172.932 386.159 171.974C386.248 170.97 386.707 170.035 387.45 169.348C387.667 169.188 387.918 169.078 388.184 169.027C388.45 168.976 388.724 168.985 388.986 169.053C389.46 169.184 389.897 169.421 390.266 169.745L389.764 169.928C389.933 168.68 390.31 167.469 390.88 166.345C391.177 165.796 391.602 165.324 392.119 164.971C392.622 164.585 393.246 164.39 393.881 164.421L393.563 164.706C393.505 163.963 393.596 163.216 393.829 162.507C394.043 161.8 394.519 161.2 395.161 160.828C395.787 160.494 396.511 160.386 397.209 160.523C397.536 160.581 397.845 160.719 398.107 160.923C398.369 161.127 398.578 161.391 398.714 161.693C399.111 162.71 399.286 163.8 399.226 164.889C399.226 165.907 399.287 166.752 399.308 167.536L399.031 167.485C399.184 167.161 399.401 166.871 399.668 166.632C399.936 166.392 400.248 166.208 400.588 166.091C401.093 165.962 401.626 166.005 402.104 166.213C402.448 166.381 402.763 166.605 403.035 166.874Z" fill="#6F4439"/>
<path d="M412.828 166.09C412.828 166.171 412.49 166.243 411.978 166.09C411.291 165.923 410.675 165.545 410.216 165.011C409.757 164.484 409.468 163.831 409.387 163.138C409.387 162.609 409.458 162.293 409.54 162.293C409.622 162.293 409.827 163.514 410.749 164.553C411.67 165.591 412.868 165.896 412.828 166.09Z" fill="#6F4439"/>
<path d="M408.649 175.446C408.454 175.517 407.625 173.349 406.079 170.967C404.532 168.585 402.884 166.976 403.006 166.824C403.129 166.671 405.055 168.106 406.652 170.59C408.25 173.074 408.823 175.395 408.649 175.446Z" fill="#6F4439"/>
<path d="M399.093 166.824C399.206 166.824 399.032 167.71 399.329 169.054C399.816 170.799 400.569 172.46 401.561 173.98C402.083 174.869 402.531 175.799 402.902 176.759C403.156 177.555 403.364 178.364 403.527 179.182C403.71 179.886 404.129 180.507 404.715 180.943C404.715 180.943 404.459 180.943 404.101 180.76C403.615 180.405 403.256 179.906 403.077 179.335C402.81 178.632 402.677 177.828 402.319 176.993C401.928 176.072 401.476 175.178 400.967 174.316C399.933 172.741 399.217 170.982 398.857 169.135C398.668 168.361 398.751 167.545 399.093 166.824Z" fill="#6F4439"/>
<path d="M397.59 179.446C396.872 179.063 396.235 178.544 395.717 177.919C395.085 177.279 394.575 176.53 394.211 175.71C393.833 174.691 393.615 173.619 393.566 172.534C393.136 168.025 393.648 164.391 393.832 164.391C394.017 164.391 393.832 168.025 394.262 172.463C394.309 173.484 394.495 174.494 394.815 175.466C395.128 176.234 395.56 176.948 396.095 177.583C397.048 178.754 397.672 179.364 397.59 179.446Z" fill="#6F4439"/>
<path d="M392.418 180.3C392.315 180.3 392.018 179.771 391.281 178.987C390.831 178.527 390.417 178.033 390.042 177.511C389.576 176.82 389.297 176.02 389.233 175.19C389.21 173.759 389.357 172.331 389.673 170.935C389.708 170.354 389.801 169.778 389.95 169.215C390.193 169.772 390.271 170.386 390.175 170.986C390.006 172.361 389.927 173.744 389.939 175.129C390.132 176.463 390.736 177.705 391.67 178.682C392.336 179.567 392.51 180.28 392.418 180.3Z" fill="#6F4439"/>
<path d="M373.591 102.235C374.19 102.076 374.751 101.799 375.24 101.421C375.726 100.999 376.051 100.424 376.162 99.7921C376.209 99.41 376.173 99.0224 376.056 98.6553C375.94 98.2883 375.745 97.9504 375.486 97.6646C375.176 97.2971 374.768 97.0252 374.308 96.8808H374.482C373.002 97.5794 371.569 98.3716 370.191 99.2526C371.299 97.9807 372.706 97.0014 374.288 96.4023H374.38H374.472C375.023 96.5752 375.516 96.8957 375.895 97.3287C376.184 97.6334 376.404 97.9957 376.542 98.3915C376.679 98.7873 376.73 99.2075 376.691 99.6244C376.652 100.041 376.525 100.445 376.317 100.809C376.109 101.173 375.826 101.489 375.486 101.736C375.231 101.961 374.927 102.124 374.598 102.21C374.269 102.297 373.924 102.305 373.591 102.235Z" fill="#263238"/>
<path d="M179.619 52.1203L180.838 52.0491C193.014 51.3772 203.684 59.8465 205.364 71.5222C205.65 73.521 205.937 75.5585 206.217 77.5891C206.421 79.069 204.513 81.0689 204.706 82.5239C205.685 89.9214 206.028 90.3159 206.217 94.3069C206.78 106.431 196.905 114.947 196.905 114.947L197.356 119.874C198.093 128.018 193.915 139.907 185.487 140.579L182.579 138.889C174.253 139.551 167.761 130.593 166.972 122.602L162.538 77.5891C160.644 65.0685 166.634 53.5454 179.619 52.1203Z" fill="#FFBF9D"/>
<path d="M197.007 114.927C191.198 115.252 185.414 113.958 180.305 111.191C180.305 111.191 184.688 119.691 197.13 117.91L197.007 114.927Z" fill="#FF9A6C"/>
<path d="M201.848 82.7826C201.874 83.2405 201.717 83.69 201.413 84.0345C201.108 84.3791 200.68 84.5911 200.22 84.6251C199.997 84.6566 199.769 84.644 199.551 84.5878C199.332 84.5316 199.127 84.433 198.947 84.2977C198.768 84.1624 198.616 83.993 198.503 83.7994C198.389 83.6058 198.315 83.3917 198.285 83.1694C198.256 82.7125 198.41 82.263 198.713 81.9181C199.016 81.5733 199.443 81.3609 199.903 81.327C200.127 81.2939 200.355 81.3055 200.575 81.361C200.794 81.4165 201.001 81.5149 201.182 81.6503C201.363 81.7857 201.515 81.9556 201.629 82.15C201.744 82.3443 201.818 82.5594 201.848 82.7826Z" fill="#263238"/>
<path d="M203.019 77.5991C202.804 77.8332 201.391 76.9374 199.465 77.0494C197.54 77.1614 196.178 78.1692 195.963 77.9554C195.748 77.7416 196.055 77.4362 196.639 76.9374C197.446 76.3242 198.421 75.9692 199.435 75.9195C200.432 75.8573 201.424 76.1064 202.271 76.6321C202.896 77.0901 203.121 77.4871 203.019 77.5991Z" fill="#263238"/>
<path d="M185.187 83.9219C185.213 84.3797 185.057 84.8293 184.752 85.1738C184.448 85.5183 184.019 85.7304 183.559 85.7643C183.336 85.7987 183.107 85.7881 182.888 85.733C182.668 85.678 182.462 85.5797 182.281 85.4439C182.101 85.3081 181.95 85.1377 181.837 84.9426C181.724 84.7476 181.651 84.532 181.624 84.3087C181.598 83.8524 181.753 83.4043 182.056 83.0601C182.358 82.7158 182.784 82.5027 183.242 82.4662C183.466 82.4346 183.694 82.4472 183.913 82.5032C184.132 82.5593 184.338 82.6578 184.518 82.793C184.699 82.9282 184.851 83.0975 184.966 83.2912C185.081 83.4849 185.156 83.6992 185.187 83.9219Z" fill="#263238"/>
<path d="M184.093 78.9934C183.888 79.2276 182.475 78.342 180.55 78.4539C178.625 78.5659 177.263 79.5737 177.038 79.3599C176.812 79.1461 177.13 78.8408 177.724 78.342C178.529 77.7329 179.499 77.3783 180.509 77.324C181.51 77.2681 182.504 77.5205 183.356 78.0468C183.97 78.4947 184.196 78.8917 184.093 78.9934Z" fill="#263238"/>
<path d="M191.906 92.4109C192.899 92.0564 193.93 91.8173 194.978 91.6984C195.459 91.6169 195.92 91.4948 196.002 91.1691C196.011 90.6721 195.864 90.1847 195.582 89.7745L193.913 86.2422C191.588 81.1525 189.878 77.0808 190.083 76.9485C190.288 76.8161 192.356 80.8777 194.681 85.9165L196.289 89.4793C196.629 90.0338 196.759 90.6904 196.657 91.3319C196.594 91.5054 196.492 91.6624 196.359 91.7911C196.226 91.9198 196.066 92.0169 195.889 92.075C195.621 92.1626 195.342 92.2173 195.06 92.2379C194.02 92.4263 192.96 92.4844 191.906 92.4109Z" fill="#263238"/>
<path d="M203.815 66.0269C203.815 66.0269 200.057 58.6265 196.165 57.069C191.455 55.1756 189.775 60.1228 185.331 59.2169C180.887 58.3109 176.401 56.4582 172.131 59.9701C167.451 63.8179 169.888 66.1897 169.909 71.5848C169.981 93.4501 166.233 99.8427 164.451 89.643C164.256 88.5233 160.969 87.8107 160.211 83.0773C159.187 76.9697 158.532 69.4878 159.699 65.0395C160.672 61.2833 162.7 58.6163 166.427 55.593C172.326 50.8189 180.764 50.2488 186.55 50.5033C192.335 50.7578 203.774 56.499 203.815 66.0269Z" fill="#FDE79A"/>
<path d="M165.231 89.2674C165.181 88.8177 165.04 88.3827 164.817 87.9883C164.594 87.5939 164.294 87.2481 163.933 86.9717C163.573 86.6952 163.16 86.4938 162.72 86.3792C162.28 86.2647 161.821 86.2395 161.37 86.3052C159.046 86.6513 156.517 88.0764 156.947 92.7385C157.715 101.004 166.163 98.551 166.163 98.3168C166.163 98.0827 165.61 92.7284 165.231 89.2674Z" fill="#FFBF9D"/>
<path d="M163.99 95.3645C163.99 95.3645 163.846 95.4765 163.611 95.6088C163.268 95.7881 162.869 95.8317 162.495 95.731C161.563 95.4867 160.672 94.1633 160.447 92.6772C160.362 91.9702 160.439 91.2535 160.672 90.5802C160.735 90.3138 160.86 90.0659 161.038 89.8571C161.217 89.6483 161.442 89.4845 161.696 89.379C161.861 89.3182 162.042 89.3164 162.209 89.3739C162.375 89.4315 162.516 89.5449 162.607 89.6946C162.751 89.9185 162.71 90.0916 162.751 90.1018C162.792 90.112 162.925 89.9491 162.822 89.6132C162.772 89.4427 162.672 89.2906 162.536 89.1755C162.281 89.0229 161.977 88.972 161.686 89.0329C161.344 89.1255 161.032 89.3045 160.781 89.5525C160.53 89.8004 160.348 90.109 160.252 90.4479C159.954 91.194 159.848 92.0023 159.945 92.7993C160.16 94.4585 161.184 95.9447 162.454 96.1789C162.688 96.2264 162.931 96.2209 163.163 96.1627C163.395 96.1046 163.611 95.9953 163.795 95.8429C163.99 95.5681 164.02 95.3747 163.99 95.3645Z" fill="#FF9A6C"/>
<path d="M205.637 57.0685C204.316 56.1117 202.504 55.9691 201.203 55.0326C198.817 53.2716 198.715 49.2609 195.919 48.2125C194.26 47.5915 192.396 48.355 190.635 48.2125C187.768 47.9173 186.662 45.8305 182.32 45.8203C176.677 45.8203 174.865 49.8921 174.865 49.8921C173.82 49.4307 172.674 49.2428 171.536 49.3461C170.398 49.4495 169.305 49.8407 168.362 50.4825C167.579 51.0659 166.928 51.8073 166.454 52.6582C165.979 53.509 165.691 54.45 165.607 55.4195C165.607 55.4195 164.717 54.9817 162.003 57.0482C160.282 58.3715 158.869 61.2013 158.245 63.2372C157.313 66.291 158.675 69.467 160.016 72.3986C160.733 73.9561 161.634 75.6764 163.314 76.2261C165.362 76.8878 167.604 75.3507 168.434 73.4064C169.263 71.4622 170.482 69.5179 171.506 67.6551C173.196 64.418 174.916 61.4049 173.503 59.3283C175.466 58.7175 177.571 58.7175 179.534 59.3283C181.49 59.9493 183.211 61.1708 185.167 61.8426C187.123 62.5145 189.591 62.4636 190.912 60.9367C191.204 61.4898 191.616 61.9719 192.118 62.3485C192.62 62.7251 193.199 62.987 193.814 63.1153C194.429 63.2437 195.066 63.2354 195.677 63.0911C196.289 62.9467 196.861 62.6699 197.353 62.2804C198.145 63.5092 199.367 64.4032 200.783 64.7904C202.199 65.1775 203.709 65.0304 205.023 64.3773C207.521 62.83 207.993 58.7786 205.637 57.0685Z" fill="#FDE79A"/>
<path d="M159.188 70.4156C159.6 71.0062 159.943 71.6414 160.212 72.3089C160.519 72.9866 161.008 73.5674 161.625 73.9885C162.445 74.3972 163.386 74.5019 164.277 74.2838C165.196 74.1266 166.071 73.7798 166.847 73.2658C167.462 72.8086 168.022 72.2826 168.516 71.6982C168.956 71.1293 169.435 70.5918 169.95 70.0898C169.664 70.7549 169.277 71.3728 168.803 71.9221C168.322 72.5605 167.757 73.1322 167.124 73.6221C166.31 74.2211 165.367 74.622 164.369 74.7927C163.466 75.0743 162.488 74.9893 161.647 74.5564C160.807 74.1235 160.173 73.3778 159.884 72.482C159.561 71.8267 159.327 71.1319 159.188 70.4156Z" fill="#455A64"/>
<path d="M159.465 76.8059C159.991 77.1773 160.562 77.4816 161.165 77.7118C161.828 77.9114 162.526 77.9669 163.213 77.8747C164.051 77.7555 164.854 77.4606 165.568 77.0094C166.854 76.1464 167.948 75.0309 168.784 73.7317C169.117 73.1705 169.509 72.6452 169.951 72.1641C169.759 72.789 169.468 73.3799 169.091 73.9149C168.304 75.3278 167.187 76.5322 165.834 77.4268C165.058 77.9196 164.179 78.2294 163.264 78.3328C162.51 78.4085 161.749 78.3073 161.042 78.0376C160.377 77.8432 159.812 77.4022 159.465 76.8059Z" fill="#455A64"/>
<path d="M188.017 99.6562C187.727 100.556 187.565 101.491 187.535 102.435C187.503 102.885 187.569 103.337 187.73 103.759C187.891 104.181 188.143 104.563 188.467 104.878C188.813 105.272 189.239 105.587 189.718 105.801C190.197 106.015 190.717 106.124 191.242 106.12C192.186 106.127 193.102 105.799 193.826 105.197C194.55 104.595 195.035 103.757 195.195 102.832L195.533 100.796C193.547 100.247 188.17 99.7886 188.017 99.6562Z" fill="#FF9A6C"/>
<path d="M193.292 105.58C193.292 105.58 193.036 105.58 192.606 105.641C192.005 105.73 191.394 105.73 190.794 105.641C189.931 105.502 189.149 105.057 188.592 104.389C187.945 103.565 187.634 102.529 187.721 101.487C187.758 100.902 187.914 100.33 188.182 99.8079L187.916 99.93C189.841 100.215 191.531 100.439 192.739 100.571C193.377 100.693 194.027 100.737 194.675 100.704C194.063 100.493 193.432 100.343 192.79 100.256C191.592 100.032 189.923 99.7468 187.998 99.4414H187.814L187.732 99.6043C187.311 100.409 187.134 101.318 187.221 102.221C187.308 103.124 187.656 103.983 188.223 104.694C188.866 105.429 189.768 105.891 190.742 105.987C191.383 106.051 192.029 105.992 192.647 105.814C192.875 105.776 193.094 105.697 193.292 105.58Z" fill="#263238"/>
<path d="M149.889 227.778L122.24 204.254L119.168 234.303L173.545 274.095L192.356 271.682L207.369 264.994C207.369 264.994 238.725 222.577 238.725 219.686L226.252 224.674L149.889 227.778Z" fill="#263238"/>
<path d="M149.89 227.778C150.463 229.458 192.807 269.788 192.807 269.788L167.657 297.395C167.657 297.395 118.739 255.099 110.403 248.615C102.067 242.131 91.0895 229.223 90.219 220.734C89.3486 212.244 100.818 201.047 100.818 201.047C100.818 201.047 112.082 201.047 118.431 203.083C124.78 205.119 149.89 227.778 149.89 227.778Z" fill="#263238"/>
<path d="M138.286 290.969C138.932 287.529 139.628 283.986 141.522 281.034C143.417 278.082 146.827 275.812 150.319 276.301C152.643 276.627 154.661 278.092 156.944 278.622C159.228 279.151 161.512 278.754 163.816 278.723C166.12 278.693 170.042 278.724 171.486 280.464L188.608 292.089C183.334 295.784 174.333 296.161 167.943 297.067C161.553 297.973 155.029 298.39 148.947 300.538C146.305 301.474 143.335 302.716 140.826 301.454C139.983 300.963 139.271 300.279 138.747 299.46C138.224 298.64 137.904 297.708 137.815 296.741C137.66 294.804 137.819 292.856 138.286 290.969Z" fill="#455A64"/>
<path d="M140.01 300.568C139.943 300.232 139.923 299.89 139.948 299.55C139.948 298.898 139.948 297.941 139.948 296.771C140.014 293.696 140.451 290.641 141.249 287.67C142.073 284.678 143.615 281.928 145.744 279.659C146.4 278.985 147.128 278.384 147.915 277.867C148.191 277.664 148.495 277.5 148.816 277.379C147.834 278.167 146.9 279.013 146.021 279.914C144.027 282.202 142.571 284.904 141.761 287.823C140.981 290.757 140.501 293.761 140.327 296.791C140.303 298.055 140.197 299.317 140.01 300.568Z" fill="#263238"/>
<path d="M154.684 297.709C154.52 297.709 155.401 294.746 155.892 291.051C156.384 287.356 156.353 284.312 156.507 284.312C156.685 284.976 156.754 285.663 156.712 286.348C156.741 287.958 156.646 289.568 156.425 291.163C156.206 292.761 155.863 294.34 155.401 295.886C155.257 296.526 155.015 297.141 154.684 297.709Z" fill="#263238"/>
<path d="M160.735 295.062C160.581 294.991 161.564 292.945 162.015 290.217C162.466 287.489 162.24 285.239 162.404 285.219C163.162 288.591 162.563 292.123 160.735 295.062Z" fill="#263238"/>
<path d="M166.276 290.46C166.276 290.46 166.655 290.226 167.3 289.778C168.203 289.153 168.983 288.37 169.605 287.468C169.812 287.171 170.001 286.862 170.168 286.541C170.347 286.221 170.485 285.879 170.577 285.523C170.602 285.448 170.61 285.368 170.601 285.289C170.593 285.21 170.567 285.134 170.526 285.066C170.486 284.997 170.431 284.938 170.366 284.893C170.3 284.847 170.226 284.816 170.147 284.801C169.743 284.747 169.332 284.818 168.97 285.004C168.124 285.387 167.434 286.044 167.014 286.867C166.568 287.744 166.435 288.745 166.635 289.707C166.853 290.65 167.318 291.519 167.984 292.226C168.649 292.932 169.491 293.45 170.424 293.728C170.822 293.874 171.239 293.96 171.663 293.982C172.021 293.982 172.052 293.718 171.806 293.423C171.247 292.929 170.648 292.483 170.014 292.089C168.694 291.308 167.326 290.611 165.918 290.002C166.327 290.054 166.727 290.164 167.106 290.328C168.176 290.706 169.206 291.19 170.178 291.774C170.865 292.167 171.513 292.624 172.113 293.138C172.214 293.238 172.291 293.359 172.337 293.494C172.383 293.628 172.398 293.771 172.38 293.911C172.333 294.06 172.241 294.191 172.116 294.286C171.992 294.381 171.84 294.435 171.683 294.441C171.195 294.445 170.709 294.362 170.25 294.196C169.27 293.895 168.375 293.368 167.638 292.659C166.848 291.883 166.306 290.891 166.082 289.809C165.854 288.719 166.006 287.585 166.512 286.592C167.006 285.684 167.792 284.968 168.744 284.556C169.204 284.33 169.725 284.259 170.229 284.353C170.366 284.384 170.494 284.442 170.607 284.525C170.719 284.607 170.814 284.711 170.885 284.831C171.007 285.066 171.043 285.336 170.987 285.595C170.881 286.003 170.715 286.394 170.495 286.755C170.316 287.089 170.11 287.409 169.881 287.712C169.211 288.629 168.361 289.401 167.382 289.982C167.047 290.208 166.672 290.371 166.276 290.46Z" fill="#263238"/>
<path d="M178.778 264.516C178.778 264.516 228.731 226.903 236.872 220.286C245.013 213.67 265.546 200.345 273.625 217.477C281.705 234.609 270.942 240.207 266.314 248.473C261.685 256.739 233.391 280.172 222.188 287.511C213.145 293.435 196.709 293.435 196.709 293.435L185.271 301.304L164.852 275.662L178.778 264.516Z" fill="#263238"/>
<path d="M222.187 279.873C225.495 277.471 227.962 275.802 230.482 276.82C233.001 277.838 234.711 280.23 235.94 282.652C237.449 285.903 238.659 289.283 239.555 292.75C240.456 295.855 241.214 299.601 239.022 301.983C238.255 302.718 237.317 303.253 236.291 303.54C235.266 303.828 234.185 303.859 233.144 303.632C231.066 303.166 229.082 302.353 227.276 301.23C221.695 298.176 209.499 293.402 203.918 290.348L222.187 279.873Z" fill="#455A64"/>
<path d="M229.446 278.684C229.446 278.684 229.712 278.938 230.111 279.457C230.511 279.976 231.054 280.76 231.678 281.758C233.287 284.367 234.599 287.146 235.59 290.044C236.137 291.641 236.588 293.269 236.942 294.92C237.257 296.256 237.446 297.62 237.505 298.991C237.545 299.94 237.363 300.884 236.972 301.75C236.848 302.076 236.643 302.366 236.379 302.595C236.963 301.491 237.222 300.245 237.126 299.002C237.016 297.652 236.793 296.314 236.46 295.001C236.112 293.505 235.662 291.876 235.088 290.196C234.096 287.331 232.845 284.561 231.351 281.921C230.193 279.925 229.374 278.724 229.446 278.684Z" fill="#263238"/>
<path d="M221.254 294.318C220.538 292.785 220.168 291.116 220.168 289.426C220.168 287.737 220.538 286.068 221.254 284.535C220.977 286.155 220.799 287.79 220.721 289.431C220.798 291.069 220.976 292.701 221.254 294.318Z" fill="#263238"/>
<path d="M214.764 291.948C214.082 291.358 213.662 290.524 213.597 289.627C213.357 288.755 213.467 287.824 213.904 287.031C214.058 287.031 213.904 288.192 214.119 289.535C214.334 290.879 214.877 291.866 214.764 291.948Z" fill="#263238"/>
<path d="M232.97 223.367L232.642 223.642L231.618 224.416L227.809 227.398L213.575 238.433L165.005 275.862V275.496L179.341 293.452L185.485 301.138L185.117 301.087L195.122 293.808C200.652 291.545 206.041 288.954 211.26 286.052C216.309 283.283 221.009 280.412 225.351 277.511C229.432 274.775 233.366 271.83 237.138 268.686C240.712 265.795 244.02 263.118 246.999 260.644C252.959 255.717 257.598 251.615 260.722 248.724C262.288 247.279 263.476 246.149 264.275 245.375L265.197 244.51L265.514 244.225C265.514 244.225 265.422 244.337 265.227 244.54L264.347 245.446C263.558 246.24 262.391 247.391 260.845 248.856C257.772 251.798 253.144 255.982 247.215 260.909C244.245 263.392 240.958 266.09 237.394 269.001C233.625 272.164 229.69 275.127 225.607 277.878C221.265 280.799 216.555 283.7 211.506 286.479C206.27 289.402 200.864 292.013 195.316 294.297H195.367L185.373 301.575L185.168 301.718L185.004 301.524C182.956 298.99 180.908 296.435 178.86 293.839L164.523 275.872L164.359 275.669L164.564 275.516L213.288 238.229L227.625 227.317L231.485 224.406L232.509 223.662C232.655 223.552 232.809 223.454 232.97 223.367Z" fill="#455A64"/>
<path d="M145.649 226.943C145.752 226.841 153.739 233.671 163.488 242.212C173.237 250.752 181.081 257.766 180.979 257.878C180.876 257.99 172.899 251.149 163.14 242.609C153.381 234.068 145.557 227.055 145.649 226.943Z" fill="#455A64"/>
<path d="M269.118 160.91C268.831 160.737 264.09 155.82 266.046 149.417C268.002 143.014 271.064 139.319 272.753 136.805C274.443 134.291 276.696 127.216 278.222 127.644C279.748 128.071 281.099 129.293 281.028 131.837C280.956 134.382 276.931 139.228 278.406 141.722C278.712 142.227 279.207 142.591 279.782 142.736C280.357 142.881 280.967 142.794 281.478 142.495C281.478 142.495 290.469 137.66 293.89 135.095C297.31 132.53 301.058 131.166 301.642 132.499C302.225 133.833 302.02 134.922 299.184 137.039C296.347 139.156 291.35 142.017 291.545 142.841C291.739 143.666 293.029 143.462 294.699 142.251C296.368 141.04 304.622 135.889 305.789 136.449C306.078 136.586 306.331 136.786 306.531 137.035C306.732 137.283 306.873 137.573 306.945 137.883C307.016 138.193 307.017 138.515 306.946 138.826C306.876 139.136 306.736 139.426 306.536 139.676L305.052 141.549C305.052 141.549 307.192 142.363 306.823 143.798C306.455 145.234 304.12 146.262 304.12 146.262L292.978 152.776C292.978 152.776 292.784 153.794 293.388 154.049C293.992 154.303 302.154 148.348 302.829 149.214C303.505 150.079 304.529 150.038 302.379 152.267C300.228 154.497 293.777 158.487 291.053 159.322C288.329 160.156 278.365 165.786 278.365 165.786L269.118 160.91Z" fill="#FFBF9D"/>
<path d="M289.283 149.986C289.386 150.179 293.124 148.632 297.476 146.301C301.828 143.97 305.207 141.731 305.095 141.547C304.982 141.364 301.439 143.268 297.066 145.619C292.693 147.971 289.181 149.782 289.283 149.986Z" fill="#FF9A6C"/>
<path d="M280.701 153.304C280.752 153.365 281.53 152.826 282.134 151.492C282.512 150.616 282.685 149.667 282.641 148.715C282.596 147.763 282.336 146.833 281.878 145.996C281.333 145.127 280.706 144.312 280.004 143.563C279.478 142.98 279.034 142.33 278.683 141.629C278.418 140.978 278.249 140.292 278.182 139.593C278.1 139.532 277.629 140.458 278.13 141.873C278.432 142.668 278.865 143.407 279.41 144.061C280.043 144.806 280.624 145.591 281.151 146.413C281.548 147.165 281.791 147.987 281.865 148.833C281.939 149.679 281.842 150.531 281.581 151.34C281.172 152.571 280.588 153.223 280.701 153.304Z" fill="#FF9A6C"/>
<path d="M253.441 177.734L266.293 155.34L278.479 166.69C278.479 166.69 269.467 192.942 264.603 200.526C259.739 208.11 254.25 210.848 254.25 210.848C254.25 210.848 244.655 206.288 240.415 200.597C236.176 194.907 225.055 175.576 225.055 175.576L240.825 159.564L253.441 177.734Z" fill="#FFBF9D"/>
<path d="M252.797 188.504C252.406 186.574 252.327 184.595 252.562 182.64C252.631 180.673 253.011 178.729 253.688 176.879C253.842 176.879 253.33 179.475 253.094 182.681C252.858 185.888 252.951 188.494 252.797 188.504Z" fill="#FF9A6C"/>
<path d="M247.255 165.369C247.255 165.369 237.158 144.593 231.895 135.787C226.631 126.982 207.246 125.496 207.246 125.496L218.152 174.581L223.702 180.312L247.255 165.369Z" fill="#F3631B"/>
<path d="M226.417 155.34C226.403 156.847 226.228 158.348 225.895 159.819C225.403 162.669 224.768 166.395 224.061 170.517C223.355 174.64 222.74 178.355 222.249 181.216C222.044 182.498 221.87 183.588 221.727 184.463C221.682 184.864 221.596 185.26 221.471 185.644C221.436 185.24 221.453 184.832 221.522 184.432C221.583 183.659 221.706 182.539 221.88 181.165C222.228 178.406 222.812 174.609 223.539 170.426C224.266 166.242 224.983 162.476 225.526 159.748L226.171 156.521C226.232 156.123 226.314 155.729 226.417 155.34Z" fill="#263238"/>
<path d="M228.587 147.33C228.433 147.33 229.048 144.327 229.263 140.601C229.478 136.876 229.263 133.852 229.396 133.832C229.614 134.468 229.728 135.135 229.734 135.807C229.872 137.412 229.893 139.024 229.795 140.632C229.699 142.24 229.487 143.839 229.16 145.416C229.07 146.08 228.877 146.725 228.587 147.33Z" fill="#263238"/>
<path d="M218.132 127.448C218.132 127.448 225.127 161.294 222.106 174.446L220.303 206.317C220.303 206.317 225.843 222.442 225.045 224.722C224.246 227.002 203.233 246.383 185.25 245.243C167.268 244.103 154.529 232.305 152.973 231.165C151.416 230.025 144.596 225.75 144.596 225.75L145.733 211.56L144.402 164.857L141.176 129.545L162.179 124.455L166.531 118.164L190.084 137.82L197.846 118.164L200.427 123.783L218.132 127.448Z" fill="#F3631B"/>
<path d="M164.145 210.991C164.9 211.333 165.681 211.619 166.479 211.846C168.706 212.311 171.02 212.131 173.146 211.327C176.316 210.16 179.276 208.493 181.912 206.39C191.333 199.487 199.4 190.923 205.71 181.124C207.277 178.712 208.434 176.686 209.233 175.281L210.134 173.663C210.229 173.467 210.346 173.283 210.482 173.113C210.416 173.321 210.33 173.522 210.226 173.714L209.417 175.383C208.68 176.819 207.564 178.875 206.028 181.328C199.808 191.257 191.716 199.899 182.198 206.776C179.514 208.888 176.497 210.542 173.269 211.673C171.076 212.468 168.694 212.595 166.428 212.039C166.077 211.95 165.734 211.831 165.404 211.683C165.158 211.587 164.921 211.468 164.697 211.327C164.502 211.234 164.317 211.121 164.145 210.991Z" fill="#263238"/>
<path d="M189.379 140.621C189.379 140.621 189.164 140.438 188.826 140.041L187.402 138.3H187.638C186.839 139.817 185.815 141.873 184.402 144.357C184.286 144.528 184.134 144.672 183.958 144.781C183.781 144.89 183.584 144.96 183.378 144.988C182.953 144.996 182.536 144.868 182.19 144.622C181.564 144.143 180.972 143.623 180.418 143.064L176.814 139.654C172.933 135.979 169.451 132.63 166.942 130.197L163.993 127.276C163.612 126.941 163.268 126.565 162.969 126.156C163.387 126.465 163.781 126.805 164.146 127.174L167.219 129.963C169.789 132.335 173.363 135.643 177.203 139.318L180.797 142.738C181.325 143.278 181.886 143.784 182.477 144.255C182.582 144.367 182.712 144.453 182.856 144.508C183 144.563 183.154 144.585 183.308 144.572C183.461 144.559 183.61 144.512 183.743 144.435C183.875 144.357 183.989 144.25 184.074 144.123C185.457 141.771 186.593 139.654 187.443 138.209L187.556 138.015L187.679 138.188L189 140.01C189.145 140.202 189.272 140.406 189.379 140.621Z" fill="#263238"/>
<path d="M200.857 125.453C200.906 125.828 200.906 126.208 200.857 126.583C200.795 127.296 200.703 128.344 200.478 129.637C199.918 132.972 198.959 136.229 197.621 139.338C197.088 140.58 196.505 141.761 195.921 142.84L195.644 143.369L195.46 142.809C194.497 139.969 193.689 137.516 193.136 135.785H193.432C192.975 136.683 192.448 137.544 191.855 138.361C192.221 137.422 192.652 136.511 193.146 135.633L193.32 135.307L193.443 135.653C194.078 137.363 194.948 139.796 195.941 142.626H195.47C196.034 141.547 196.597 140.376 197.129 139.155C198.445 136.073 199.444 132.867 200.109 129.586C200.611 127.031 200.775 125.443 200.857 125.453Z" fill="#263238"/>
<path d="M138.534 168.676L122.539 188.821C122.539 188.821 125.724 195.458 126.512 197.576C127.301 199.693 140.623 220.642 140.623 220.642L127.557 227.279C127.557 227.279 106.769 208.457 100.112 200.762C98.3331 198.706 97.0449 196.276 96.3444 193.654C95.6439 191.033 95.5492 188.288 96.0674 185.625C97.0914 180.586 120.255 152.898 120.255 152.898L135.135 154.619L138.534 168.676Z" fill="#FFBF9D"/>
<path d="M140.624 220.641C140.624 220.641 148.714 240.837 149.482 243.178C150.25 245.52 150.762 259.934 150.117 262.275C149.472 264.616 145.898 271.497 144.362 272.016C142.826 272.536 141.658 273.319 142.57 269.411C143.081 267.142 143.808 264.926 144.741 262.794L144.997 254.997C144.997 254.997 143.153 261.104 141.802 261.888C140.45 262.672 136.426 261.237 136.426 261.237V259.934C136.426 259.934 132.841 260.453 132.329 259.16C131.817 257.867 132.79 255.434 132.79 255.434C132.79 255.434 130.793 259.414 128.745 258.152C126.697 256.89 128.356 256.116 128.745 253.47C129.228 250.418 129.228 247.309 128.745 244.257C128.151 240.908 127.209 238.537 126.82 236.338C126.431 234.139 127.557 227.309 127.557 227.309L134.889 219.715L140.624 220.641Z" fill="#FFBF9D"/>
<path d="M113.965 157.426C113.965 157.426 130.81 136.864 135.019 132.507C139.228 128.15 145.946 129.647 146.55 129.647C147.154 129.647 154.22 140.844 153.012 151.777C152.367 158.23 149.335 164.216 144.502 168.572L134.261 181.276L113.965 157.426Z" fill="#F3631B"/>
<path d="M138.912 251.648C138.742 254.948 137.851 258.172 136.301 261.095C136.65 259.498 137.088 257.921 137.612 256.372C137.957 254.775 138.391 253.198 138.912 251.648Z" fill="#FF9A6C"/>
<path d="M133.617 249.184C134.032 252.074 133.451 255.02 131.968 257.541C131.825 257.48 132.531 255.698 132.992 253.398C133.453 251.097 133.463 249.184 133.617 249.184Z" fill="#FF9A6C"/>
<path d="M146.581 164.501C146.77 164.018 146.992 163.549 147.247 163.097C147.708 162.201 148.373 160.908 149.121 159.279C151.209 155.11 152.405 150.556 152.633 145.904C152.693 143.357 152.24 140.823 151.302 138.452C150.564 136.587 149.453 134.891 148.036 133.465C146.619 132.039 144.926 130.913 143.059 130.156C143.059 130.156 143.202 130.156 143.458 130.248C143.836 130.353 144.205 130.486 144.564 130.645C145.882 131.236 147.091 132.045 148.138 133.037C149.692 134.515 150.923 136.296 151.753 138.269C152.744 140.695 153.225 143.297 153.166 145.914C152.949 150.639 151.687 155.258 149.469 159.442C148.66 161.051 147.943 162.323 147.421 163.188C147.184 163.652 146.903 164.091 146.581 164.501Z" fill="#263238"/>
<path d="M116.629 178.559C117.269 179.032 117.838 179.594 118.319 180.228C120.799 183.165 122.575 186.626 123.51 190.346C123.755 191.103 123.876 191.893 123.869 192.688C123.105 190.137 122.15 187.646 121.012 185.236C119.714 182.909 118.249 180.677 116.629 178.559Z" fill="#FF9A6C"/>
<path d="M502.83 27.6484H468.739C463.559 27.6484 459.359 32.5134 459.359 38.5147V78.0072C459.359 84.0084 463.559 88.8734 468.739 88.8734H502.83C508.01 88.8734 512.209 84.0084 512.209 78.0072V38.5147C512.209 32.5134 508.01 27.6484 502.83 27.6484Z" fill="#146CFD"/>
<g opacity="0.3">
<path d="M502.664 27.8047H468.664C463.497 27.8047 459.309 32.6573 459.309 38.6432V78.0347C459.309 84.0207 463.497 88.8732 468.664 88.8732H502.664C507.83 88.8732 512.019 84.0207 512.019 78.0347V38.6432C512.019 32.6573 507.83 27.8047 502.664 27.8047Z" fill="black"/>
</g>
<path d="M493.294 27.6484H459.204C454.024 27.6484 449.824 32.5134 449.824 38.5147V78.0072C449.824 84.0084 454.024 88.8734 459.204 88.8734H493.294C498.475 88.8734 502.674 84.0084 502.674 78.0072V38.5147C502.674 32.5134 498.475 27.6484 493.294 27.6484Z" fill="#146CFD"/>
<path d="M458 59.1076L463.311 53.828L473.552 62.8673L490.652 45.8086L495.581 51.0882L472.787 73.0465L458 59.1076Z" fill="white"/>
<path d="M124.575 26.8594H90.5924C85.4284 26.8594 81.2422 32.061 81.2422 38.4775V80.7023C81.2422 87.1188 85.4284 92.3204 90.5924 92.3204H124.575C129.739 92.3204 133.925 87.1188 133.925 80.7023V38.4775C133.925 32.061 129.739 26.8594 124.575 26.8594Z" fill="#F3631B"/>
<g opacity="0.3">
<path d="M124.57 26.8594H90.5699C85.4032 26.8594 81.2148 32.061 81.2148 38.4775V80.7023C81.2148 87.1188 85.4032 92.3204 90.5699 92.3204H124.57C129.737 92.3204 133.925 87.1188 133.925 80.7023V38.4775C133.925 32.061 129.737 26.8594 124.57 26.8594Z" fill="black"/>
</g>
<path d="M114.064 26.8594H76.3436C70.6116 26.8594 65.9648 32.061 65.9648 38.4775V80.7023C65.9648 87.1188 70.6116 92.3204 76.3436 92.3204H114.064C119.796 92.3204 124.443 87.1188 124.443 80.7023V38.4775C124.443 32.061 119.796 26.8594 114.064 26.8594Z" fill="#F3631B"/>
<path d="M81.2422 47.5699L88.8074 47.905C88.8393 47.049 89.0439 46.2081 89.4092 45.4323C89.7745 44.6566 90.2931 43.9617 90.9339 43.3891C91.5748 42.8166 92.325 42.3779 93.1399 42.0993C93.9547 41.8207 94.8176 41.7079 95.6773 41.7674C96.9547 41.7772 98.1964 42.1875 99.2256 42.9397C100.255 43.6919 101.019 44.7478 101.409 45.9569C101.768 46.9604 101.882 48.034 101.743 49.0899C101.603 50.1457 101.215 51.1539 100.608 52.0317C99.2387 54.1265 96.3937 55.8441 91.2941 54.7339L90.5565 71.6805L98.0375 71.9947L98.4589 62.0865C101.567 61.3254 104.337 59.5704 106.344 57.0913C108.35 54.6123 109.482 51.5466 109.564 48.3659C110.028 37.3894 100.25 34.4148 96.0144 34.2263C92.7692 34.0168 81.6847 34.331 81.2422 47.5699Z" fill="white"/>
<path d="M97.9542 75.4253L90.375 75.0977L90.0674 82.1294L97.6466 82.457L97.9542 75.4253Z" fill="white"/>
</svg>
