<svg width="123" height="124" viewBox="0 0 123 124" fill="none" xmlns="http://www.w3.org/2000/svg">
<path d="M55.1307 113.105L55.1303 113.104L20.9649 93.3803C16.7363 90.9371 14.1277 86.4189 14.126 81.5352C14.126 81.5351 14.126 81.5351 14.126 81.535L14.1175 42.0913C14.1251 37.2014 16.7343 32.6896 20.9607 30.2495L55.1275 10.5233C59.3647 8.07693 64.576 8.07475 68.8033 10.5172L68.8037 10.5174L102.969 30.2415C107.198 32.6847 109.806 37.2028 109.808 42.0864C109.808 42.0865 109.808 42.0867 109.808 42.0868L109.807 81.535C109.8 86.4254 107.19 90.9376 102.964 93.3779L68.8065 113.099C64.5692 115.545 59.3579 115.547 55.1307 113.105Z" fill="white" stroke="#0f766e" stroke-width="2.59141"/>
<path d="M71.098 76.1546L83.0701 64.1825L88.6613 69.7738L76.6893 81.7458C76.643 81.7921 76.6053 81.8166 76.562 81.8382C76.5127 81.8629 76.4571 81.8843 76.346 81.922L69.6125 83.2313L70.9218 76.4978C70.9596 76.3868 70.981 76.3312 71.0057 76.2818C71.0273 76.2385 71.0518 76.2009 71.098 76.1546ZM95.867 59.1421C96.8045 60.0796 96.8045 61.6306 95.867 62.5681L92.8652 65.5699L87.2739 59.9787L90.2758 56.9769C91.2132 56.0394 92.7643 56.0394 93.7018 56.9769L95.867 59.1421Z" stroke="#0f766e" stroke-width="2.59141"/>
<path d="M70.7238 75.4123L71.1336 76.6415L73.592 75.8221L73.1822 74.5929L70.7238 75.4123ZM62.5441 86.1928C63.2597 86.1928 63.8398 85.6127 63.8398 84.8971C63.8398 84.1815 63.2597 83.6014 62.5441 83.6014V86.1928ZM54.3405 61.035C49.1368 61.035 45.0051 57.0348 45.0051 52.1759H42.4137C42.4137 58.5824 47.8249 63.6264 54.3405 63.6264V61.035ZM45.0051 52.1759C45.0051 47.3898 49.1435 43.3167 54.3405 43.3167V40.7253C47.8182 40.7253 42.4137 45.855 42.4137 52.1759H45.0051ZM54.3405 43.3167C59.551 43.3167 63.7597 47.4027 63.7597 52.1759H66.3511C66.3511 45.8422 60.8494 40.7253 54.3405 40.7253V43.3167ZM63.7597 52.1759C63.7597 57.022 59.5578 61.035 54.3405 61.035V63.6264C60.8426 63.6264 66.3511 58.5953 66.3511 52.1759H63.7597ZM58.6097 69.6911C60.4337 69.6911 63.1948 70.0822 65.6657 71.0502C68.1771 72.034 70.082 73.487 70.7238 75.4123L73.1822 74.5929C72.1749 71.571 69.3754 69.7203 66.611 68.6374C63.8061 67.5386 60.7201 67.0997 58.6097 67.0997V69.6911ZM62.5441 83.6014H38.5194V86.1928H62.5441V83.6014ZM38.5194 83.6014C37.5781 83.6014 36.969 82.9268 36.969 82.1997H34.3776C34.3776 84.4873 36.2797 86.1928 38.5194 86.1928V83.6014ZM36.969 82.1997C36.969 75.3543 42.7781 69.6911 50.155 69.6911V67.0997C41.4598 67.0997 34.3776 73.8128 34.3776 82.1997H36.969ZM50.155 69.6911H58.6097V67.0997H50.155V69.6911Z" fill="#0f766e"/>
</svg>
