<svg width="604" height="317" viewBox="0 0 604 317" fill="none" xmlns="http://www.w3.org/2000/svg">
<path d="M362.569 287.375C368.457 260.128 389.41 242.29 408.144 248.559C413.048 240.314 419.233 233.986 426.158 230.127C433.084 226.268 440.538 224.997 447.87 226.423C455.201 227.85 462.186 231.932 468.214 238.312C474.242 244.692 479.129 253.175 482.447 263.02C501.44 249.943 525.245 254.108 541.684 273.371L553.926 284.871L362.569 287.375Z" fill="#E6E1FD"/>
<path d="M186.764 287.375C192.652 260.128 213.606 242.29 232.339 248.559C237.243 240.314 243.428 233.986 250.354 230.127C257.279 226.268 264.734 224.997 272.065 226.423C279.397 227.85 286.382 231.932 292.409 238.312C298.437 244.692 303.324 253.175 306.642 263.02C325.636 249.943 349.44 254.108 365.88 273.371L378.121 284.871L186.764 287.375Z" fill="#E6E1FD"/>
<path d="M426.52 202.613C435.614 190.851 438.436 168.267 432.012 154.874C428.45 159.988 423.798 164.259 418.387 167.383C421.392 160.189 423.597 152.69 424.963 145.02L413.242 136.036C411.671 139.353 410.461 146.209 407.43 149.622C410.572 144.591 409.474 133.106 405.734 129.706C401.219 125.834 395.931 122.956 390.217 121.261C383.093 118.835 375.75 117.099 368.29 116.078C363.34 115.456 357.793 115.443 354.025 118.677C348.672 123.279 349.853 132.304 354.428 137.695C359.002 143.085 365.815 145.877 372.128 149.042C395.454 160.791 414.48 179.525 426.52 202.599" fill="#CEBFFF"/>
<path d="M477.868 148.017C468.761 136.255 465.938 113.671 472.376 100.279C475.929 105.395 480.578 109.667 485.988 112.787C482.981 105.595 480.78 98.0952 479.425 90.4241L491.132 81.4403C492.704 84.7574 493.913 91.6127 496.944 95.0404C493.802 89.9956 494.9 78.4549 498.641 75.124C503.156 71.2501 508.444 68.3678 514.158 66.6655C521.282 64.2434 528.625 62.5123 536.084 61.4964C541.034 60.8744 546.582 60.8606 550.35 64.0948C555.703 68.6972 554.521 77.7362 549.947 83.1127C545.372 88.4891 538.573 91.2948 532.247 94.4599C508.922 106.206 489.9 124.941 477.868 148.017Z" fill="#CEBFFF"/>
<path d="M453.077 124.038C448.015 117.459 440.479 113.313 434.237 107.785C427.994 102.256 422.724 94.1707 424.74 86.1406L435.975 89.582C423.795 83.1967 417.802 67.1503 422.835 54.4071L426.659 55.0982C421.959 52.5413 419.081 47.4136 418.15 42.1616C417.457 36.8631 417.792 31.4817 419.137 26.3087C421.027 17.5883 423.867 9.09824 427.604 0.988281C430.913 3.24113 435.14 3.48992 439.047 4.36065C442.954 5.23139 447.153 7.29075 448.21 11.133C449.893 17.2005 442.648 22.7981 443.566 29.0315C446.861 24.6532 451.341 21.2976 456.483 19.3566C456.678 24.0282 462.323 27.4697 461.697 32.1136C461.353 33.683 460.643 35.1504 459.625 36.3982L444.122 58.8023C453.646 55.1515 462.853 50.7324 471.652 45.5892C470.039 72.9413 465.535 99.5609 453.077 123.997" fill="#CEBFFF"/>
<path d="M366.162 134.625C366.162 134.625 366.287 134.722 366.538 134.874L367.692 135.565C368.707 136.173 370.25 136.947 372.141 138.163C377.524 141.482 382.663 145.177 387.519 149.22C389.09 150.45 390.619 151.888 392.274 153.367C393.929 154.845 395.541 156.38 397.182 158.052C400.723 161.571 404.056 165.29 407.165 169.192C408.82 171.251 410.335 173.476 411.934 175.743C412.713 176.876 413.561 177.982 414.312 179.171L416.537 182.806C418.108 185.21 419.317 187.864 420.708 190.449C421.431 191.734 421.973 193.13 422.627 194.485C423.28 195.839 423.906 197.249 424.476 198.631C428.79 209.214 431.883 220.249 433.694 231.525C435.17 240.736 435.904 250.048 435.891 259.375C435.974 263.355 435.724 266.949 435.641 270.114C435.557 273.279 435.21 275.974 435.043 278.213C434.876 280.452 434.626 282.097 434.501 283.313C434.501 283.866 434.403 284.308 434.375 284.695C434.355 284.847 434.355 285 434.375 285.151C434.412 285.001 434.44 284.849 434.459 284.695C434.459 284.364 434.57 283.921 434.654 283.382C434.82 282.166 435.043 280.466 435.335 278.282C435.627 276.099 435.794 273.348 436.058 270.183C436.322 267.018 436.461 263.411 436.419 259.416C436.523 250.006 435.844 240.603 434.389 231.304C432.615 219.968 429.527 208.874 425.185 198.244C424.615 196.862 423.934 195.48 423.322 194.098C422.71 192.715 422.126 191.333 421.389 190.048C419.999 187.436 418.706 184.782 417.135 182.363L414.882 178.715C414.131 177.526 413.269 176.406 412.491 175.273C410.892 173.02 409.348 170.767 407.68 168.708C404.545 164.795 401.179 161.07 397.599 157.554C395.931 155.868 394.234 154.362 392.636 152.869C391.037 151.376 389.424 150.022 387.839 148.805C382.935 144.8 377.734 141.168 372.28 137.942C370.347 136.781 368.79 136.021 367.747 135.454L366.565 134.832L366.162 134.625Z" fill="#441170"/>
<path d="M462.2 281.49C462.218 281.306 462.218 281.121 462.2 280.937C462.2 280.536 462.2 279.997 462.2 279.32C462.2 277.855 462.325 275.754 462.408 273.073C462.492 270.391 462.589 267.06 462.631 263.204C462.672 259.348 462.77 254.912 462.728 250.116C462.728 240.441 462.589 228.886 462.186 216.074C461.783 203.262 461.004 189.192 459.906 174.431C458.807 159.67 457.347 145.655 455.859 132.967C454.372 120.28 452.759 108.808 451.257 99.2299C450.548 94.4339 449.867 90.1079 449.172 86.3071C448.476 82.5063 447.962 79.2445 447.461 76.6323C446.961 74.0201 446.586 71.9331 446.321 70.4957L446.001 68.9062C445.977 68.723 445.935 68.5424 445.876 68.3672C445.855 68.5508 445.855 68.7364 445.876 68.92C445.876 69.307 446.015 69.8461 446.127 70.5233L447.128 76.6875C447.587 79.355 448.129 82.6168 448.713 86.4315C449.297 90.2461 450.02 94.5583 450.687 99.3543C452.078 108.946 453.649 120.376 455.136 133.106C456.624 145.835 457.917 159.85 459.127 174.569C460.337 189.289 460.962 203.372 461.463 216.185C461.963 228.997 462.13 240.51 462.172 250.212C462.172 255.05 462.172 259.431 462.172 263.287C462.172 267.143 462.172 270.447 462.088 273.156C462.005 275.865 462.089 277.938 462.019 279.403V281.02C462.062 281.182 462.123 281.34 462.2 281.49Z" fill="#441170"/>
<path d="M502.742 105.641C502.483 105.917 502.246 106.213 502.033 106.525C501.56 107.189 500.921 108.059 500.114 109.151C499.308 110.243 498.279 111.694 497.181 113.298C496.082 114.901 494.775 116.836 493.468 118.992C492.161 121.148 490.687 123.484 489.297 126.068C487.907 128.653 486.308 131.417 484.737 134.361C481.692 140.29 478.577 146.924 475.685 154.042C472.793 161.16 470.513 168.14 468.608 174.525C467.718 177.732 466.842 180.773 466.175 183.661C465.507 186.55 464.868 189.19 464.353 191.691C463.839 194.193 463.463 196.404 463.102 198.367C462.74 200.33 462.49 202.043 462.309 203.439C462.129 204.835 461.99 205.844 461.892 206.646C461.82 207.014 461.787 207.39 461.795 207.765C461.896 207.402 461.974 207.033 462.031 206.66C462.17 205.872 462.351 204.808 462.587 203.481C462.824 202.154 463.102 200.399 463.505 198.436C463.908 196.473 464.284 194.29 464.895 191.802C465.507 189.314 466.036 186.66 466.8 183.799C467.565 180.938 468.385 177.912 469.289 174.719C471.222 168.361 473.571 161.437 476.408 154.319C479.244 147.201 482.373 140.581 485.376 134.665C486.933 131.721 488.365 128.915 489.853 126.372C491.341 123.829 492.704 121.424 494.024 119.282C495.345 117.14 496.569 115.219 497.639 113.533C498.71 111.846 499.656 110.409 500.42 109.248L502.228 106.553C502.42 106.261 502.592 105.956 502.742 105.641Z" fill="#441170"/>
<g opacity="0.2">
<path d="M426.52 202.613C435.614 190.851 438.436 168.267 432.012 154.874C428.45 159.988 423.798 164.259 418.387 167.383C421.392 160.189 423.597 152.69 424.963 145.02L413.242 136.036C411.671 139.353 410.461 146.209 407.43 149.622C410.572 144.591 409.474 133.106 405.734 129.706C401.219 125.834 395.931 122.956 390.217 121.261C383.093 118.835 375.75 117.099 368.29 116.078C363.34 115.456 357.793 115.443 354.025 118.677C348.672 123.279 349.853 132.304 354.428 137.695C359.002 143.085 365.815 145.877 372.128 149.042C395.454 160.791 414.48 179.525 426.52 202.599" fill="#441170"/>
</g>
<path d="M522.083 187.741C526.921 189.746 530.675 193.629 535.041 196.532C539.407 199.434 545.219 201.3 549.807 198.798L545.9 192.551C548.937 195.641 552.973 197.566 557.298 197.985C561.622 198.405 565.957 197.293 569.537 194.846L568.494 192.634C569.719 193.796 571.186 194.673 572.792 195.204C574.398 195.734 576.102 195.905 577.782 195.702C581.136 195.279 584.375 194.213 587.32 192.565C592.355 190.019 597.096 186.937 601.461 183.374C599.556 181.729 598.68 179.228 597.554 177.002C596.428 174.777 590.824 171.667 590.824 171.667L581.773 178.274C583.922 175.576 585.253 172.326 585.61 168.903C582.718 169.539 579.701 166.678 576.962 167.798C576.03 168.185 572.693 167.908 571.901 168.544C568.951 170.765 566.347 173.406 564.17 176.38C564.866 170.037 565.394 170.092 567.118 163.941C550.642 169.304 535.139 176.311 522.124 187.769" fill="#CEBFFF"/>
<g opacity="0.3">
<path d="M522.083 187.741C526.921 189.746 530.675 193.629 535.041 196.532C539.407 199.434 545.219 201.3 549.807 198.798L545.9 192.551C548.937 195.641 552.973 197.566 557.298 197.985C561.622 198.405 565.957 197.293 569.537 194.846L568.494 192.634C569.719 193.796 571.186 194.673 572.792 195.204C574.398 195.734 576.102 195.905 577.782 195.702C581.136 195.279 584.375 194.213 587.32 192.565C592.355 190.019 597.096 186.937 601.461 183.374C599.556 181.729 598.68 179.228 597.554 177.002C596.428 174.777 590.824 171.667 590.824 171.667L581.773 178.274C583.922 175.576 585.253 172.326 585.61 168.903C582.718 169.539 579.701 166.678 576.962 167.798C576.03 168.185 572.693 167.908 571.901 168.544C568.951 170.765 566.347 173.406 564.17 176.38C564.866 170.037 565.394 170.092 567.118 163.941C550.642 169.304 535.139 176.311 522.124 187.769" fill="#441170"/>
</g>
<path d="M559.789 183.802C558.251 182.891 556.601 182.18 554.881 181.688C550.183 180.306 545.237 179.966 540.393 180.692C533.219 181.851 526.38 184.533 520.343 188.557C505.642 198.399 492.884 210.842 482.705 225.266C478.59 231.159 475.069 237.441 472.194 244.021C470.274 248.464 468.689 253.042 467.452 257.718C467.049 259.39 466.785 260.689 466.59 261.56L466.382 262.569C466.363 262.684 466.363 262.8 466.382 262.915C466.439 262.81 466.481 262.699 466.507 262.583L466.771 261.602C467.007 260.676 467.341 259.404 467.758 257.801C469.097 253.172 470.746 248.638 472.694 244.228C475.628 237.711 479.18 231.486 483.303 225.639C493.481 211.346 506.164 198.991 520.746 189.165C526.691 185.159 533.427 182.459 540.504 181.245C545.282 180.472 550.171 180.731 554.839 182.006C556.104 182.363 557.344 182.802 558.552 183.318L559.497 183.733C559.591 183.77 559.689 183.793 559.789 183.802Z" fill="#441170"/>
<path d="M181.311 286.164C176.578 265.83 160.675 252.72 146.722 257.634C142.952 251.518 138.245 246.852 133.013 244.044C127.782 241.236 122.185 240.371 116.712 241.526C111.239 242.681 106.057 245.819 101.619 250.667C97.1814 255.516 93.6231 261.925 91.2556 269.336C76.8774 259.767 59.1018 263.166 47.0209 277.784L37.9913 286.539L181.311 286.164Z" fill="#E6E1FD"/>
<path d="M133.003 225.072C126.193 216.264 124.079 199.351 128.89 189.321C131.558 193.151 135.042 196.349 139.095 198.688C136.844 193.301 135.193 187.685 134.169 181.941L142.947 175.213C144.124 177.697 145.03 182.831 147.3 185.388C144.947 181.62 145.769 173.019 148.57 170.472C151.951 167.572 155.912 165.417 160.191 164.148C165.526 162.331 171.025 161.031 176.612 160.266C180.319 159.801 184.474 159.79 187.295 162.212C191.304 165.659 190.419 172.418 186.994 176.455C183.568 180.492 178.465 182.583 173.738 184.953C156.269 193.752 142.021 207.782 133.003 225.062" fill="#CEBFFF"/>
<path d="M94.5459 184.187C101.366 175.379 103.48 158.465 98.659 148.436C95.9977 152.267 92.5165 155.466 88.4649 157.803C90.7168 152.417 92.365 146.8 93.3797 141.056L84.6121 134.328C83.4355 136.812 82.5296 141.946 80.2596 144.513C82.6129 140.735 81.7903 132.092 78.9892 129.597C75.6075 126.696 71.6475 124.537 67.3686 123.263C62.0333 121.449 56.534 120.152 50.9476 119.391C47.2406 118.926 43.0859 118.915 40.264 121.337C36.2551 124.784 37.1402 131.554 40.566 135.58C43.9918 139.606 49.0837 141.708 53.8215 144.078C71.2895 152.875 85.5353 166.905 94.5459 184.187Z" fill="#CEBFFF"/>
<path d="M113.115 166.227C116.905 161.3 122.549 158.195 127.224 154.054C131.899 149.914 135.846 143.859 134.336 137.845L125.922 140.422C135.044 135.64 139.532 123.623 135.762 114.08L132.899 114.597C136.418 112.682 138.574 108.842 139.272 104.909C139.791 100.941 139.54 96.9109 138.532 93.0368C137.116 86.5061 134.99 80.1478 132.191 74.0742C129.713 75.7614 126.547 75.9477 123.621 76.5998C120.695 77.2519 117.55 78.7942 116.759 81.6717C115.499 86.2156 120.924 90.4077 120.237 95.0759C117.77 91.797 114.414 89.2839 110.563 87.8304C110.418 91.3289 106.19 93.9062 106.659 97.3841C106.917 98.5594 107.448 99.6584 108.21 100.593L119.82 117.371C112.688 114.637 105.793 111.328 99.2031 107.476C100.411 127.96 103.785 147.896 113.115 166.196" fill="#CEBFFF"/>
<path d="M178.206 174.156C178.206 174.156 178.112 174.229 177.924 174.343L177.06 174.86C176.3 175.316 175.144 175.895 173.728 176.806C169.697 179.292 165.848 182.059 162.212 185.087C161.035 186.008 159.889 187.084 158.65 188.192C157.411 189.299 156.203 190.448 154.975 191.701C152.323 194.336 149.827 197.122 147.498 200.043C146.259 201.586 145.124 203.252 143.927 204.95C143.344 205.798 142.708 206.626 142.146 207.517L140.48 210.239C139.303 212.04 138.398 214.027 137.356 215.963C136.815 216.925 136.409 217.971 135.919 218.985C135.43 220 134.961 221.055 134.534 222.09C131.303 230.016 128.987 238.281 127.631 246.725C126.526 253.623 125.976 260.597 125.985 267.582C125.923 270.563 126.11 273.254 126.173 275.624C126.235 277.995 126.496 280.013 126.621 281.69C126.746 283.367 126.933 284.599 127.027 285.509C127.027 285.923 127.1 286.255 127.12 286.545C127.136 286.658 127.136 286.773 127.12 286.886C127.093 286.774 127.072 286.659 127.058 286.545C127.058 286.296 126.975 285.965 126.912 285.561C126.787 284.65 126.621 283.377 126.402 281.742C126.183 280.106 126.058 278.047 125.86 275.676C125.663 273.306 125.558 270.604 125.59 267.613C125.512 260.566 126.021 253.524 127.11 246.56C128.439 238.07 130.752 229.761 134.003 221.801C134.43 220.766 134.94 219.731 135.399 218.695C135.857 217.66 136.294 216.625 136.846 215.663C137.887 213.706 138.856 211.719 140.032 209.908L141.719 207.175C142.281 206.285 142.927 205.446 143.51 204.598C144.708 202.911 145.863 201.223 147.113 199.681C149.461 196.75 151.981 193.961 154.662 191.328C155.912 190.065 157.182 188.937 158.38 187.819C159.577 186.701 160.785 185.687 161.972 184.776C165.644 181.776 169.539 179.056 173.624 176.64C175.071 175.771 176.238 175.202 177.019 174.777L177.904 174.312L178.206 174.156Z" fill="#441170"/>
<path d="M106.282 284.143C106.268 284.006 106.268 283.867 106.282 283.729C106.282 283.429 106.282 283.026 106.282 282.518C106.282 281.421 106.188 279.848 106.126 277.84C106.064 275.832 105.991 273.337 105.959 270.449C105.928 267.562 105.855 264.239 105.887 260.647C105.887 253.402 105.991 244.749 106.293 235.153C106.595 225.558 107.178 215.021 108 203.967C108.823 192.912 109.916 182.416 111.03 172.914C112.145 163.413 113.353 154.821 114.477 147.648C115.008 144.057 115.518 140.817 116.039 137.97C116.56 135.124 116.945 132.681 117.32 130.725C117.695 128.769 117.976 127.206 118.174 126.129L118.413 124.939C118.431 124.802 118.463 124.666 118.507 124.535C118.523 124.673 118.523 124.812 118.507 124.949C118.507 125.239 118.403 125.643 118.319 126.15L117.57 130.766C117.226 132.764 116.82 135.207 116.383 138.064C115.945 140.92 115.404 144.15 114.904 147.741C113.863 154.925 112.686 163.485 111.572 173.018C110.458 182.551 109.489 193.047 108.583 204.07C107.678 215.094 107.209 225.641 106.834 235.236C106.459 244.831 106.334 253.454 106.303 260.72C106.303 264.343 106.303 267.624 106.303 270.512C106.303 273.399 106.303 275.873 106.366 277.902C106.428 279.931 106.366 281.483 106.418 282.581V283.792C106.385 283.913 106.34 284.031 106.282 284.143Z" fill="#441170"/>
<path d="M75.918 152.449C76.1118 152.656 76.2893 152.878 76.449 153.112C76.803 153.609 77.282 154.261 77.8859 155.078C78.4899 155.896 79.2605 156.983 80.0831 158.184C80.9057 159.384 81.8845 160.833 82.8633 162.448C83.8421 164.063 84.9458 165.812 85.9871 167.748C87.0284 169.683 88.2258 171.753 89.4025 173.958C91.6829 178.399 94.0154 183.367 96.1812 188.697C98.3471 194.028 100.055 199.255 101.481 204.037C102.148 206.439 102.804 208.716 103.304 210.879C103.803 213.042 104.282 215.019 104.668 216.893C105.053 218.766 105.334 220.423 105.605 221.892C105.876 223.362 106.063 224.646 106.198 225.691C106.334 226.736 106.438 227.492 106.511 228.092C106.565 228.368 106.59 228.65 106.584 228.931C106.508 228.659 106.449 228.382 106.407 228.103C106.302 227.513 106.167 226.716 105.99 225.722C105.813 224.728 105.605 223.414 105.303 221.944C105.001 220.474 104.72 218.839 104.262 216.976C103.803 215.113 103.408 213.125 102.835 210.983C102.262 208.84 101.648 206.573 100.971 204.182C99.5238 199.421 97.764 194.235 95.6398 188.905C93.5156 183.574 91.1727 178.616 88.9235 174.186C87.7573 171.981 86.6848 169.88 85.5706 167.975C84.4564 166.071 83.436 164.27 82.4467 162.665C81.4575 161.061 80.5412 159.622 79.7394 158.359C78.9377 157.097 78.2296 156.02 77.6569 155.151L76.3032 153.132C76.1592 152.914 76.0304 152.685 75.918 152.449Z" fill="#441170"/>
<g opacity="0.2">
<path d="M133.003 225.072C126.193 216.264 124.079 199.351 128.89 189.321C131.558 193.151 135.042 196.349 139.095 198.688C136.844 193.301 135.193 187.685 134.169 181.941L142.947 175.213C144.124 177.697 145.03 182.831 147.3 185.388C144.947 181.62 145.769 173.019 148.57 170.472C151.951 167.572 155.912 165.417 160.191 164.148C165.526 162.331 171.025 161.031 176.612 160.266C180.319 159.801 184.474 159.79 187.295 162.212C191.304 165.659 190.419 172.418 186.994 176.455C183.568 180.492 178.465 182.583 173.738 184.953C156.269 193.752 142.021 207.782 133.003 225.062" fill="#441170"/>
</g>
<path d="M61.4349 213.933C57.8113 215.434 54.9998 218.343 51.7302 220.516C48.4606 222.69 44.108 224.087 40.6718 222.214L43.5978 217.535C41.324 219.849 38.3011 221.291 35.0624 221.605C31.8236 221.919 28.5772 221.087 25.8961 219.254L26.677 217.597C25.7603 218.467 24.6611 219.125 23.4584 219.522C22.2557 219.919 20.9794 220.047 19.7213 219.895C17.2099 219.578 14.7842 218.78 12.5781 217.546C8.80808 215.639 5.25734 213.331 1.98828 210.662C3.41483 209.431 4.07087 207.557 4.91431 205.891C5.75774 204.224 9.95406 201.895 9.95406 201.895L16.7328 206.843C15.1234 204.823 14.1265 202.388 13.8589 199.825C16.0247 200.301 18.2843 198.159 20.3357 198.997C21.0333 199.287 23.5323 199.08 24.1259 199.556C26.3347 201.22 28.2855 203.197 29.9154 205.425C29.3947 200.674 28.9991 200.715 27.7079 196.109C40.047 200.125 51.6574 205.373 61.4037 213.954" fill="#CEBFFF"/>
<g opacity="0.3">
<path d="M61.4349 213.933C57.8113 215.434 54.9998 218.343 51.7302 220.516C48.4606 222.69 44.108 224.087 40.6718 222.214L43.5978 217.535C41.324 219.849 38.3011 221.291 35.0624 221.605C31.8236 221.919 28.5772 221.087 25.8961 219.254L26.677 217.597C25.7603 218.467 24.6611 219.125 23.4584 219.522C22.2557 219.919 20.9794 220.047 19.7213 219.895C17.2099 219.578 14.7842 218.78 12.5781 217.546C8.80808 215.639 5.25734 213.331 1.98828 210.662C3.41483 209.431 4.07087 207.557 4.91431 205.891C5.75774 204.224 9.95406 201.895 9.95406 201.895L16.7328 206.843C15.1234 204.823 14.1265 202.388 13.8589 199.825C16.0247 200.301 18.2843 198.159 20.3357 198.997C21.0333 199.287 23.5323 199.08 24.1259 199.556C26.3347 201.22 28.2855 203.197 29.9154 205.425C29.3947 200.674 28.9991 200.715 27.7079 196.109C40.047 200.125 51.6574 205.373 61.4037 213.954" fill="#441170"/>
</g>
<path d="M33.1953 210.983C34.3471 210.3 35.5825 209.768 36.8711 209.399C40.3893 208.364 44.0932 208.11 47.7212 208.654C53.094 209.521 58.2154 211.53 62.7364 214.543C73.7463 221.914 83.3007 231.233 90.9239 242.035C94.0057 246.448 96.6425 251.153 98.7959 256.081C100.234 259.408 101.42 262.836 102.347 266.338C102.649 267.591 102.847 268.564 102.992 269.216L103.148 269.971C103.162 270.057 103.162 270.144 103.148 270.23C103.106 270.152 103.074 270.069 103.055 269.982L102.857 269.247C102.68 268.553 102.43 267.601 102.118 266.4C101.115 262.934 99.8803 259.538 98.4211 256.236C96.2238 251.355 93.5635 246.693 90.4761 242.314C82.8538 231.61 73.3551 222.357 62.4345 214.999C57.9824 211.999 52.938 209.977 47.6379 209.068C44.0598 208.488 40.398 208.682 36.9023 209.637C35.9552 209.905 35.0266 210.234 34.1221 210.62L33.414 210.931C33.3439 210.958 33.2703 210.976 33.1953 210.983Z" fill="#441170"/>
<path d="M90.58 286.334C90.58 286.461 183.661 286.57 298.453 286.57C413.244 286.57 506.344 286.461 506.344 286.334C506.344 286.207 413.281 286.098 298.453 286.098C183.625 286.098 90.58 286.207 90.58 286.334Z" fill="#263238"/>
<path d="M439.448 207.742H455.062V285.872H439.448V207.742Z" fill="#8055F1"/>
<path d="M439.449 285.871C439.449 285.871 439.449 285.733 439.449 285.465V284.297C439.449 283.251 439.449 281.703 439.449 279.8C439.449 275.892 439.517 270.245 439.551 263.232C439.551 249.206 439.641 229.706 439.709 207.741L439.359 207.957H455.064L454.714 207.741C454.804 241.968 454.872 271.603 454.906 285.871L455.064 285.776L443.491 285.828H440.488H439.449C439.449 285.828 439.766 285.828 440.432 285.828H443.401L455.064 285.888H455.222V285.785C455.222 271.516 455.335 241.881 455.414 207.655L455.064 207.43H439.099V207.655C439.099 229.688 439.212 249.24 439.246 263.31C439.246 270.297 439.325 275.926 439.359 279.826C439.359 281.738 439.359 283.234 439.359 284.263V285.404C439.438 285.75 439.449 285.871 439.449 285.871Z" fill="#263238"/>
<g opacity="0.3">
<path d="M439.448 210.094H455.062V214.046H439.448V210.094Z" fill="black"/>
</g>
<path d="M107.307 207.742H122.922V285.872H107.307V207.742Z" fill="#8055F1"/>
<path d="M107.294 285.871C107.303 285.736 107.303 285.6 107.294 285.465V284.297C107.294 283.251 107.294 281.703 107.35 279.8C107.35 275.892 107.406 270.245 107.452 263.232C107.452 249.206 107.542 229.706 107.598 207.741L107.248 207.957H122.92L122.57 207.741C122.649 241.968 122.716 271.603 122.761 285.871L122.92 285.776L111.336 285.828H108.332H107.294H108.276H111.245L122.92 285.888H123.078V285.785C123.078 271.516 123.179 241.881 123.27 207.655L122.92 207.43H106.944V207.655C107.011 229.688 107.056 249.24 107.102 263.31C107.102 270.297 107.181 275.926 107.203 279.826C107.203 281.738 107.203 283.234 107.203 284.263C107.203 284.756 107.203 285.127 107.203 285.404C107.203 285.681 107.294 285.871 107.294 285.871Z" fill="#263238"/>
<path d="M131.772 124.633H147.387V203.766H131.772V124.633Z" fill="#8055F1"/>
<path d="M131.76 203.764C131.776 203.626 131.776 203.487 131.76 203.349C131.76 203.055 131.76 202.665 131.76 202.164C131.76 201.1 131.76 199.57 131.816 197.624C131.816 193.663 131.873 187.956 131.918 180.865C131.918 166.675 132.008 146.941 132.065 124.656L131.714 124.925H147.374C146.686 124.388 147.182 124.786 147.036 124.674V137.204C147.036 141.314 147.036 145.33 147.036 149.25C147.036 157.076 147.036 164.469 147.036 171.275C147.036 184.869 147.137 196.111 147.16 203.764L147.34 203.625L135.779 203.703H132.765H131.714C131.714 203.703 132.042 203.703 132.708 203.703H135.677L147.34 203.781H147.51V203.651C147.51 195.998 147.578 184.756 147.634 171.163C147.634 164.357 147.634 156.963 147.634 149.137C147.634 145.223 147.634 141.208 147.634 137.092C147.634 135.033 147.634 132.958 147.634 130.865V124.535C147.476 124.414 147.984 124.786 147.273 124.25H131.308V124.518C131.376 146.898 131.432 166.709 131.466 180.943C131.466 188.008 131.545 193.689 131.568 197.633C131.568 199.57 131.568 201.092 131.568 202.121C131.568 202.605 131.568 202.985 131.568 203.271C131.568 203.556 131.76 203.764 131.76 203.764Z" fill="#263238"/>
<path d="M409.561 124.633H425.176V203.766H409.561V124.633Z" fill="#8055F1"/>
<path d="M409.549 203.764C409.563 203.626 409.563 203.488 409.549 203.349C409.549 203.055 409.549 202.666 409.549 202.165C409.549 201.101 409.549 199.57 409.549 197.625C409.549 193.664 409.606 187.957 409.651 180.866C409.651 166.675 409.741 146.942 409.798 124.657L409.459 124.925H425.164C424.475 124.389 424.972 124.787 424.825 124.675V137.205C424.825 141.315 424.825 145.331 424.825 149.251C424.825 157.077 424.825 164.47 424.825 171.276C424.825 184.87 424.927 196.111 424.961 203.764L425.13 203.626L413.58 203.704H410.554H409.504C409.504 203.704 409.831 203.704 410.498 203.704H413.478L425.13 203.782H425.299V203.652C425.299 195.999 425.378 184.757 425.435 171.163C425.435 164.358 425.435 156.964 425.435 149.138C425.435 145.224 425.435 141.209 425.435 137.092V124.649C425.277 124.528 425.785 124.899 425.074 124.363H409.12V124.631C409.177 147.011 409.233 166.822 409.267 181.056C409.267 188.121 409.346 193.803 409.369 197.746C409.369 199.683 409.369 201.205 409.369 202.234C409.369 202.718 409.369 203.099 409.369 203.384C409.369 203.669 409.549 203.764 409.549 203.764Z" fill="#263238"/>
<path d="M101.638 115.605H455.988V128.274H101.638V115.605Z" fill="#8055F1"/>
<path d="M101.637 128.273C101.637 128.273 101.637 128.013 101.637 127.503C101.637 126.993 101.637 126.206 101.637 125.168C101.637 123.084 101.637 119.928 101.693 115.604L101.603 115.682L455.908 115.846L455.558 115.578V128.247L455.908 127.979L204.843 128.091L129.253 128.169H108.727H103.387C102.179 128.169 101.558 128.169 101.558 128.169H103.342H108.637H129.073L204.583 128.247L455.908 128.359H456.258V115.336H455.908L101.58 115.526H101.479V115.604C101.479 119.928 101.479 123.119 101.535 125.211C101.535 126.24 101.535 127.01 101.535 127.529C101.535 128.048 101.637 128.273 101.637 128.273Z" fill="#263238"/>
<path d="M100.712 134.602H455.062V147.27H100.712V134.602Z" fill="#8055F1"/>
<path d="M100.714 147.273C100.714 147.273 100.714 147.013 100.714 146.503C100.714 145.993 100.714 145.206 100.714 144.168C100.714 142.084 100.714 138.928 100.77 134.604L100.668 134.682L455.052 134.872L454.702 134.604V147.273L455.052 147.004L203.987 147.117L128.409 147.195L107.883 147.238H102.543C101.335 147.238 100.702 147.238 100.702 147.238H102.498H107.793L128.228 147.281L203.727 147.359L455.052 147.471H455.402V134.336H455.041L100.702 134.526H100.612V134.604C100.612 138.928 100.612 142.119 100.668 144.211C100.668 145.249 100.668 146.01 100.668 146.529C100.668 147.048 100.714 147.273 100.714 147.273Z" fill="#263238"/>
<path d="M100.712 154.309H455.062V166.977H100.712V154.309Z" fill="#8055F1"/>
<path d="M100.712 166.971C100.712 166.971 100.712 166.72 100.712 166.201C100.712 165.682 100.712 164.913 100.712 163.875C100.712 161.791 100.712 158.635 100.768 154.311L100.667 154.38L455.005 154.579L454.655 154.311V166.971L455.005 166.712L203.94 166.815L128.362 166.902H107.836H102.496H100.655H102.451H107.746H128.182L203.681 166.988L455.005 167.092H455.355V154.043H454.994L100.655 154.233H100.565V154.311C100.565 158.635 100.565 161.826 100.622 163.918C100.622 164.947 100.622 165.717 100.622 166.227C100.622 166.737 100.712 166.971 100.712 166.971Z" fill="#263238"/>
<path d="M100.712 174.008H455.062V186.676H100.712V174.008Z" fill="#8055F1"/>
<path d="M100.712 186.679C100.712 186.679 100.712 186.419 100.712 185.909C100.712 185.399 100.712 184.62 100.712 183.583C100.712 181.49 100.712 178.334 100.768 174.01L100.667 174.088L455.005 174.278L454.655 174.01V186.679L455.005 186.41L203.94 186.523L128.362 186.601L107.836 186.644H102.496H100.655C100.655 186.644 101.254 186.644 102.451 186.644H107.746L128.182 186.687L203.681 186.765L455.005 186.877H455.355V173.785H454.994L100.655 173.984H100.565V174.053C100.565 178.377 100.565 181.568 100.622 183.669C100.622 184.698 100.622 185.459 100.622 185.978C100.622 186.497 100.712 186.679 100.712 186.679Z" fill="#263238"/>
<path d="M94.2752 197.426H470.461V210.094H94.2752V197.426Z" fill="#8055F1"/>
<path d="M94.2768 210.104C94.2768 210.104 94.2768 209.845 94.2768 209.334C94.2768 208.824 94.2768 208.046 94.2768 207.008C94.2768 204.924 94.2768 201.768 94.2768 197.435L94.1865 197.513L470.35 197.704L470 197.435V210.104L470.35 209.836L203.839 209.948L123.575 210.026L101.785 210.069H96.1398H94.1978C94.1978 210.069 94.83 210.069 96.0946 210.069H101.74L123.451 210.113L203.613 210.191L470.383 210.303H470.812V197.133H470.44L94.2768 197.332H94.1752V197.401C94.1752 201.725 94.1752 204.924 94.2317 207.017C94.2317 208.046 94.2317 208.807 94.2317 209.326C94.2317 209.845 94.2768 210.104 94.2768 210.104Z" fill="#263238"/>
<g opacity="0.3">
<path d="M107.307 210.094H122.922V214.046H107.307V210.094Z" fill="black"/>
</g>
<path d="M390.511 153.379C390.511 153.379 401.07 162.811 403.271 173.424C406.509 189.036 398.083 201.221 398.083 201.221C381.808 202.053 367.408 202.976 339.628 201.221L339.16 160.69L390.511 153.379Z" fill="#22272B"/>
<path d="M364.504 132.458C364.63 132.009 368.387 118.917 368.387 118.917L352.832 110.309L348.456 127.484L364.504 132.458Z" fill="#146CFD"/>
<path d="M323.622 100.536C325.203 97.0091 327.805 94.7716 331.872 93.3577L344.247 89.8477H373.056C373.056 89.8477 386.327 90.3384 391.088 97.0673L388.469 136.368C388.469 136.368 387.749 143.288 395.297 158.442C395.297 158.442 389.582 165.787 380.319 165.787C371.056 165.787 339.486 161.803 339.486 161.803L336.332 144.61C336.332 144.61 328.458 127.21 326.96 123.883C324.988 119.454 323.52 114.82 322.584 110.068C321.971 106.858 322.332 103.54 323.622 100.536Z" fill="#146CFD"/>
<path d="M361.257 143.77C361.321 143.622 361.375 143.469 361.416 143.313C361.524 142.98 361.658 142.539 361.834 141.974L363.348 136.892C364.629 132.492 366.436 126.295 368.578 118.967V118.818L368.444 118.751L352.939 110.126L352.697 109.993L352.63 110.259C352.504 110.725 352.379 111.224 352.253 111.731C350.839 117.279 349.492 122.594 348.262 127.435H348.639L339.903 108.554C338.824 106.266 337.97 104.437 337.393 103.156C337.1 102.549 336.874 102.074 336.698 101.725C336.627 101.554 336.54 101.39 336.439 101.234C336.492 101.411 336.559 101.584 336.64 101.75L337.276 103.206C337.853 104.503 338.673 106.341 339.711 108.654C341.828 113.336 344.815 119.907 348.304 127.601L348.53 128.108L348.672 127.568L352.688 111.864L353.065 110.392L352.755 110.525L368.269 119.084L368.176 118.859C366.101 126.204 364.353 132.417 363.106 136.825C362.503 138.996 362.026 140.726 361.692 141.94C361.541 142.506 361.424 142.963 361.332 143.296C361.294 143.452 361.269 143.611 361.257 143.77Z" fill="#22272B"/>
<path d="M389.581 95.3711C391.397 96.9058 392.849 98.8195 393.836 100.976C394.822 103.132 395.318 105.479 395.288 107.847C395.095 115.807 386.192 156.43 380.067 159.84C373.65 163.425 370.52 162.469 366.872 162.477C363.224 162.485 336.331 160.173 336.331 160.173L336.423 142.989L366.211 143.937L376.754 106.458L389.581 95.3711Z" fill="#146CFD"/>
<path d="M393.164 121.505C393.164 121.505 393.114 121.646 393.039 121.929C392.963 122.212 392.854 122.636 392.721 123.168L391.499 127.959C390.436 132.118 388.922 138.14 386.788 145.509C386.253 147.348 385.667 149.269 384.989 151.249C384.334 153.321 383.369 155.283 382.127 157.071C380.767 158.936 378.901 160.378 376.747 161.23C374.427 162.068 371.955 162.411 369.493 162.236C364.397 162.036 359.05 161.645 353.503 161.255L336.349 159.94L336.542 160.157V159.716C336.542 153.977 336.609 148.371 336.634 142.973L336.416 143.172L366.204 144.095H366.346L366.388 143.962C369.526 132.667 372.137 123.293 373.961 116.731C374.856 113.462 375.567 110.908 376.053 109.128C376.279 108.297 376.463 107.598 376.588 107.124C376.714 106.65 376.756 106.434 376.756 106.434C376.756 106.434 376.672 106.658 376.53 107.107C376.387 107.556 376.203 108.238 375.944 109.095C375.442 110.859 374.706 113.42 373.768 116.672L366.037 143.863L366.221 143.729L336.433 142.756H336.215V142.964C336.215 148.371 336.157 153.968 336.123 159.707C336.123 159.857 336.123 160.015 336.123 160.148V160.348H336.324L353.477 161.695C359.025 162.086 364.355 162.469 369.476 162.652C371.991 162.835 374.517 162.477 376.881 161.604C379.105 160.718 381.026 159.213 382.412 157.27C383.669 155.465 384.643 153.479 385.299 151.382C385.968 149.385 386.554 147.464 387.073 145.618C389.173 138.223 390.645 132.193 391.666 128.026C392.152 125.947 392.503 124.333 392.804 123.218L393.08 121.962C393.117 121.812 393.145 121.659 393.164 121.505Z" fill="#22272B"/>
<path d="M377.692 161.214C379.472 160.427 380.972 159.122 381.992 157.471C385.339 152.572 387.138 145.444 388.293 140.329L388.703 139.805C388.302 144.832 387.311 149.795 385.749 154.593C384.862 157.089 383.741 159.667 381.658 161.339C379.682 162.797 377.273 163.559 374.813 163.501C372.374 163.434 369.949 163.099 367.584 162.503C369.625 162.47 374.512 162.62 377.692 161.214Z" fill="#002664"/>
<path d="M375.141 112.172L364.204 141.741L338.441 143.038L366.213 143.928L375.141 112.172Z" fill="#002664"/>
<path d="M311.538 233.535L308.802 253.289C308.802 253.289 287.691 257.157 286.829 260.775L325.161 267.429L330.691 236.829L311.538 233.535Z" fill="#146CFD"/>
<path d="M320.943 253.686C321.293 253.861 321.566 254.157 321.71 254.52C321.853 254.882 321.857 255.284 321.721 255.649C321.556 256.003 321.262 256.281 320.898 256.426C320.534 256.571 320.128 256.573 319.763 256.431C319.386 256.25 319.091 255.935 318.936 255.549C318.781 255.162 318.778 254.732 318.926 254.343C319.134 253.993 319.472 253.736 319.866 253.627C320.261 253.519 320.683 253.567 321.043 253.761" fill="#E0E0E0"/>
<path d="M325.045 268.21L325.598 265.249L288.689 259.086C288.689 259.086 286.857 259.527 286.84 260.749L325.045 268.21Z" fill="#E0E0E0"/>
<path d="M308.217 252.981C308.217 253.172 309.113 253.414 309.891 254.179C310.669 254.944 311.062 255.801 311.246 255.759C311.43 255.718 311.347 254.586 310.343 253.688C309.339 252.79 308.209 252.806 308.217 252.981Z" fill="#22272B"/>
<path d="M303.909 253.938C303.834 254.113 304.587 254.571 305.089 255.469C305.591 256.367 305.625 257.232 305.809 257.249C305.993 257.265 306.302 256.242 305.658 255.144C305.014 254.047 303.943 253.764 303.909 253.938Z" fill="#22272B"/>
<path d="M300.786 258.33C300.945 258.396 301.372 257.498 301.071 256.408C300.77 255.319 299.958 254.745 299.858 254.895C299.757 255.044 300.192 255.668 300.427 256.558C300.661 257.448 300.602 258.28 300.786 258.33Z" fill="#22272B"/>
<path d="M309.345 248.546C309.387 248.729 310.291 248.621 311.337 248.879C312.383 249.137 313.153 249.611 313.278 249.469C313.404 249.328 312.726 248.521 311.488 248.238C310.249 247.955 309.278 248.388 309.345 248.546Z" fill="#22272B"/>
<path d="M338.197 80.5175C338.683 78.2053 338.197 75.8265 337.787 73.4975C337.377 71.1686 337.177 68.6817 338.164 66.5357C339.411 63.8409 342.281 62.2855 344.071 59.8817C345.862 57.4779 346.456 54.4587 347.167 51.5642C347.879 48.6697 348.883 45.6421 351.192 43.7457C354.112 41.3419 360.672 41.8742 363.375 44.5109C361.174 61.2541 362.429 78.7625 356.221 94.4827C347.941 93.5199 340.09 90.2986 333.537 85.1754C335.905 85.0589 337.72 82.8215 338.197 80.5175Z" fill="#22272B"/>
<path d="M371.045 96.6076L381.922 57.5151C382.11 56.6297 381.956 55.7066 381.491 54.9287C381.026 54.1508 380.284 53.5748 379.412 53.3148L364.838 49.2569C358.889 47.477 353.922 49.2569 349.919 55.4062C349.191 56.5242 348.818 57.148 348.463 58.6616C348.285 59.4231 348.452 61.8187 348.281 62.5873C347.955 64.0551 345.827 66.2494 345.552 67.6843C344.916 71.0085 344.826 73.4167 344.754 75.872C344.445 86.2689 351.984 89.0137 351.984 89.0137L350.536 100.001L353.666 111.03L363.338 116.312L371.045 96.6076Z" fill="#FFBF9D"/>
<path d="M350.128 63.7221C350.059 64.0583 350.125 64.4082 350.313 64.6962C350.501 64.9841 350.795 65.187 351.132 65.2608C351.296 65.3057 351.466 65.3175 351.634 65.2955C351.802 65.2735 351.964 65.2182 352.11 65.1328C352.256 65.0475 352.383 64.9338 352.484 64.7986C352.585 64.6635 352.657 64.5095 352.697 64.3459C352.765 64.0099 352.697 63.661 352.51 63.3736C352.322 63.0862 352.029 62.8829 351.693 62.8071C351.53 62.7623 351.359 62.7505 351.191 62.7725C351.023 62.7945 350.862 62.8498 350.716 62.9351C350.57 63.0205 350.443 63.1341 350.342 63.2693C350.241 63.4045 350.168 63.5585 350.128 63.7221Z" fill="#22272B"/>
<path d="M348.841 59.1133C348.967 59.3129 350.088 58.7722 351.494 59.0384C352.899 59.3046 353.786 60.1945 354.004 60.0531C354.221 59.9117 354.004 59.6539 353.602 59.2214C353.076 58.6855 352.394 58.3276 351.653 58.1983C350.925 58.0599 350.171 58.1561 349.502 58.4728C348.975 58.739 348.774 59.0218 348.841 59.1133Z" fill="#22272B"/>
<path d="M362.286 66.9174C362.221 67.2543 362.29 67.6032 362.479 67.8903C362.668 68.1774 362.962 68.3803 363.298 68.4561C363.461 68.4998 363.632 68.5107 363.799 68.4882C363.967 68.4657 364.128 68.4102 364.274 68.325C364.419 68.2399 364.547 68.1267 364.648 67.9921C364.749 67.8575 364.822 67.7042 364.863 67.5412C364.928 67.2043 364.859 66.8554 364.67 66.5683C364.481 66.2812 364.187 66.0783 363.85 66.0025C363.687 65.9576 363.517 65.9458 363.349 65.9678C363.181 65.9898 363.019 66.0451 362.873 66.1304C362.727 66.2158 362.6 66.3294 362.499 66.4646C362.398 66.5998 362.326 66.7538 362.286 66.9174Z" fill="#22272B"/>
<path d="M361.576 62.4652C361.701 62.6648 362.831 62.1242 364.228 62.3904C365.625 62.6565 366.521 63.5465 366.738 63.4051C366.956 63.2637 366.738 63.0059 366.337 62.5734C365.808 62.0452 365.132 61.6885 364.395 61.5503C363.665 61.4113 362.908 61.5074 362.237 61.8248C361.751 62.0993 361.576 62.3737 361.576 62.4652Z" fill="#22272B"/>
<path d="M355.233 72.9504C354.535 72.5866 353.796 72.3074 353.032 72.1187C352.68 72.0106 352.354 71.8775 352.337 71.6196C352.382 71.248 352.536 70.8978 352.781 70.6132L354.354 68.1179C356.555 64.5414 358.22 61.572 358.077 61.4639C357.935 61.3558 356.027 64.2087 353.827 67.7936L352.296 70.2888C351.986 70.6754 351.826 71.1592 351.844 71.6529C351.871 71.788 351.929 71.9151 352.013 72.0247C352.097 72.1342 352.205 72.2232 352.329 72.285C352.52 72.3713 352.719 72.4382 352.923 72.4847C353.67 72.7355 354.446 72.892 355.233 72.9504Z" fill="#22272B"/>
<path d="M351.127 88.1418C355.894 89.1127 360.838 88.7499 365.41 87.0938C365.41 87.0938 360.632 93.648 350.65 90.7867L351.127 88.1418Z" fill="#9B5C40"/>
<path d="M362.757 56.6201C362.815 57.0194 364.254 57.1025 365.861 57.6099C367.467 58.1173 368.714 58.816 368.99 58.5165C369.124 58.3668 368.99 57.9676 368.488 57.5018C367.865 56.9092 367.108 56.4755 366.279 56.2375C365.469 55.981 364.609 55.9183 363.769 56.0545C363.091 56.1876 362.731 56.4288 362.757 56.6201Z" fill="#E0E0E0"/>
<path d="M358.294 43.5029C360.754 39.3441 364.612 39.5687 368.745 39.7517C372.879 39.9347 378.627 42.6712 381.606 45.5241C383.932 47.7532 386.509 50.5146 387.982 53.3675C389.454 56.2204 389.739 59.0484 390.4 62.051C391.429 66.7421 390.542 71.5912 390.023 76.3572C389.378 82.3514 389.33 88.3944 389.881 94.398C390.082 96.5439 390.224 99.0974 387.27 99.8459C386.723 99.9767 386.16 100.03 385.597 100.004C381.212 99.8709 376.82 100.686 371.992 100.245L369.038 99.7711C365.306 99.1722 363.8 96.3359 364.444 93.1171C366.394 83.4438 373.464 68.1644 374.485 65.1867C374.443 65.2117 379.455 43.9105 358.294 43.5029Z" fill="#22272B"/>
<path d="M359.637 43.8181C360.177 44.4342 360.586 45.1528 360.839 45.9305C361.093 46.7082 361.184 47.5288 361.109 48.3428C361.068 50.0063 360.716 51.595 360.758 53.2252C360.82 54.8614 361.276 56.4589 362.089 57.8832C362.901 59.3074 364.046 60.5169 365.427 61.4097C366.314 61.9669 367.586 62.3412 368.314 61.5926C368.096 62.7014 368.22 63.8496 368.667 64.8879C369.115 65.9262 369.866 66.8067 370.824 67.4149C372.238 68.2467 373.953 68.438 375.485 69.0784C377.016 69.7189 378.514 71.0414 378.33 72.6716L380.84 61.5178L379.267 51.071L370.414 43.7266L359.637 43.8181Z" fill="#22272B"/>
<path d="M373.992 65.1281C373.688 64.8532 373.408 64.5526 373.155 64.2299C372.551 63.3018 372.178 62.244 372.068 61.144C371.926 59.5123 371.957 57.8703 372.16 56.245C372.408 54.2533 372.506 52.246 372.453 50.2397C372.374 48.1998 371.747 46.2181 370.637 44.5006C370.136 43.7621 369.493 43.129 368.746 42.6375C368.092 42.2126 367.366 41.9083 366.604 41.7392C365.491 41.4605 364.317 41.5451 363.257 41.9804C363.095 42.0505 362.939 42.1311 362.788 42.2216C362.672 42.2793 362.563 42.349 362.462 42.4296L362.219 42.6292C362.56 42.4095 362.918 42.2176 363.29 42.0553C364.327 41.6602 365.462 41.5962 366.537 41.8723C368.146 42.2531 369.548 43.2324 370.453 44.6088C371.534 46.3027 372.143 48.2517 372.218 50.2564C372.29 52.2641 372.209 54.2744 371.976 56.27C371.783 57.9078 371.769 59.5615 371.934 61.2023C372.051 62.3202 372.451 63.3904 373.097 64.313C373.345 64.6345 373.648 64.9104 373.992 65.1281Z" fill="#495054"/>
<path d="M382.719 65.1184C382.214 64.9808 381.73 64.7766 381.28 64.5112C380.106 63.6977 379.178 62.5821 378.594 61.284C378.162 60.4074 377.817 59.4909 377.564 58.5475C377.306 57.4583 377.21 56.3374 377.28 55.2205C377.28 54.0311 377.472 52.7918 377.548 51.4859C377.581 50.8237 377.581 50.1602 377.548 49.498C377.435 47.8457 376.924 46.2445 376.059 44.829C375.194 43.4135 374 42.225 372.577 41.3635C370.733 40.2501 368.576 39.7572 366.427 39.9578C364.986 40.0754 363.586 40.4949 362.319 41.1888C361.856 41.4199 361.418 41.6987 361.014 42.0206L361.106 41.9707L361.357 41.8043C361.466 41.7295 361.599 41.638 361.775 41.5381C361.951 41.4383 362.127 41.3219 362.352 41.2138C363.619 40.5538 365.009 40.1603 366.436 40.0576C368.552 39.8759 370.672 40.3713 372.485 41.4716C374.695 42.8481 376.311 44.9912 377.021 47.4852C377.195 48.1355 377.304 48.8014 377.347 49.4731C377.384 50.1269 377.384 50.7822 377.347 51.436C377.28 52.7252 377.129 53.9729 377.087 55.1706C377.021 56.308 377.126 57.4489 377.397 58.5558C377.659 59.5088 378.015 60.4337 378.46 61.3173C379.065 62.6266 380.024 63.7436 381.229 64.5445C381.567 64.744 381.93 64.8978 382.309 65.0019L382.61 65.0768C382.685 65.1184 382.719 65.1267 382.719 65.1184Z" fill="#495054"/>
<path d="M368.271 61.5934C368.271 61.5934 368.271 61.5934 368.271 61.6849C368.271 61.7764 368.271 61.8512 368.271 61.9677C368.271 62.0841 368.271 62.2505 368.271 62.4335C368.271 62.6164 368.271 62.8327 368.271 63.0739C368.332 63.6426 368.464 64.2015 368.665 64.7374C368.944 65.4762 369.378 66.1479 369.937 66.7087C371.488 68.1185 373.478 68.958 375.576 69.0875C376.817 69.2209 378.068 69.2209 379.308 69.0875C380.659 68.9675 381.987 68.6682 383.257 68.1975L383.508 68.0977L383.249 68.0145C381.803 67.5664 380.436 66.8956 379.199 66.0266L379.149 66.0433L379.057 66.2179C382.015 67.1855 385.217 67.1239 388.136 66.0433L388.328 65.9767L388.144 65.8769C386.348 65.0142 384.719 63.8429 383.333 62.4168C382.258 61.2899 381.514 59.8919 381.182 58.3745C381.005 57.3786 381.005 56.3594 381.182 55.3635L381.366 54.5318C381.366 54.4569 381.366 54.3904 381.417 54.3322C381.418 54.31 381.418 54.2878 381.417 54.2656V54.3239L381.358 54.5235C381.308 54.7148 381.233 54.9726 381.141 55.3053C380.928 56.307 380.903 57.3388 381.065 58.3495C381.378 59.9063 382.119 61.3461 383.207 62.5083C384.6 63.9588 386.24 65.1528 388.052 66.035V65.8686C385.187 66.9147 382.053 66.9762 379.149 66.0433L378.505 65.827L379.057 66.2096L379.124 66.2595C380.378 67.1417 381.765 67.8211 383.232 68.2724V68.0894C381.98 68.5625 380.668 68.8619 379.333 68.9794C378.107 69.1081 376.87 69.1081 375.643 68.9794C373.579 68.8581 371.616 68.0495 370.07 66.6837C369.521 66.136 369.091 65.482 368.807 64.7624C368.601 64.2266 368.46 63.6681 368.389 63.0989C368.389 62.8577 368.389 62.6497 368.389 62.4667C368.389 62.2837 368.389 62.1257 368.389 62.0009V61.6267L368.271 61.5934Z" fill="#495054"/>
<path d="M384.294 95.7027C384.352 95.7027 384.662 89.8804 384.98 82.6192C385.298 75.3579 385.524 69.5357 385.473 69.5274C385.423 69.519 385.114 75.3496 384.787 82.6108C384.461 89.8721 384.243 95.7027 384.294 95.7027Z" fill="#495054"/>
<path d="M378.31 96.1879C378.344 96.1106 378.37 96.0297 378.385 95.9467C378.427 95.772 378.486 95.5474 378.561 95.2646C378.703 94.6658 378.904 93.8008 379.138 92.7694C379.607 90.6151 380.184 87.6291 380.711 84.3188C381.239 81.0084 381.598 77.9808 381.816 75.7933C381.925 74.7037 382.008 73.8137 382.05 73.1982C382.05 72.9071 382.05 72.6742 382.092 72.4912C382.1 72.411 382.1 72.3302 382.092 72.25C382.08 72.33 382.08 72.4112 382.092 72.4912L382.008 73.1982C381.933 73.8303 381.833 74.7037 381.716 75.7766C381.456 77.9641 381.071 80.9751 380.553 84.2855C380.034 87.5959 379.465 90.5819 379.038 92.7361L378.519 95.2896C378.461 95.5724 378.419 95.8053 378.377 95.9799C378.349 96.0475 378.327 96.117 378.31 96.1879Z" fill="#495054"/>
<path d="M351.793 76.2062C351.723 76.2552 351.846 76.5925 352.231 77.0018C352.745 77.5422 353.407 77.9213 354.135 78.0922C354.861 78.2701 355.623 78.2384 356.331 78.0006C356.864 77.8058 357.131 77.5651 357.104 77.4501C357.077 77.335 355.79 77.7379 354.338 77.3946C352.887 77.0513 351.949 76.0782 351.793 76.2062Z" fill="#22272B"/>
<path d="M360.855 88.9922C360.855 88.9922 364.151 90.5642 364.151 93.151C364.151 95.7378 364.695 116.532 364.695 116.532L352.889 109.936L354.813 96.1204L342.045 88.3352C342.045 88.3352 339.535 84.01 339.827 82.646C340.12 81.2819 342.589 78.6452 343.827 78.7783C344.215 78.8418 344.587 78.9838 344.918 79.1955C345.249 79.4072 345.532 79.6842 345.752 80.0093L349.592 80.841C349.592 80.841 349.316 83.2947 347.668 83.1616L346.572 83.0202L346.714 83.9768L348.63 85.3408L360.855 88.9922Z" fill="#FFBF9D"/>
<path d="M360.856 88.9912L360.656 88.9163L360.036 88.7084L357.652 87.9515L348.673 85.1734H348.715L346.799 83.801L346.858 83.9008C346.816 83.6097 346.766 83.277 346.724 82.9443L346.556 83.1107L347.619 83.2438C347.822 83.2677 348.028 83.2513 348.225 83.1956C348.422 83.14 348.605 83.0461 348.765 82.9194C349.335 82.3488 349.687 81.5989 349.761 80.7984V80.6487H349.602L345.762 79.8169L345.879 79.9001C345.547 79.4118 345.087 79.0234 344.548 78.7772C344.266 78.6525 343.962 78.5873 343.653 78.5859C343.34 78.6127 343.037 78.7094 342.766 78.8687C341.731 79.4997 340.851 80.3521 340.189 81.364C340.016 81.6273 339.867 81.9057 339.745 82.1957C339.605 82.5028 339.558 82.8441 339.612 83.1772C339.719 83.8038 339.901 84.4154 340.155 84.9988C340.645 86.1753 341.204 87.3223 341.829 88.4339V88.4838H341.879L354.648 96.269L354.547 96.0611C354.48 96.5019 354.422 96.9677 354.355 97.4418C353.761 101.734 353.175 105.901 352.623 109.877V110.018L352.748 110.084L364.563 116.672L364.848 116.83V116.506C364.613 107.889 364.421 100.702 364.287 95.5704C364.287 94.9382 364.245 94.3394 364.228 93.7738C364.249 93.2358 364.19 92.6977 364.053 92.1768C363.756 91.3779 363.25 90.6717 362.588 90.1307C362.067 89.6567 361.471 89.2717 360.823 88.9912C360.823 88.9912 360.823 88.9912 360.94 89.066L361.275 89.274C361.715 89.5498 362.129 89.8644 362.513 90.2139C363.142 90.7541 363.617 91.4478 363.894 92.2267C364.012 92.7335 364.06 93.254 364.036 93.7738C364.036 94.3394 364.036 94.9382 364.036 95.5704C364.128 100.669 364.27 107.889 364.438 116.514L364.722 116.348L352.924 109.694L353.024 109.901C353.585 105.926 354.162 101.759 354.765 97.4668C354.832 96.9927 354.899 96.5269 354.957 96.086V95.953L354.84 95.8781L342.063 88.1095L342.138 88.1761C341.512 87.0824 340.953 85.9519 340.465 84.7908C340.224 84.2424 340.05 83.6671 339.946 83.0774C339.918 82.5141 340.099 81.9602 340.457 81.522C341.077 80.5611 341.906 79.751 342.883 79.1515C343.104 79.0162 343.353 78.9336 343.611 78.9103C343.865 78.9067 344.117 78.9607 344.347 79.0684C344.818 79.2831 345.223 79.6191 345.519 80.0415V80.108H345.586L349.435 80.9398L349.309 80.7568C349.257 81.473 348.962 82.1504 348.473 82.6782C348.214 82.8799 347.888 82.9752 347.561 82.9443L346.498 82.8113H346.305V83.0026L346.448 83.9507V84.0173H346.498L348.431 85.3731L357.434 88.018L359.844 88.7084L360.471 88.8831L360.856 88.9912Z" fill="#9B5C40"/>
<path d="M344.999 86.5477C345.04 86.4978 344.639 86.1485 344.07 85.5413C343.736 85.1951 343.454 84.8029 343.233 84.3769C342.997 83.8559 342.91 83.2802 342.982 82.7133C343.032 82.13 343.142 81.5531 343.308 80.9916C343.381 80.7875 343.518 80.6123 343.699 80.4922C343.88 80.3722 344.095 80.314 344.312 80.3262C344.656 80.3283 344.998 80.2921 345.333 80.2181C345.576 80.1349 345.668 80.0268 345.66 80.0101C345.651 79.9935 345.517 80.0102 345.291 80.0601C344.963 80.0775 344.633 80.0775 344.304 80.0601C344.045 80.0464 343.787 80.0949 343.551 80.2015C343.279 80.348 343.067 80.5829 342.949 80.8669C342.744 81.4614 342.615 82.0788 342.564 82.705C342.48 83.3464 342.59 83.9981 342.882 84.5765C343.127 85.0324 343.453 85.4408 343.844 85.7825C344.171 86.115 344.564 86.3757 344.999 86.5477Z" fill="#9B5C40"/>
<path d="M357.846 252.184L355.629 278.6L359.904 299.993C359.977 300.358 359.974 300.734 359.895 301.098C359.816 301.461 359.663 301.805 359.445 302.108C359.227 302.41 358.949 302.665 358.628 302.856C358.307 303.048 357.949 303.171 357.578 303.22C357.148 303.278 356.71 303.233 356.301 303.088C355.892 302.943 355.524 302.703 355.227 302.388C351.395 298.271 337.404 283.058 337.655 281.137C337.973 278.908 338.141 253.123 338.141 253.123L357.846 252.184Z" fill="#146CFD"/>
<path d="M357.6 303.22L337.803 279.332L337.736 280.455C337.683 281.426 337.979 282.385 338.572 283.158C340.145 285.237 344.605 290.868 355.19 302.372C355.497 302.696 355.88 302.942 356.304 303.087C356.728 303.232 357.182 303.272 357.625 303.203L357.6 303.22Z" fill="#E0E0E0"/>
<path d="M352.222 291.291C352.364 291.375 353.059 290.019 354.682 289.37C356.305 288.721 357.736 289.137 357.778 288.971C357.82 288.805 357.485 288.688 356.866 288.563C356.053 288.416 355.214 288.512 354.456 288.838C353.692 289.151 353.035 289.676 352.565 290.352C352.222 290.876 352.155 291.267 352.222 291.291Z" fill="#22272B"/>
<path d="M353.902 294.941C354.019 295.066 354.923 294.259 356.329 293.951C357.734 293.643 358.898 293.951 358.948 293.768C358.998 293.585 357.785 293.003 356.195 293.385C354.605 293.768 353.768 294.866 353.902 294.941Z" fill="#22272B"/>
<path d="M348.965 286.533C349.082 286.666 350.471 285.418 352.605 284.745C354.739 284.071 356.596 284.246 356.613 284.071C356.63 283.896 354.714 283.447 352.429 284.196C350.145 284.944 348.848 286.458 348.965 286.533Z" fill="#22272B"/>
<path d="M348.966 278.449C349.033 278.616 350.539 278.092 352.455 278.141C354.371 278.191 355.861 278.732 355.927 278.574C355.994 278.416 354.53 277.584 352.463 277.559C350.397 277.534 348.89 278.324 348.966 278.449Z" fill="#22272B"/>
<path d="M349.427 270.656C349.494 270.814 351.034 270.024 353.042 270.232C355.05 270.44 356.389 271.471 356.523 271.33C356.657 271.188 356.297 270.931 355.686 270.54C354.903 270.041 354.01 269.739 353.084 269.658C352.158 269.566 351.223 269.694 350.356 270.032C349.72 270.332 349.385 270.656 349.427 270.656Z" fill="#22272B"/>
<path d="M345.495 180.826C350.749 174.355 361.911 173.764 367.635 179.944C369.425 181.874 371.475 184.652 371.216 187.846C370.07 202.36 366.815 227.895 365.71 238.167C364.397 250.46 361.761 270.772 361.761 270.772L333.571 268.659C333.571 268.659 339.554 208.016 340.65 200.381C341.495 195.046 342.671 189.768 344.172 184.577L345.495 180.826Z" fill="#22272B"/>
<path d="M381.735 169.105C381.049 168.656 349.855 157.119 344.416 155.996C338.977 154.873 333.881 154.25 327.765 159.881C320.301 166.759 306.696 249.028 306.696 249.028C306.696 249.028 329.698 252.896 329.698 252.447C329.698 251.997 345.428 185.074 345.428 185.074L373.041 202.641L388.445 179.901L381.735 169.105Z" fill="#22272B"/>
<path d="M338.775 211.359C338.804 211.292 338.823 211.223 338.834 211.151L338.959 210.536C339.06 209.962 339.202 209.171 339.378 208.165C339.721 206.069 340.214 203.1 340.808 199.432C341.493 195.111 342.398 190.827 343.519 186.598C344.158 184.08 345.219 181.687 346.657 179.519C348.302 177.146 350.638 175.329 353.351 174.313C356.187 173.36 359.259 173.36 362.095 174.313C364.688 175.12 367.005 176.625 368.789 178.663C370.214 180.525 371.026 182.779 371.115 185.117C371.224 187.14 371.224 189.166 371.115 191.189C370.864 194.899 370.278 197.885 370.119 199.964C370.019 201.004 369.986 201.81 369.96 202.359V202.991C369.951 203.06 369.951 203.13 369.96 203.199C369.975 203.131 369.975 203.06 369.96 202.991L370.011 202.368C370.061 201.819 370.128 201.012 370.262 199.981C370.479 197.909 371.098 194.94 371.4 191.206C371.533 189.17 371.555 187.13 371.467 185.092C371.389 182.684 370.561 180.359 369.099 178.438C367.268 176.322 364.876 174.76 362.195 173.93C359.257 172.94 356.072 172.94 353.134 173.93C350.325 174.97 347.911 176.85 346.222 179.311C344.757 181.514 343.685 183.95 343.051 186.514C341.945 190.76 341.068 195.06 340.423 199.398C339.888 203.066 339.453 206.052 339.143 208.157C339.001 209.163 338.884 209.953 338.809 210.536L338.725 211.151C338.735 211.222 338.751 211.291 338.775 211.359Z" fill="#495054"/>
<path d="M358.028 160.438C358.028 160.438 358.146 160.512 358.388 160.62L359.468 161.061C360.405 161.436 361.769 161.96 363.451 162.6C366.797 163.881 371.508 165.586 376.679 167.466C381.85 169.346 386.511 171.101 389.866 172.456L393.824 174.045L394.904 174.469C395.03 174.524 395.162 174.566 395.297 174.594C395.297 174.594 395.18 174.511 394.945 174.394L393.891 173.887C392.979 173.463 391.64 172.872 389.975 172.174C386.628 170.776 382.001 168.98 376.83 167.092C371.659 165.203 366.956 163.548 363.559 162.351L359.526 160.937L358.422 160.562C358.295 160.509 358.163 160.467 358.028 160.438Z" fill="#495054"/>
<path d="M336.215 143.93C336.215 143.93 326.417 143.988 323.948 144.936C321.48 145.884 309.004 151.881 307.64 154.476C306.276 157.071 302.98 161.696 302.57 164.008C302.16 166.32 301.733 173.274 301.733 173.274C302.554 173.228 303.33 172.883 303.912 172.305C304.494 171.726 304.841 170.955 304.887 170.138L305.85 173.274C305.85 173.274 308.452 173.956 308.862 172.184C308.862 172.184 310.368 174.089 311.054 169.731C311.403 167.839 311.632 165.928 311.74 164.008L313.799 161.014L312.711 165.023L313.255 171.103C313.255 171.103 315.447 171.103 315.589 169.198C315.745 167.78 316.066 166.385 316.543 165.04L319.288 160.764C319.288 160.764 326.216 157.18 327.764 155.449C328.473 154.776 329.059 153.985 329.496 153.112L336.332 155.383L336.215 143.93Z" fill="#FFBF9D"/>
<path d="M315.941 157.938C315.185 158.283 314.558 158.856 314.15 159.576C313.741 160.295 313.571 161.125 313.665 161.947C313.79 161.947 313.891 160.89 314.502 159.792C315.113 158.694 316.016 158.046 315.941 157.938Z" fill="#9B5C40"/>
<path d="M310.754 157.629C310.315 158.238 309.963 158.904 309.708 159.608C308.313 162.966 307.803 166.622 308.227 170.23C308.278 170.98 308.436 171.719 308.696 172.426C308.682 171.683 308.629 170.942 308.537 170.205C308.292 166.647 308.788 163.076 309.992 159.717C310.286 159.036 310.541 158.339 310.754 157.629Z" fill="#9B5C40"/>
<path d="M306.401 157.727C305.993 158.4 305.678 159.124 305.464 159.881C304.291 163.509 304.144 167.387 305.038 171.093C305.192 171.864 305.451 172.612 305.807 173.314C305.874 173.314 305.615 172.432 305.339 171.026C304.99 169.196 304.847 167.332 304.912 165.47C304.98 163.612 305.26 161.767 305.749 159.972C306.142 158.583 306.468 157.752 306.401 157.727Z" fill="#9B5C40"/>
<path d="M252.234 96.1846L232.728 85.6896L213.425 83.0703L195.722 150.048L197.349 170.695L247.291 173.367L245.258 125.314L252.234 96.1846Z" fill="#EBEBEB"/>
<path d="M218.492 47.7289C223.028 44.957 228.227 43.4386 233.551 43.3304C238.874 43.2223 244.131 44.5283 248.777 47.1137C248.777 47.1137 248.61 52.7563 248.301 59.3042C248.254 60.313 246.885 60.9591 246.831 61.9935C246.76 63.3439 247.457 67.3907 247.376 68.7167C247.168 72.0977 244.898 75.6129 243.739 77.7451C239.874 84.8525 237.468 84.2327 237.468 84.2327L237.114 87.3267C236.787 90.1509 235.353 92.7332 233.124 94.5135C230.894 96.2939 228.048 97.1287 225.203 96.8372C222.451 96.553 219.911 95.2349 218.103 93.152C216.296 91.0691 215.356 88.3786 215.477 85.6302L217.086 48.6079L218.492 47.7289Z" fill="#C57657"/>
<path d="M237.512 84.1244C233.554 83.7832 229.787 82.2811 226.689 79.8086C226.689 79.8086 228.678 86.2075 237.299 86.3306L237.512 84.1244Z" fill="#AA6550"/>
<path d="M217.246 57.5083C217.105 57.4292 211.552 55.1614 211.118 61.0242C210.685 66.8869 216.671 66.0871 216.698 65.9201C216.724 65.7531 217.246 57.5083 217.246 57.5083Z" fill="#C57657"/>
<path d="M215.06 63.5469C215.06 63.5469 214.953 63.6172 214.777 63.6788C214.532 63.7738 214.261 63.7738 214.016 63.6788C213.653 63.4126 213.368 63.0546 213.19 62.6419C213.013 62.2292 212.95 61.7769 213.008 61.3319C213.026 60.831 213.159 60.3408 213.397 59.8992C213.467 59.7202 213.579 59.5605 213.723 59.4335C213.868 59.3065 214.041 59.216 214.228 59.1696C214.348 59.1506 214.471 59.1724 214.577 59.2314C214.683 59.2904 214.766 59.3833 214.812 59.4949C214.874 59.6619 214.812 59.7761 214.812 59.7937C214.812 59.8113 214.953 59.7058 214.918 59.4597C214.898 59.3111 214.826 59.1743 214.715 59.073C214.56 58.9415 214.36 58.8752 214.158 58.8884C213.914 58.9179 213.681 59.0095 213.483 59.1542C213.285 59.2989 213.127 59.4919 213.026 59.7146C212.738 60.201 212.574 60.7503 212.548 61.3143C212.478 61.8334 212.566 62.3613 212.799 62.8309C213.032 63.3005 213.4 63.6906 213.857 63.9513C214.011 64.0087 214.176 64.0307 214.34 64.0154C214.504 64.0002 214.662 63.9482 214.803 63.8633C215.042 63.6876 215.086 63.5469 215.06 63.5469Z" fill="#AA6550"/>
<path d="M244.718 61.0968C244.686 61.4132 244.532 61.7049 244.287 61.9101C244.043 62.1152 243.728 62.2176 243.409 62.1955C243.253 62.191 243.099 62.1556 242.957 62.0915C242.815 62.0275 242.687 61.9359 242.581 61.8222C242.475 61.7084 242.392 61.5749 242.339 61.4292C242.285 61.2835 242.261 61.1287 242.268 60.9737C242.297 60.6557 242.451 60.3618 242.695 60.1548C242.94 59.9478 243.256 59.8442 243.577 59.8662C243.733 59.8718 243.887 59.9082 244.029 59.9733C244.171 60.0383 244.299 60.1307 244.405 60.2451C244.511 60.3595 244.593 60.4937 244.647 60.6399C244.701 60.786 244.725 60.9413 244.718 61.0968Z" fill="#22272B"/>
<path d="M245.893 58.9335C245.725 59.0741 244.868 58.2919 243.55 58.16C242.233 58.0282 241.207 58.5819 241.083 58.4061C240.959 58.2303 241.198 58.0545 241.658 57.7996C242.252 57.4691 242.934 57.3279 243.612 57.3953C244.296 57.4645 244.94 57.7476 245.451 58.204C245.867 58.5643 245.973 58.8632 245.893 58.9335Z" fill="#22272B"/>
<path d="M231.595 60.296C231.566 60.6116 231.414 60.9033 231.171 61.1087C230.928 61.314 230.614 61.4167 230.296 61.3947C230.139 61.3925 229.983 61.3589 229.84 61.2957C229.696 61.2325 229.567 61.1412 229.459 61.0271C229.352 60.913 229.269 60.7785 229.215 60.6317C229.161 60.485 229.138 60.3289 229.146 60.1729C229.175 59.8549 229.329 59.561 229.573 59.354C229.818 59.147 230.134 59.0434 230.455 59.0654C230.612 59.0687 230.767 59.1035 230.91 59.1677C231.054 59.2319 231.182 59.3243 231.289 59.4392C231.395 59.5541 231.477 59.6892 231.53 59.8365C231.583 59.9837 231.605 60.14 231.595 60.296Z" fill="#22272B"/>
<path d="M232.939 57.8281C232.771 57.9687 231.913 57.1864 230.596 57.0546C229.278 56.9227 228.252 57.4765 228.12 57.3007C227.987 57.1249 228.244 56.9491 228.695 56.6942C229.306 56.3587 230.008 56.2204 230.702 56.2987C231.384 56.3736 232.026 56.656 232.541 57.1073C232.912 57.4589 233.001 57.7665 232.939 57.8281Z" fill="#22272B"/>
<path d="M238.815 68.7425C238.086 68.7053 237.355 68.7615 236.64 68.9095C237.34 69.0544 238.056 69.1163 238.771 69.0941C238.961 69.1198 239.125 69.1373 239.345 69.0941C239.808 69.0033 240.173 68.8303 240.333 68.4023C240.494 67.9742 240.638 67.3698 240.333 66.1836C240.121 65.3574 239.891 64.4784 239.652 63.5467C238.662 59.7847 237.338 57.9224 237.188 57.9575C237.038 57.9927 238.105 59.9253 239.104 63.6873C239.352 64.5663 239.599 65.4453 239.829 66.3242C240.103 67.3698 239.919 67.874 239.874 68.1381C239.829 68.4023 239.345 68.7425 238.815 68.7425Z" fill="#22272B"/>
<path d="M247.552 36.281C247.836 36.3502 248.103 36.4762 248.337 36.6513C248.574 36.8294 248.772 37.0545 248.917 37.3121C249.063 37.5697 249.153 37.8543 249.182 38.148C249.211 38.4417 249.178 38.7382 249.086 39.0188L248.566 40.6012L249.872 39.5666C250.198 39.3077 250.607 39.1722 251.026 39.1847C251.441 39.1972 251.838 39.3547 252.147 39.6288C252.468 39.9416 252.704 40.3297 252.833 40.7569C252.963 41.1864 252.98 41.6415 252.884 42.0796C252.658 43.053 252.144 43.9371 251.406 44.6172L251.069 44.9278L251.349 45.2904C251.586 45.5972 251.728 45.9655 251.758 46.3504C251.788 46.7336 251.706 47.1172 251.522 47.4553C251.088 48.2015 250.427 48.7922 249.634 49.1418L249.626 49.1453L249.618 49.149C248.916 49.4872 248.166 49.7165 247.394 49.829H247.351H247.297H247.068H247.038L247.009 49.8324C244.494 50.1311 239.971 49.7041 236.79 47.6503C232.507 44.8707 229.671 43.9435 227.71 43.8623C226.721 43.8213 225.962 43.9957 225.362 44.2484C224.818 44.4776 224.418 44.7678 224.133 44.9739C224.108 44.9924 224.083 45.0102 224.059 45.0272C223.787 45.2234 223.628 45.5369 223.521 45.8249C223.409 46.1266 223.323 46.4894 223.245 46.8714C223.192 47.1345 223.142 47.4083 223.091 47.691C222.987 48.2596 222.877 48.8643 222.719 49.4901C222.248 51.3556 221.429 53.0475 219.498 53.5734L219.121 53.676L219.13 54.0662V54.0663L219.13 54.0665L219.13 54.0666L219.13 54.0692L219.13 54.0812L219.13 54.1321C219.13 54.1775 219.13 54.2452 219.129 54.332C219.126 54.5056 219.118 54.7546 219.098 55.0528C219.058 55.6518 218.969 56.4365 218.779 57.2012C218.585 57.9747 218.299 58.6791 217.894 59.1576C217.509 59.6119 217.021 59.8633 216.337 59.7824L216.278 60.2789L216.337 59.7824C216.099 59.7543 215.834 59.5664 215.59 59.0018C215.349 58.4461 215.185 57.6445 215.093 56.6612C214.91 54.7199 215.016 52.2225 215.215 49.9042C215.267 49.7324 215.266 49.5798 215.266 49.4904C215.266 49.4855 215.266 49.4808 215.266 49.4764V49.4118L215.25 49.3494C214.923 48.1036 214.735 46.8257 214.691 45.5389L214.691 45.5295L214.691 45.5295C214.592 43.6762 215.196 41.8532 216.385 40.4212C216.964 39.7545 217.733 39.2776 218.591 39.0538C219.45 38.8297 220.358 38.8705 221.194 39.1707L221.613 39.3213L221.811 38.9223C223.041 36.4419 225.212 34.5478 227.848 33.6571C230.484 32.7664 233.368 32.9525 235.865 34.1742L247.552 36.281ZM247.552 36.281C246.994 36.1899 246.438 36.3249 245.787 36.5455C245.666 36.5866 245.54 36.6314 245.41 36.6775C244.872 36.8688 244.265 37.0844 243.639 37.1656L243.639 37.1658L243.625 37.1672C242.144 37.3168 240.654 36.987 239.377 36.2266C238.813 35.9273 238.272 35.59 237.75 35.2641C237.697 35.2312 237.645 35.1985 237.593 35.1659C237.012 34.8041 236.45 34.4607 235.866 34.1743L247.552 36.281Z" fill="#CDD3D6" stroke="#9B9B9B"/>
<path d="M239.027 73.9736C238.97 74.5262 238.836 75.0682 238.63 75.5845C238.519 75.8429 238.354 76.0747 238.146 76.2643C237.937 76.454 237.69 76.5971 237.422 76.684C237.128 76.7519 236.821 76.7439 236.531 76.6607C236.241 76.5776 235.977 76.422 235.765 76.2089C235.341 75.7729 235.068 75.2142 234.985 74.6136C234.891 74.0797 235 73.3962 235.509 73.22C235.73 73.1665 235.96 73.1673 236.18 73.2222L239.201 73.7407" fill="#AA6550"/>
<path d="M238.419 76.4891C237.926 76.6308 237.411 76.6772 236.9 76.6259C236.372 76.542 235.893 76.2673 235.555 75.8544C235.361 75.6017 235.223 75.3115 235.15 75.0024C235.076 74.6933 235.069 74.3723 235.128 74.0601C235.158 73.8988 235.209 73.742 235.28 73.5937C235.365 73.455 235.351 73.4688 235.468 73.4581C235.631 73.4762 235.792 73.5037 235.951 73.5403L236.443 73.6197L238.165 73.8977C238.695 74.0176 239.239 74.0606 239.781 74.0253C239.295 73.7853 238.773 73.625 238.236 73.5505C237.75 73.4322 237.177 73.3052 236.54 73.1809L236.051 73.082C235.869 73.0355 235.684 73.0033 235.498 72.9857C235.355 72.9843 235.216 73.0298 235.103 73.115C234.99 73.1926 234.9 73.2988 234.842 73.4227C234.753 73.6111 234.687 73.8098 234.647 74.0141C234.573 74.3971 234.585 74.7916 234.683 75.1692C234.781 75.5468 234.962 75.8982 235.213 76.1979C235.419 76.4383 235.671 76.6354 235.955 76.7777C236.239 76.9199 236.548 77.0043 236.866 77.0261C237.282 77.0682 237.703 76.9945 238.08 76.8132C238.326 76.6306 238.436 76.5114 238.419 76.4891Z" fill="#22272B"/>
<path d="M224.337 44.6073C224.342 44.262 224.378 43.9179 224.444 43.5789C224.692 42.6663 225.255 41.8697 226.035 41.3287C227.2 40.5334 228.63 40.2183 230.023 40.4497C231.728 40.7412 233.377 41.2926 234.913 42.0846C235.797 42.4626 236.584 42.8229 237.424 43.1042C238.227 43.3678 239.053 43.5561 239.891 43.6668C241.315 43.8506 242.759 43.812 244.171 43.5525C245.118 43.3628 246.04 43.068 246.921 42.6735C247.239 42.5417 247.469 42.4186 247.628 42.3395L247.867 42.1989C247.867 42.1989 247.522 42.3483 246.886 42.5856C245.996 42.9226 245.075 43.1728 244.136 43.3327C241.917 43.7122 239.638 43.537 237.504 42.8229C236.682 42.5505 235.859 42.1901 235.01 41.8121C233.455 41.0077 231.78 40.4558 230.05 40.1772C228.604 39.9438 227.124 40.2848 225.929 41.1265C225.128 41.699 224.565 42.5431 224.346 43.4998C224.257 43.8632 224.254 44.2424 224.337 44.6073Z" fill="#495054"/>
<path d="M216.203 58.2746C216.203 58.2746 216.256 58.2219 216.336 58.1076C216.415 57.9933 216.521 57.8175 216.654 57.589C217.021 56.9426 217.318 56.2589 217.538 55.5498C217.885 54.4924 218.078 53.3915 218.113 52.28C218.088 50.932 217.973 49.5871 217.768 48.2543C217.563 46.9381 217.7 45.5917 218.166 44.3429C218.388 43.8122 218.723 43.3355 219.148 42.9453C219.522 42.617 219.971 42.3846 220.456 42.2685C221.17 42.0867 221.926 42.1843 222.57 42.541C222.787 42.7004 222.991 42.8767 223.18 43.0684C223.045 42.8253 222.854 42.6175 222.623 42.4619C222.299 42.257 221.938 42.1187 221.559 42.0553C221.181 41.9919 220.794 42.0046 220.421 42.0927C219.899 42.2039 219.412 42.4425 219.006 42.7871C218.553 43.1917 218.194 43.6896 217.954 44.2462C217.458 45.5272 217.305 46.9146 217.512 48.2719C217.72 49.5987 217.841 50.9375 217.874 52.28C217.854 53.3701 217.684 54.4524 217.37 55.497C217.156 56.2018 216.88 56.887 216.548 57.545C216.3 58.0285 216.15 58.2746 216.203 58.2746Z" fill="#495054"/>
<path d="M223.585 43.832C223.595 43.7179 223.595 43.6032 223.585 43.4892C223.585 43.243 223.585 42.9178 223.656 42.5135C223.718 41.3086 223.975 40.1216 224.416 38.9976C224.737 38.2395 225.203 37.5501 225.787 36.9672C226.449 36.2946 227.31 35.8509 228.245 35.7015C229.283 35.5757 230.336 35.7274 231.296 36.1409C232.333 36.5926 233.312 37.165 234.214 37.8461C235.126 38.5341 236.086 39.1568 237.087 39.7096C238.044 40.2023 239.079 40.5265 240.147 40.6677C241.114 40.7875 242.094 40.7697 243.056 40.6149C243.887 40.4668 244.7 40.228 245.479 39.903C246.602 39.4206 247.621 38.7249 248.476 37.8549C248.714 37.6261 248.93 37.376 249.122 37.1078C249.197 37.0216 249.262 36.9272 249.316 36.8265C249.232 36.9009 249.155 36.9833 249.087 37.0727C248.876 37.3246 248.648 37.5625 248.406 37.7846C247.535 38.6146 246.519 39.2789 245.408 39.7447C244.639 40.0519 243.839 40.273 243.021 40.404C242.079 40.5409 241.123 40.5409 240.182 40.404C239.142 40.2615 238.134 39.9434 237.202 39.4635C236.213 38.9053 235.262 38.2828 234.355 37.6C233.44 36.8962 232.443 36.3058 231.384 35.8421C230.385 35.4136 229.288 35.2618 228.21 35.4026C227.232 35.5667 226.333 36.038 225.645 36.7474C225.046 37.3517 224.574 38.0689 224.257 38.857C223.829 39.9825 223.59 41.1703 223.55 42.3729C223.55 42.8036 223.55 43.1376 223.55 43.3573C223.546 43.5163 223.558 43.6752 223.585 43.832Z" fill="#495054"/>
<path d="M276.003 268.711L278.77 293.41L286.64 312.299C286.773 312.622 286.838 312.968 286.832 313.317C286.825 313.666 286.746 314.009 286.6 314.327C286.454 314.644 286.244 314.928 285.983 315.161C285.723 315.395 285.416 315.572 285.084 315.683C284.698 315.815 284.285 315.852 283.882 315.79C283.479 315.729 283.096 315.572 282.767 315.332C278.496 312.238 262.845 300.767 262.739 298.948C262.624 296.838 258.07 273.079 258.07 273.079L276.003 268.711Z" fill="#F3631B"/>
<g opacity="0.6">
<path d="M285.082 315.698L262.516 297.301L262.658 298.338C262.777 299.241 263.216 300.073 263.896 300.685C265.717 302.311 270.855 306.688 282.686 315.364C283.026 315.612 283.423 315.772 283.842 315.83C284.26 315.889 284.686 315.843 285.082 315.698Z" fill="white"/>
</g>
<g opacity="0.6">
<path d="M266.524 288.673C266.86 288.855 267.116 289.154 267.244 289.513C267.371 289.871 267.36 290.264 267.213 290.616C267.043 290.955 266.748 291.217 266.389 291.346C266.03 291.476 265.635 291.463 265.286 291.31C264.932 291.116 264.663 290.798 264.53 290.418C264.398 290.039 264.412 289.623 264.569 289.253C264.781 288.916 265.117 288.676 265.506 288.582C265.894 288.488 266.304 288.549 266.647 288.752" fill="white"/>
</g>
<path d="M277.957 305.697C278.107 305.749 278.496 304.387 279.876 303.49C281.255 302.594 282.643 302.726 282.652 302.567C282.661 302.409 282.325 302.356 281.768 302.348C280.994 302.37 280.243 302.611 279.602 303.042C278.95 303.471 278.443 304.083 278.143 304.8C277.886 305.319 277.895 305.688 277.957 305.697Z" fill="#22272B"/>
<path d="M280.178 308.783C280.311 308.871 280.992 307.965 282.23 307.429C283.007 307.173 283.798 306.962 284.599 306.796C284.661 306.656 283.397 306.295 282 306.928C280.603 307.561 280.037 308.713 280.178 308.783Z" fill="#22272B"/>
<path d="M274.103 301.918C274.236 302.015 275.288 300.618 277.127 299.616C278.966 298.614 280.664 298.438 280.664 298.271C280.664 298.104 278.807 298.033 276.844 299.15C274.881 300.266 273.97 301.866 274.103 301.918Z" fill="#22272B"/>
<path d="M272.626 294.471C272.715 294.612 274.006 293.865 275.774 293.592C277.543 293.32 279.019 293.531 279.055 293.364C277.979 292.961 276.814 292.855 275.682 293.056C274.551 293.257 273.495 293.758 272.626 294.506V294.471Z" fill="#22272B"/>
<path d="M271.624 287.246C271.721 287.377 272.986 286.367 274.878 286.2C276.022 286.17 277.165 286.3 278.273 286.586C278.273 286.525 277.999 286.252 277.389 285.997C276.576 285.686 275.7 285.572 274.834 285.663C273.964 285.742 273.127 286.028 272.393 286.498C271.836 286.868 271.58 287.193 271.624 287.246Z" fill="#22272B"/>
<path d="M274.649 284.839C274.692 284.523 274.661 284.201 274.56 283.899C274.356 283.057 273.99 282.263 273.481 281.561C273.154 281.014 272.653 280.59 272.058 280.356C271.854 280.295 271.636 280.298 271.435 280.366C271.234 280.434 271.059 280.563 270.935 280.734C270.715 281.079 270.63 281.492 270.696 281.895C270.864 282.715 271.315 283.451 271.97 283.977C272.625 284.503 273.444 284.786 274.286 284.778C275.122 284.755 275.931 284.485 276.61 284.001C277.29 283.516 277.808 282.841 278.097 282.062C278.172 281.867 278.203 281.658 278.188 281.45C278.172 281.242 278.111 281.039 278.009 280.857C277.886 280.685 277.711 280.555 277.509 280.487C277.307 280.419 277.089 280.416 276.886 280.479C276.297 280.692 275.775 281.056 275.374 281.534C274.773 282.16 274.288 282.886 273.941 283.679C273.789 283.949 273.698 284.249 273.676 284.558C274.191 283.54 274.856 282.604 275.648 281.78C276.015 281.381 276.477 281.079 276.992 280.901C277.102 280.866 277.221 280.866 277.33 280.902C277.44 280.939 277.536 281.009 277.602 281.104C277.658 281.23 277.686 281.366 277.686 281.503C277.686 281.641 277.658 281.777 277.602 281.903C277.327 282.562 276.869 283.129 276.282 283.539C275.695 283.948 275.002 284.183 274.286 284.215C273.574 284.221 272.882 283.987 272.322 283.551C271.761 283.115 271.366 282.503 271.2 281.816C271.143 281.536 271.19 281.246 271.333 280.998C271.398 280.902 271.492 280.828 271.601 280.789C271.711 280.749 271.831 280.746 271.943 280.778C272.446 280.974 272.876 281.321 273.172 281.772C273.845 282.698 274.346 283.737 274.649 284.839Z" fill="#22272B"/>
<path d="M161.98 269.623L162.776 288.583C162.776 288.583 143.659 295.764 143.464 299.28L180.496 299.06V269.465L161.98 269.623Z" fill="#F3631B"/>
<path d="M174.217 286.92C174.574 287.028 174.878 287.262 175.074 287.578C175.269 287.894 175.342 288.269 175.278 288.634C175.182 288.991 174.954 289.298 174.638 289.494C174.323 289.69 173.945 289.76 173.581 289.689C173.201 289.576 172.878 289.328 172.672 288.992C172.466 288.656 172.393 288.256 172.466 287.87C172.609 287.511 172.885 287.22 173.237 287.056C173.589 286.893 173.99 286.869 174.359 286.991" fill="#E0E0E0"/>
<g opacity="0.6">
<path d="M180.496 299.062L180.381 296.082L144.914 297.4C144.914 297.4 143.269 298.13 143.464 299.281L180.496 299.062Z" fill="white"/>
</g>
<path d="M162.175 288.398C162.175 288.582 163.059 288.661 163.943 289.233C164.827 289.804 165.314 290.56 165.482 290.481C165.65 290.402 165.376 289.373 164.279 288.723C163.183 288.072 162.139 288.239 162.175 288.398Z" fill="#22272B"/>
<path d="M158.301 290.026C158.257 290.201 159.044 290.5 159.663 291.256C160.282 292.012 160.468 292.812 160.645 292.803C160.821 292.794 160.936 291.784 160.149 290.852C159.362 289.92 158.301 289.85 158.301 290.026Z" fill="#22272B"/>
<path d="M156.072 294.656C156.24 294.656 156.487 293.777 156.019 292.81C155.55 291.843 154.701 291.448 154.621 291.597C154.542 291.746 155.072 292.265 155.444 293.083C155.815 293.9 155.939 294.638 156.072 294.656Z" fill="#22272B"/>
<path d="M162.473 284.066C162.553 284.225 163.358 283.97 164.401 284.066C165.445 284.163 166.223 284.444 166.32 284.286C166.417 284.128 165.639 283.495 164.437 283.407C163.234 283.319 162.385 283.926 162.473 284.066Z" fill="#22272B"/>
<path d="M162.386 280.233C162.993 280.404 163.635 280.404 164.243 280.233C164.91 280.108 165.56 279.904 166.179 279.626C166.546 279.462 166.901 279.271 167.24 279.055C167.447 278.941 167.635 278.796 167.797 278.624C167.914 278.495 167.985 278.331 167.998 278.157C168.011 277.984 167.965 277.811 167.868 277.666C167.779 277.541 167.661 277.439 167.524 277.369C167.387 277.299 167.235 277.262 167.081 277.262C166.844 277.259 166.609 277.291 166.382 277.359C165.318 277.627 164.337 278.153 163.526 278.888C162.642 279.679 162.386 280.356 162.447 280.391C162.509 280.426 162.943 279.881 163.809 279.222C164.318 278.842 164.874 278.529 165.463 278.29C165.806 278.149 166.161 278.037 166.524 277.956C166.913 277.851 167.249 277.842 167.355 278.018C167.461 278.194 167.355 278.115 167.355 278.229C167.235 278.353 167.098 278.459 166.948 278.545C166.631 278.749 166.303 278.937 165.967 279.108C165.402 279.396 164.809 279.629 164.198 279.802C163.584 279.9 162.978 280.044 162.386 280.233Z" fill="#22272B"/>
<path d="M162.627 280.49C162.967 279.968 163.134 279.353 163.104 278.732C163.132 278.051 163.043 277.37 162.839 276.719C162.718 276.332 162.558 275.958 162.362 275.603C162.259 275.36 162.096 275.147 161.887 274.985C161.678 274.824 161.43 274.718 161.168 274.68C161.004 274.687 160.845 274.739 160.709 274.83C160.573 274.922 160.466 275.049 160.399 275.198C160.303 275.413 160.241 275.642 160.213 275.875C160.151 276.286 160.151 276.704 160.213 277.114C160.322 277.803 160.598 278.455 161.018 279.013C161.751 279.962 162.503 280.173 162.521 280.112C162.538 280.05 161.946 279.681 161.389 278.767C161.063 278.231 160.858 277.631 160.788 277.009C160.739 276.656 160.739 276.298 160.788 275.945C160.841 275.55 160.982 275.233 161.133 275.277C161.283 275.321 161.637 275.567 161.787 275.875C161.973 276.193 162.127 276.529 162.247 276.877C162.46 277.468 162.585 278.087 162.618 278.714C162.715 279.778 162.521 280.463 162.627 280.49Z" fill="#22272B"/>
<path d="M281.805 278.292L276.756 197.373C275.871 185.006 273.802 179.363 263.775 174.467L259.486 171.505L214.929 167.418L212.179 197.066L246.992 204.809L256.117 282.414L281.805 278.292Z" fill="#22272B"/>
<path d="M212.18 197.065L189.95 206.18L185.131 276.656L156.34 273.14L158.108 196.907C158.176 194.089 158.84 191.317 160.059 188.773C161.278 186.228 163.024 183.968 165.182 182.14L185.255 165.035L214.912 167.417L217.008 198.137L212.18 197.065Z" fill="#22272B"/>
<path d="M246.043 194.816C246.093 197.574 246.3 200.327 246.662 203.061C246.876 205.809 247.239 208.544 247.75 211.253C247.694 208.496 247.485 205.743 247.122 203.008C246.913 200.26 246.553 197.525 246.043 194.816Z" fill="#495054"/>
<path d="M250.352 182.113L250.591 182.271L251.316 182.693L254.128 184.267L264.5 189.971L264.412 189.839C264.898 199.227 265.561 212.025 266.287 226.123C267.047 240.591 267.799 253.679 268.426 263.146C268.754 267.857 269.028 271.681 269.213 274.361C269.32 275.662 269.408 276.682 269.461 277.412L269.541 278.203C269.542 278.292 269.557 278.381 269.585 278.466C269.597 278.376 269.597 278.284 269.585 278.194C269.585 277.995 269.585 277.731 269.585 277.403C269.585 276.673 269.488 275.645 269.417 274.353C269.266 271.672 269.045 267.839 268.771 263.128C268.258 253.626 267.551 240.547 266.773 226.097C266.039 211.99 265.34 199.183 264.766 189.822V189.725L264.686 189.681C260.265 187.343 256.728 185.436 254.243 184.1L251.387 182.606L250.644 182.228L250.352 182.113Z" fill="#495054"/>
<path d="M190.981 191.52C190.545 193.996 190.268 196.497 190.15 199.008C189.873 201.504 189.749 204.013 189.779 206.524C190.204 204.049 190.481 201.551 190.61 199.044C190.882 196.545 191.006 194.033 190.981 191.52Z" fill="#495054"/>
<path d="M189.95 206.18C190.677 204.835 191.269 203.422 191.718 201.961C192.328 200.547 192.79 199.074 193.098 197.566C192.373 198.913 191.781 200.326 191.329 201.785C190.721 203.2 190.259 204.673 189.95 206.18Z" fill="#495054"/>
<path d="M191.539 178.098C191.401 178.16 191.268 178.234 191.141 178.317L190.009 179.012L185.738 181.649L170.503 191.317L170.415 191.37V191.476C170.185 199.852 169.919 209.881 169.628 220.658C169.256 235.556 168.947 249.04 168.743 258.805C168.673 263.666 168.611 267.595 168.566 270.363V273.51C168.566 273.853 168.566 274.117 168.566 274.328C168.553 274.421 168.553 274.516 168.566 274.609C168.578 274.515 168.578 274.421 168.566 274.328C168.566 274.117 168.566 273.853 168.566 273.51C168.566 272.763 168.619 271.708 168.655 270.372C168.734 267.612 168.841 263.666 168.982 258.814C169.23 249.022 169.583 235.547 169.972 220.666C170.238 209.899 170.476 199.861 170.68 191.484L170.591 191.643L185.747 181.824L189.956 179.065L191.062 178.326C191.229 178.268 191.389 178.191 191.539 178.098Z" fill="#495054"/>
<path d="M214.99 193.785C214.418 194.266 213.907 194.815 213.469 195.42C212.941 195.957 212.52 196.589 212.231 197.283C212.329 197.363 213.054 196.668 213.832 195.71C214.61 194.752 215.14 193.864 214.99 193.785Z" fill="#495054"/>
<path d="M214.989 193.786C215.342 191.711 215.546 189.614 215.599 187.51C215.813 185.414 215.866 183.304 215.759 181.199C215.406 183.274 215.2 185.371 215.14 187.475C214.932 189.572 214.881 191.682 214.989 193.786Z" fill="#495054"/>
<path d="M245.189 200.781C245.189 200.904 245.419 201.071 245.772 201.159C246.126 201.247 246.444 201.212 246.471 201.089C246.497 200.966 246.241 200.798 245.887 200.711C245.533 200.623 245.215 200.667 245.189 200.781Z" fill="#495054"/>
<path d="M240.023 199.525C240.023 199.648 240.544 199.894 241.26 200.061C241.977 200.228 242.578 200.28 242.605 200.157C242.631 200.034 242.083 199.788 241.367 199.621C240.65 199.454 240.076 199.401 240.023 199.525Z" fill="#495054"/>
<path d="M234.858 198.276C234.858 198.399 235.389 198.636 236.096 198.812C236.804 198.988 237.414 199.023 237.44 198.9C237.467 198.777 236.919 198.54 236.203 198.364C235.486 198.188 234.894 198.153 234.858 198.276Z" fill="#495054"/>
<path d="M229.706 197.03C229.706 197.153 230.227 197.39 230.935 197.566C231.642 197.742 232.252 197.777 232.287 197.654C232.323 197.531 231.757 197.294 231.05 197.118C230.342 196.942 229.732 196.907 229.706 197.03Z" fill="#495054"/>
<path d="M224.541 195.775C224.541 195.898 225.063 196.144 225.779 196.311C226.496 196.478 227.088 196.53 227.123 196.407C227.159 196.284 226.602 196.038 225.885 195.871C225.169 195.704 224.568 195.651 224.541 195.775Z" fill="#495054"/>
<path d="M219.374 194.514C219.374 194.637 219.896 194.875 220.612 195.051C221.328 195.226 221.93 195.261 221.956 195.138C221.983 195.015 221.434 194.778 220.718 194.602C220.002 194.426 219.409 194.4 219.374 194.514Z" fill="#495054"/>
<path d="M215.513 193.582C215.513 193.705 215.743 193.881 216.096 193.96C216.45 194.039 216.768 194.022 216.795 193.898C216.822 193.775 216.565 193.608 216.211 193.521C215.858 193.433 215.539 193.459 215.513 193.582Z" fill="#495054"/>
<path d="M213.391 193.908C213.391 194.022 213.744 194.049 214.098 193.961C214.452 193.873 214.708 193.697 214.682 193.574C214.655 193.451 214.337 193.425 213.974 193.513C213.612 193.601 213.364 193.785 213.391 193.908Z" fill="#495054"/>
<path d="M208.491 195.394C208.491 195.509 209.11 195.394 209.782 195.227C210.454 195.06 210.967 194.744 210.932 194.621C210.896 194.498 210.313 194.577 209.641 194.788C208.969 194.999 208.447 195.254 208.491 195.394Z" fill="#495054"/>
<path d="M203.68 197.154C203.68 197.268 204.299 197.154 204.953 196.908C205.608 196.662 206.112 196.363 206.068 196.24C206.023 196.117 205.457 196.24 204.794 196.486C204.131 196.732 203.636 197.004 203.68 197.154Z" fill="#495054"/>
<path d="M198.978 199.148C199.04 199.262 199.597 199.148 200.242 198.831C200.888 198.515 201.365 198.216 201.312 198.102C201.259 197.988 200.702 198.102 200.057 198.418C199.411 198.735 198.925 199.034 198.978 199.148Z" fill="#495054"/>
<path d="M194.403 201.441C194.465 201.546 195.022 201.379 195.65 201.054C196.278 200.729 196.729 200.368 196.675 200.263C196.622 200.157 196.065 200.316 195.438 200.65C194.81 200.984 194.341 201.326 194.403 201.441Z" fill="#495054"/>
<path d="M191.025 203.357C191.096 203.463 191.396 203.401 191.715 203.217C192.033 203.032 192.236 202.795 192.166 202.68C192.095 202.566 191.794 202.636 191.485 202.821C191.175 203.006 190.963 203.243 191.025 203.357Z" fill="#495054"/>
<path d="M216.713 90.7184C216.713 90.7184 222.805 118.793 218.119 130.448C213.432 142.103 195.279 165.835 195.279 165.835L181.458 165.036C181.458 165.036 186.445 92.5555 187.648 91.0964C188.85 89.6373 215.705 81.9375 215.705 81.9375L216.713 90.7184Z" fill="#F3631B"/>
<path d="M198.517 181.069C198.517 181.069 166.375 169.572 163.758 163.067C157.436 147.421 180.293 94.1997 187.579 91.0969C194.866 87.9941 199.075 104.862 197.845 109.749C193.256 128.357 184.175 147.65 184.175 147.65L205.812 161.564L198.517 181.069Z" fill="#F3631B"/>
<path d="M234.832 110.625C236.203 104.999 238.519 88.8086 238.519 88.8086L254.966 97.3522C257.884 99.5233 264.578 107.091 264.578 115.714C264.578 131.263 262.359 166.694 259.485 171.502C255.948 177.391 240.995 186.445 240.995 186.445L230.437 170.307L234.77 166.914C232.179 161.842 226.45 150.31 225.769 146.487C224.867 141.529 233.718 115.204 234.832 110.625Z" fill="#F3631B"/>
<path d="M198.164 114.309C198.057 114.488 197.965 114.676 197.889 114.871C197.704 115.302 197.474 115.856 197.173 116.541C196.554 118.053 195.688 120.145 194.627 122.694C192.504 127.968 189.604 135.167 186.394 143.113C185.598 145.125 184.812 147.077 184.06 148.966L183.989 149.151L184.157 149.248L199.605 158.099L204.168 160.666C204.672 160.938 205.052 161.167 205.406 161.334C205.543 161.423 205.692 161.494 205.848 161.545C205.72 161.442 205.584 161.351 205.441 161.272L204.247 160.534L199.746 157.844L184.369 148.879L184.458 149.151C185.218 147.261 186.005 145.31 186.801 143.306C189.967 135.334 192.823 128.117 194.918 122.835C195.918 120.242 196.731 118.132 197.324 116.611C197.589 115.908 197.792 115.337 197.96 114.906C198.046 114.714 198.114 114.514 198.164 114.309Z" fill="#22272B"/>
<path d="M175.225 154.354C175.655 153.989 176.036 153.569 176.357 153.106C177.19 152.067 178.15 151.134 179.213 150.328C180.284 149.554 181.553 149.094 182.874 149.001C183.891 148.957 184.501 149.186 184.527 149.107C184.035 148.795 183.457 148.644 182.874 148.676C181.461 148.68 180.087 149.129 178.948 149.959C177.841 150.78 176.879 151.778 176.101 152.913C175.737 153.346 175.442 153.832 175.225 154.354Z" fill="#22272B"/>
<path d="M188.615 90.7969C189.527 91.2036 190.414 91.6675 191.267 92.1857C193.216 93.5644 194.8 95.392 195.883 97.5122C196.944 99.6508 197.763 101.9 198.324 104.219C198.534 105.192 198.812 106.149 199.155 107.084C199.163 106.815 199.134 106.546 199.066 106.284C198.978 105.775 198.845 105.045 198.642 104.14C198.162 101.768 197.372 99.4686 196.29 97.3013C195.182 95.1136 193.514 93.2551 191.453 91.9132C190.822 91.5255 190.148 91.2099 189.446 90.9727C189.18 90.87 188.899 90.8107 188.615 90.7969Z" fill="#22272B"/>
<path d="M242.624 157.528C242.624 157.528 242.695 157.405 242.792 157.142C242.889 156.878 243.013 156.465 243.163 156.017C243.49 154.953 243.933 153.538 244.472 151.824C245.551 148.308 247.01 143.386 248.601 137.971C250.193 132.557 251.608 127.635 252.607 124.066C253.084 122.308 253.491 120.91 253.765 119.847C253.889 119.381 253.986 118.968 254.066 118.687C254.112 118.554 254.136 118.414 254.137 118.273C254.065 118.394 254.012 118.524 253.978 118.66L253.597 119.794L252.298 123.978C251.21 127.494 249.751 132.416 248.159 137.839C246.568 143.263 245.153 148.176 244.154 151.736C243.676 153.494 243.269 154.891 242.995 155.964C242.871 156.421 242.783 156.843 242.695 157.115C242.655 157.25 242.632 157.388 242.624 157.528Z" fill="#22272B"/>
<path d="M242.533 90.8945C242.489 91.1034 242.456 91.3147 242.436 91.5274C242.383 91.9932 242.312 92.5909 242.224 93.3469C242.065 94.9905 241.835 97.2671 241.552 100.062C241.012 105.776 240.279 113.581 239.474 122.212C239.315 123.733 239.156 125.236 239.005 126.704L239.111 126.528L234.107 129.394L233.859 129.534L234.062 129.736L237.007 132.672L236.963 132.444C236.423 133.586 235.884 134.685 235.3 135.678C234.717 136.671 234.053 137.55 233.426 138.377C232.161 140.012 230.932 141.356 229.889 142.455L227.475 144.969L226.838 145.646C226.697 145.795 226.626 145.883 226.635 145.892C226.725 145.834 226.808 145.766 226.882 145.69L227.563 145.066C228.147 144.503 229.004 143.686 230.057 142.613C231.33 141.333 232.535 139.986 233.664 138.579C234.357 137.711 235.004 136.807 235.601 135.872C236.202 134.861 236.75 133.771 237.307 132.619L237.369 132.488L237.272 132.391L234.345 129.429L234.292 129.771L239.315 126.924L239.412 126.862V126.748C239.562 125.289 239.721 123.786 239.889 122.256C240.712 113.607 241.357 105.767 241.835 100.089C242.056 97.2935 242.233 95.0081 242.365 93.3644C242.41 92.6085 242.454 92.002 242.48 91.5362C242.523 91.3251 242.541 91.1097 242.533 90.8945Z" fill="#22272B"/>
<path d="M226.831 167.057L234.905 156.387L254.163 159.243L254.605 160.492L234.25 185.015L216.813 181.666L226.831 167.057Z" fill="#22272B"/>
<path d="M227.265 168.296L235.347 157.625L254.605 160.49L234.692 186.253L217.83 182.799L216.813 181.665L227.265 168.296Z" fill="#495054"/>
<path d="M243.285 163.911C243.118 164.009 242.924 164.055 242.73 164.043C242.536 164.032 242.35 163.963 242.195 163.847C242.04 163.73 241.923 163.57 241.86 163.387C241.797 163.204 241.789 163.007 241.839 162.82C241.889 162.633 241.994 162.465 242.14 162.337C242.286 162.209 242.467 162.127 242.66 162.102C242.852 162.077 243.048 162.109 243.223 162.195C243.397 162.28 243.542 162.416 243.639 162.583C243.768 162.806 243.803 163.071 243.737 163.319C243.671 163.568 243.508 163.78 243.285 163.911Z" fill="#EBEBEB"/>
<path d="M204.865 164.174L212.116 166.152C213.294 165.076 214.7 164.275 216.23 163.81C217.76 163.344 219.376 163.226 220.959 163.463L223.611 163.858L225.123 166.161C225.123 166.161 238.06 168.657 238.299 170.327L238.237 170.837V171.145L226.98 170.266C226.98 170.266 236.459 171.646 237.025 171.751C237.591 171.857 239.678 171.989 239.492 173.087C239.315 173.966 238.131 174.546 236.45 174.538C235.77 174.538 227.449 174.028 227.449 174.028L236.504 175.285C237.512 175.434 237.14 177.043 236.504 177.139C235.867 177.236 223.921 178.897 223.921 178.897C224.865 179.758 226.026 180.347 227.281 180.602C228.89 180.726 231.914 179.099 232.339 180.145C232.763 181.191 232.56 181.736 232.188 181.903C230.332 182.605 228.425 183.169 226.485 183.591C225.185 183.74 212.868 180.479 212.868 180.479L199.772 178.15L204.865 164.174Z" fill="#C57657"/>
<path d="M251.411 164.629C251.411 164.629 253.18 165.631 251.73 168.048C250.397 170.268 248.685 172.24 246.672 173.876C246.699 174.309 246.606 174.741 246.403 175.125C246.201 175.51 245.896 175.831 245.522 176.056C245.522 176.056 246.902 176.627 245.646 178.886C245.729 179.249 245.737 179.624 245.669 179.99C245.601 180.356 245.458 180.704 245.249 181.013C245.04 181.322 244.77 181.585 244.455 181.786C244.14 181.987 243.787 182.122 243.418 182.182C243.418 182.182 243.824 184.327 241.092 184.916C240.206 185.046 239.302 184.983 238.444 184.729C237.585 184.475 236.793 184.038 236.123 183.448L251.411 164.629Z" fill="#C57657"/>
<path d="M245.719 173.516C243.809 173.735 241.74 173.823 239.953 174.219C239.361 174.342 238.813 174.272 238.371 174.685C238.141 174.879 237.987 175.148 237.937 175.444C237.887 175.739 237.943 176.043 238.097 176.302C238.282 176.49 238.508 176.635 238.758 176.725C239.007 176.814 239.274 176.847 239.538 176.821C241.531 176.8 243.515 176.558 245.453 176.1" fill="#C57657"/>
<path d="M244.496 176.445C242.586 176.665 240.517 176.762 238.731 177.148C238.138 177.272 237.59 177.201 237.148 177.614C236.917 177.808 236.762 178.077 236.712 178.373C236.662 178.669 236.719 178.974 236.874 179.232C237.06 179.42 237.286 179.564 237.535 179.654C237.785 179.744 238.051 179.777 238.315 179.75C240.305 179.73 242.286 179.488 244.222 179.03" fill="#C57657"/>
<path d="M243.02 179.414C241.118 179.634 239.04 179.73 237.254 180.117C236.671 180.24 236.114 180.17 235.671 180.583C235.442 180.777 235.288 181.046 235.238 181.342C235.188 181.638 235.244 181.942 235.397 182.2C235.583 182.389 235.809 182.533 236.059 182.623C236.308 182.713 236.575 182.746 236.839 182.719C238.831 182.698 240.815 182.456 242.754 181.998" fill="#C57657"/>
<path d="M245.328 176.144C245.328 176.065 243.949 176.319 242.26 176.53C240.571 176.741 239.191 176.82 239.191 176.908C240.226 177.014 241.27 176.981 242.295 176.812C243.332 176.727 244.352 176.503 245.328 176.144Z" fill="#AA6550"/>
<path d="M245.266 178.878C245.266 178.798 243.701 179.062 241.729 179.326C240.559 179.434 239.396 179.604 238.245 179.836C239.429 179.891 240.615 179.814 241.782 179.607C242.967 179.493 244.135 179.248 245.266 178.878Z" fill="#AA6550"/>
<path d="M243.551 182.14C242.466 182.103 241.38 182.162 240.306 182.315C239.224 182.369 238.15 182.519 237.096 182.764C238.177 182.806 239.261 182.751 240.332 182.597C241.417 182.543 242.494 182.39 243.551 182.14Z" fill="#AA6550"/>
<path d="M247.293 173.368C247.293 173.289 245.578 173.597 243.455 173.816C241.333 174.036 239.609 174.089 239.609 174.177C239.984 174.25 240.368 174.274 240.75 174.247C242.58 174.239 244.405 174.048 246.197 173.676C246.576 173.633 246.947 173.529 247.293 173.368Z" fill="#C57657"/>
<path d="M229.52 166.969C228.024 166.582 226.507 166.288 224.975 166.09C223.454 165.814 221.919 165.626 220.376 165.527C221.875 165.913 223.396 166.206 224.93 166.406C226.446 166.691 227.979 166.879 229.52 166.969Z" fill="#AA6550"/>
<path d="M228.803 166.264C228.803 166.264 228.989 166.053 229.299 165.64L230.634 163.882C231.828 162.283 233.393 160.155 235.205 157.729H235.117L239.538 158.38L250.149 159.918L253.377 160.366L254.261 160.472C254.364 160.484 254.467 160.484 254.57 160.472L254.261 160.41L253.377 160.27L250.158 159.769L239.547 158.178L235.126 157.527H235.073C233.304 159.997 231.73 162.133 230.554 163.75L229.263 165.561C228.954 166.027 228.803 166.264 228.803 166.264Z" fill="#22272B"/>
<g opacity="0.3">
<path d="M200.832 158.48C200.416 156.352 198.966 155.113 196.959 154.278C194.952 153.443 192.715 152.67 191.556 150.841C190.088 148.538 190.911 145.567 191.556 142.93C192.856 137.736 196.11 124.868 195.765 119.523L184.27 149.136L200.832 158.48Z" fill="black"/>
</g>
<g opacity="0.3">
<path d="M204.955 152.57C204.602 152.167 204.333 151.698 204.163 151.191C203.993 150.685 203.926 150.149 203.964 149.616C204.043 148.549 204.242 147.493 204.557 146.47C205.565 142.541 205.786 138.471 206.175 134.437C206.485 131.167 206.883 128.424 206.865 128.644L211.1 126.438C210.239 125.971 209.452 125.378 208.766 124.68C208.766 124.68 209.65 121.823 209.818 120.953C209.818 120.953 211.737 111.284 212.259 108.199L212.038 121.823L215.672 127.475L209.818 129.532L205.972 150.988L204.955 152.57Z" fill="black"/>
</g>
<path d="M205.846 151.208C205.908 151.083 205.961 150.954 206.005 150.822C206.093 150.558 206.253 150.18 206.394 149.661C206.838 148.195 207.166 146.696 207.376 145.179C207.685 143.227 207.862 140.854 208.216 138.147C208.405 136.735 208.673 135.336 209.02 133.954C209.206 133.225 209.445 132.495 209.692 131.757L210.426 129.445L210.373 129.533C210.742 129.295 211.14 129.106 211.558 128.97C212 128.803 212.442 128.654 212.911 128.504C213.795 128.223 214.768 127.951 215.732 127.687L216.023 127.608L215.864 127.353L212.221 121.701V121.807C212.221 121.068 212.133 120.268 212.089 119.469C211.947 114.371 212.38 109.501 212.637 105.062C212.943 101.134 212.978 97.1903 212.743 93.2576C212.585 90.5978 212.098 87.9675 211.293 85.426C211.183 85.0228 211.041 84.6289 210.868 84.2482C210.736 83.9229 210.612 83.6417 210.515 83.3692C210.426 83.1317 210.316 82.9023 210.187 82.6836C210.252 82.9285 210.332 83.1692 210.426 83.4043C210.515 83.6505 210.621 83.9317 210.745 84.2833C210.9 84.6692 211.027 85.0658 211.125 85.4699C211.852 88.0115 212.285 90.6272 212.416 93.2664C212.605 97.1869 212.537 101.115 212.212 105.027C211.938 109.422 211.487 114.335 211.629 119.477C211.629 120.286 211.726 121.086 211.77 121.842V121.895C213.017 123.837 214.237 125.727 215.413 127.538L215.546 127.204C214.573 127.467 213.627 127.76 212.708 128.083C212.239 128.232 211.823 128.381 211.337 128.548C210.864 128.705 210.417 128.93 210.011 129.216V129.278C209.763 130.057 209.524 130.822 209.294 131.572C209.038 132.328 208.808 133.075 208.631 133.813C208.285 135.208 208.025 136.623 207.853 138.05C207.517 140.749 207.376 143.122 207.11 145.082C206.912 146.593 206.616 148.091 206.226 149.565C206.093 150.083 205.961 150.444 205.89 150.734C205.848 150.888 205.833 151.049 205.846 151.208Z" fill="#22272B"/>
<path d="M213.028 145.594C212.958 145.881 212.931 146.177 212.948 146.473C212.936 147.301 213.004 148.128 213.151 148.943C213.624 151.671 214.849 154.216 216.692 156.293C218.534 158.37 220.921 159.896 223.585 160.703C224.381 160.95 225.198 161.12 226.026 161.213C226.319 161.252 226.617 161.252 226.91 161.213C226.91 161.125 225.61 161.037 223.647 160.334C221.086 159.461 218.797 157.94 217.007 155.921C215.216 153.903 213.985 151.455 213.434 148.82C213.045 146.886 213.116 145.585 213.028 145.594Z" fill="#22272B"/>
<path d="M257.941 68.0467L266.134 68.4335C270.433 73.6999 276.559 77.1772 283.307 78.1822C290.054 79.1871 296.936 77.6469 302.599 73.8643C308.263 70.0817 312.298 64.3303 313.912 57.7404C315.526 51.1506 314.602 44.1989 311.322 38.2518C308.042 32.3046 302.643 27.7921 296.185 25.6012C289.728 23.4102 282.68 23.6993 276.426 26.4115C270.173 29.1237 265.166 34.063 262.389 40.2585C259.613 46.454 259.269 53.4577 261.423 59.893L257.941 68.0467Z" fill="#FFCE99"/>
<path d="M257.942 68.0462L258.136 67.5372L258.771 65.9798C259.355 64.5649 260.205 62.5086 261.301 59.8722C261.314 59.8448 261.337 59.8234 261.366 59.8121C261.394 59.8008 261.426 59.8004 261.454 59.8111C261.475 59.807 261.495 59.807 261.516 59.8111L261.301 59.9129C260.084 56.3866 259.617 52.6473 259.931 48.9324C260.245 45.2174 261.332 41.6079 263.123 38.3326C264.68 35.4119 266.763 32.8 269.268 30.6268C272.344 27.9644 275.977 26.0159 279.905 24.9225C283.832 23.8291 287.955 23.6183 291.975 24.3053C295.994 24.9924 299.81 26.5601 303.144 28.8947C306.479 31.2294 309.249 34.2725 311.253 37.8033C313.484 41.6853 314.709 46.058 314.817 50.5275C314.93 54.7876 314.054 59.0162 312.257 62.8853C310.291 67.0876 307.279 70.7225 303.507 73.4466C299.735 76.1708 295.327 77.8944 290.699 78.4547C286.07 79.015 281.375 78.3936 277.055 76.649C272.736 74.9044 268.935 72.0943 266.011 68.4839H266.093L259.949 68.1276L258.392 68.036C258.225 68.0461 258.058 68.0461 257.891 68.036H258.444L260.031 68.0869L266.083 68.3007C266.109 68.2914 266.138 68.2914 266.165 68.3007C269.078 71.8238 272.841 74.5564 277.103 76.2441C281.365 77.9317 285.988 78.5194 290.54 77.9524C295.092 77.3854 299.426 75.6821 303.137 73.0012C306.849 70.3204 309.817 66.7493 311.765 62.6206C313.514 58.8207 314.365 54.6739 314.254 50.497C314.14 46.1168 312.936 41.8328 310.752 38.0272C308.778 34.5728 306.06 31.5954 302.792 29.3088C299.524 27.0222 295.787 25.4831 291.85 24.802C287.913 24.1208 283.873 24.3145 280.02 25.3691C276.167 26.4237 272.596 28.3131 269.565 30.9017C267.066 33.0257 264.983 35.5897 263.42 38.4649C262.013 41.0026 261.037 43.7543 260.533 46.6084C259.733 51.0273 260.05 55.5744 261.454 59.8416C261.464 59.8714 261.463 59.9038 261.449 59.9322C261.436 59.9607 261.412 59.9829 261.383 59.9943C261.362 60.0109 261.337 60.0199 261.311 60.0199C261.285 60.0199 261.259 60.0109 261.239 59.9943H261.454C260.307 62.6104 259.406 64.6259 258.812 66.0103L258.126 67.578C258.034 67.863 257.942 68.0462 257.942 68.0462Z" fill="#441170"/>
<path d="M279.703 51.3211C279.703 51.8667 279.54 52.4001 279.235 52.8537C278.93 53.3074 278.497 53.6609 277.99 53.8697C277.482 54.0785 276.924 54.1332 276.386 54.0267C275.848 53.9203 275.353 53.6575 274.965 53.2717C274.577 52.8859 274.313 52.3944 274.206 51.8593C274.099 51.3242 274.154 50.7695 274.364 50.2654C274.574 49.7614 274.929 49.3305 275.386 49.0274C275.842 48.7243 276.379 48.5625 276.927 48.5625C277.664 48.5625 278.369 48.8531 278.89 49.3705C279.41 49.8878 279.703 50.5895 279.703 51.3211Z" fill="#441170"/>
<path d="M290.804 51.3211C290.804 51.8667 290.641 52.4001 290.337 52.8537C290.032 53.3074 289.598 53.6609 289.091 53.8697C288.584 54.0785 288.026 54.1332 287.488 54.0267C286.949 53.9203 286.455 53.6575 286.067 53.2717C285.679 52.8859 285.414 52.3944 285.307 51.8593C285.2 51.3242 285.255 50.7695 285.465 50.2654C285.675 49.7614 286.031 49.3305 286.487 49.0274C286.944 48.7243 287.48 48.5625 288.029 48.5625C288.765 48.5625 289.471 48.8531 289.991 49.3705C290.512 49.8878 290.804 50.5895 290.804 51.3211Z" fill="#441170"/>
<path d="M301.873 49.9356C302.146 50.4087 302.272 50.9518 302.235 51.4961C302.198 52.0405 302 52.5616 301.665 52.9937C301.329 53.4259 300.873 53.7495 300.353 53.9238C299.833 54.098 299.272 54.115 298.742 53.9727C298.213 53.8303 297.737 53.535 297.376 53.124C297.015 52.7131 296.785 52.2049 296.714 51.6638C296.644 51.1228 296.736 50.5731 296.98 50.0843C297.224 49.5955 297.608 49.1895 298.084 48.9177C298.723 48.5559 299.48 48.4599 300.19 48.6506C300.899 48.8413 301.504 49.3032 301.873 49.9356Z" fill="#441170"/>
</svg>
