<svg width="122" height="124" viewBox="0 0 122 124" fill="none" xmlns="http://www.w3.org/2000/svg">
<path d="M54.7306 113.105L54.7302 113.104L20.5649 93.3803C16.3362 90.9371 13.7276 86.4189 13.726 81.5352C13.726 81.5351 13.726 81.5351 13.726 81.535L13.7174 42.0913C13.7251 37.2014 16.3342 32.6896 20.5606 30.2495L54.7274 10.5233C58.9647 8.07693 64.176 8.07475 68.4032 10.5172L68.4036 10.5174L102.569 30.2415C106.798 32.6847 109.406 37.2028 109.408 42.0864C109.408 42.0865 109.408 42.0867 109.408 42.0868L109.407 81.535C109.4 86.4254 106.79 90.9376 102.564 93.3779L68.4064 113.099C64.1692 115.545 58.9579 115.547 54.7306 113.105Z" fill="white" stroke="#0f766e" stroke-width="2.59141"/>
<path d="M87.5726 56.5861V49.7575V49.051H86.8322H84.3426C77.0959 49.051 66.4249 57.4943 61.6585 62.0074V83.3277C64.4906 84.891 73.6993 88.6092 77.207 88.6092H80.909H81.6494V87.9027V85.7919C81.6494 83.2864 80.4256 79.2483 79.4745 77.0714" stroke="#0f766e" stroke-width="2.59141"/>
<path d="M46.1101 88.6092C49.6177 88.6092 58.8265 84.891 61.6585 83.3277V62.0074C56.8922 57.4943 46.2211 49.051 38.9744 49.051H36.4848H35.7444V49.7575V56.1165C35.7444 63.7738 39.502 70.5921 45.3419 74.9904C43.0281 78.0197 41.6677 81.7557 41.6677 85.7919V87.9027V88.6092H42.4081H46.1101Z" stroke="#0f766e" stroke-width="2.59141"/>
<circle cx="61.6574" cy="43.4345" r="7.89202" stroke="#0f766e" stroke-width="2.59141"/>
<path d="M73.2899 73.5632L85.2619 61.5911L90.8532 67.1823L78.8811 79.1544C78.8348 79.2007 78.7972 79.2251 78.7539 79.2468C78.7045 79.2715 78.6489 79.2929 78.5379 79.3306L71.8044 80.6399L73.1137 73.9064C73.1514 73.7954 73.1728 73.7398 73.1975 73.6904C73.2191 73.6471 73.2436 73.6094 73.2899 73.5632ZM98.0588 56.5507C98.9963 57.4881 98.9963 59.0392 98.0588 59.9767L95.057 62.9785L89.4658 57.3873L92.4676 54.3854C93.4051 53.448 94.9561 53.448 95.8936 54.3854L98.0588 56.5507Z" stroke="#0f766e" stroke-width="2.59141"/>
</svg>
