<svg width="604" height="316" viewBox="0 0 604 316" fill="none" xmlns="http://www.w3.org/2000/svg">
<path d="M71.8495 60.9366C71.8495 60.9366 60.555 182.146 84.0908 221.115L293.423 223.572C293.423 223.572 258.749 118.505 261.752 57.7656L71.8495 60.9366Z" fill="#CEBFFF"/>
<path d="M71.8478 60.9375C71.8478 60.9375 58.5814 185.923 99.9183 212.634H301.664C301.664 212.634 265.857 151.618 263.035 60.9375H71.8478Z" fill="#E6E1FD"/>
<path d="M267.095 31.707H70.8242V62.991H267.095V31.707Z" fill="#8055F1"/>
<path d="M88.3672 31.9539C88.3672 31.9539 90.3451 24.8867 97.5572 24.8867C103.702 24.8867 106.747 29.79 106.747 34.2857C106.747 38.7814 103.955 43.5348 97.5572 43.8765" stroke="#CEBFFF" stroke-width="3" stroke-linecap="round" stroke-linejoin="round"/>
<path d="M95.1337 31.6016H85.4492V35.8994H95.1337V31.6016Z" fill="#441170"/>
<path d="M125.652 31.9539C125.652 31.9539 127.63 24.8867 134.842 24.8867C140.987 24.8867 144.032 29.79 144.032 34.2857C144.032 38.7814 141.24 43.5348 134.842 43.8765" stroke="#CEBFFF" stroke-width="3" stroke-linecap="round" stroke-linejoin="round"/>
<path d="M132.423 31.6016H122.738V35.8994H132.423V31.6016Z" fill="#441170"/>
<path d="M162.941 31.9539C162.941 31.9539 164.919 24.8867 172.131 24.8867C178.276 24.8867 181.321 29.79 181.321 34.2857C181.321 38.7814 178.529 43.5348 172.131 43.8765" stroke="#CEBFFF" stroke-width="3" stroke-linecap="round" stroke-linejoin="round"/>
<path d="M169.708 31.6016H160.023V35.8994H169.708V31.6016Z" fill="#441170"/>
<path d="M200.227 31.9539C200.227 31.9539 202.204 24.8867 209.417 24.8867C215.561 24.8867 218.607 29.79 218.607 34.2857C218.607 38.7814 215.815 43.5348 209.417 43.8765" stroke="#CEBFFF" stroke-width="3" stroke-linecap="round" stroke-linejoin="round"/>
<path d="M206.997 31.6016H197.312V35.8994H206.997V31.6016Z" fill="#441170"/>
<path d="M237.516 31.9539C237.516 31.9539 239.494 24.8867 246.706 24.8867C252.85 24.8867 255.896 29.79 255.896 34.2857C255.896 38.7814 253.104 43.5348 246.706 43.8765" stroke="#CEBFFF" stroke-width="3" stroke-linecap="round" stroke-linejoin="round"/>
<path d="M244.282 31.6016H234.598V35.8994H244.282V31.6016Z" fill="#441170"/>
<path d="M299.101 202.436C299.27 202.653 299.423 202.845 299.559 203.01L114.089 202.944C103.039 202.944 94.7846 194.48 88.6223 181.467C82.4706 168.476 78.4924 151.123 75.9274 133.727C73.3636 116.34 72.2166 98.9487 71.7108 85.9007C71.458 79.3775 71.3655 73.9417 71.3362 70.1374C71.3215 68.2353 71.3226 66.7411 71.3274 65.7229C71.3296 65.2721 71.3324 64.9146 71.3349 64.6562H265.626C269.593 120.573 278.215 155.325 285.868 176.122C289.705 186.549 293.299 193.47 295.941 197.79C297.262 199.951 298.345 201.461 299.101 202.436Z" fill="white" stroke="#441170"/>
<path d="M274.042 186.25C273.999 186.13 273.8 185.567 273.36 184.344C272.92 183.121 272.239 181.251 271.424 178.793C269.754 173.908 267.42 166.685 264.749 157.352C259.376 138.698 252.9 111.514 247.865 78.0119L247.991 78.1198H89.8014H88.2938L88.4506 77.9399C91.2969 98.1046 94.2215 117.76 98.9552 136.168C101.223 145.167 104.089 154.006 107.536 162.627C110.808 170.796 114.774 178.673 119.392 186.172L119.271 186.106L274.036 186.25L119.271 186.388H119.193L119.15 186.322C114.517 178.82 110.534 170.939 107.247 162.764C103.795 154.133 100.922 145.285 98.6477 136.276C93.9019 117.844 90.9773 98.1825 88.125 78.0119V77.832H89.8135L248.003 77.862H248.112V77.9699C253.123 111.472 259.569 138.656 264.888 157.31C267.541 166.649 269.845 173.878 271.521 178.769C273.197 183.66 273.963 186.004 274.042 186.25Z" fill="#441170"/>
<path d="M257.286 132.039C257.286 132.129 221.659 132.195 177.723 132.195C133.788 132.195 98.125 132.129 98.125 132.039C98.125 131.949 133.745 131.883 177.723 131.883C221.702 131.883 257.286 131.943 257.286 132.039Z" fill="#441170"/>
<path d="M265.857 160.972C265.857 161.056 230.219 161.128 186.259 161.128C142.299 161.128 106.66 161.056 106.66 160.972C106.66 160.888 142.286 160.816 186.259 160.816C230.231 160.816 265.857 160.882 265.857 160.972Z" fill="#441170"/>
<path d="M251.899 104.16C251.899 104.244 216.273 104.316 172.337 104.316C128.401 104.316 92.7383 104.244 92.7383 104.16C92.7383 104.076 128.359 104.004 172.337 104.004C216.315 104.004 251.899 104.07 251.899 104.16Z" fill="#441170"/>
<path d="M145.2 186.252C145.2 186.252 145.164 186.162 145.104 185.983C145.044 185.803 144.953 185.521 144.845 185.179C144.615 184.454 144.29 183.411 143.868 182.08C143.023 179.389 141.842 175.487 140.412 170.649C137.572 160.975 133.809 147.56 130.161 132.61C128.352 125.135 126.73 117.984 125.337 111.462C123.944 104.94 122.804 99.0481 121.918 94.0789C121.453 91.5973 121.074 89.3495 120.712 87.3774C120.35 85.4052 120.109 83.7029 119.88 82.3122C119.65 80.9216 119.5 79.8486 119.385 79.1053C119.337 78.7456 119.295 78.4699 119.265 78.2661C119.234 78.0623 119.234 77.9844 119.234 77.9844C119.262 78.0749 119.284 78.167 119.301 78.2601C119.337 78.4639 119.385 78.7397 119.451 79.0933L120 82.2882C120.229 83.6789 120.531 85.3813 120.887 87.3474C121.242 89.3135 121.634 91.5433 122.093 94.037C123.009 98.9942 124.203 104.875 125.578 111.42C126.953 117.966 128.593 125.081 130.402 132.556C134.02 147.5 137.765 160.921 140.551 170.607C141.95 175.445 143.096 179.359 143.91 182.062C144.302 183.405 144.609 184.46 144.826 185.173L145.056 185.989C145.182 186.156 145.2 186.252 145.2 186.252Z" fill="#441170"/>
<path d="M176.074 186.252C176.074 186.252 176.038 186.162 175.978 185.976L175.725 185.173L174.772 182.068C173.946 179.377 172.788 175.474 171.377 170.625C168.579 160.938 164.792 147.529 161.125 132.592C157.459 117.654 154.547 104.017 152.762 94.0966C152.303 91.621 151.905 89.3732 151.592 87.3951C151.278 85.417 150.989 83.7206 150.778 82.3239C150.567 80.9273 150.416 79.8663 150.307 79.117C150.259 78.7574 150.223 78.4816 150.193 78.2778C150.163 78.074 150.145 77.9961 150.145 77.9961C150.145 77.9961 150.145 78.086 150.205 78.2778L150.35 79.105C150.476 79.8543 150.651 80.9033 150.88 82.306C151.109 83.7086 151.399 85.399 151.743 87.3711C152.086 89.3432 152.49 91.5671 152.949 94.0607C154.788 103.963 157.688 117.588 161.391 132.52C165.093 147.451 168.82 160.861 171.564 170.559L174.868 182.038C175.254 183.381 175.55 184.436 175.761 185.155L175.984 185.97C176.021 186.062 176.051 186.156 176.074 186.252Z" fill="#441170"/>
<path d="M208.338 186.253C208.299 186.165 208.265 186.075 208.236 185.984C208.175 185.786 208.085 185.522 207.97 185.18L206.988 182.081C206.125 179.396 204.925 175.488 203.46 170.692C200.565 161.03 196.652 147.65 192.913 132.719C189.174 117.787 186.328 104.108 184.688 94.1818C184.272 91.7002 183.904 89.4464 183.627 87.4623C183.349 85.4782 183.084 83.7758 182.921 82.3732C182.758 80.9705 182.62 79.9035 182.529 79.1483C182.487 78.7946 182.457 78.5129 182.433 78.3091C182.408 78.1053 182.433 78.0273 182.433 78.0273C182.433 78.0273 182.433 78.1173 182.481 78.3091L182.607 79.1423C182.716 79.8916 182.867 80.9405 183.06 82.3552C183.253 83.7698 183.512 85.4602 183.82 87.4383C184.127 89.4164 184.495 91.6642 184.923 94.1459C186.624 104.084 189.47 117.727 193.233 132.647C196.995 147.567 200.849 160.958 203.695 170.632C205.136 175.458 206.306 179.36 207.12 182.075C207.518 183.418 207.832 184.473 208.049 185.192C208.149 185.536 208.228 185.806 208.284 186.002C208.32 186.157 208.338 186.253 208.338 186.253Z" fill="#441170"/>
<path d="M240.598 186.252C240.559 186.164 240.525 186.074 240.495 185.982L240.224 185.179C239.983 184.46 239.621 183.423 239.205 182.092C238.324 179.413 237.082 175.498 235.587 170.703C232.572 161.064 228.555 147.709 224.732 132.789C222.803 125.333 221.114 118.187 219.788 111.648C219.076 108.387 218.515 105.264 217.979 102.351C217.725 100.888 217.482 99.4775 217.249 98.1188C217.014 96.7641 216.797 95.4573 216.646 94.2105C215.042 84.2301 214.668 77.9961 214.668 77.9961C214.668 77.9961 214.668 78.092 214.71 78.2778C214.752 78.4636 214.77 78.7574 214.813 79.117C214.897 79.8723 215.012 80.9572 215.168 82.3479C215.325 83.7386 215.548 85.4589 215.808 87.443C216.067 89.4271 216.411 91.6869 216.791 94.1746C216.971 95.4214 217.201 96.7281 217.442 98.0828C217.683 99.4375 217.93 100.846 218.184 102.309C218.756 105.216 219.329 108.333 220.041 111.588C221.41 118.116 223.086 125.261 225.01 132.718C228.839 147.625 232.849 160.986 235.78 170.637L239.313 182.056C239.729 183.393 240.055 184.454 240.278 185.161C240.381 185.509 240.459 185.761 240.519 185.97C240.58 186.18 240.598 186.252 240.598 186.252Z" fill="#441170"/>
<path d="M210.194 80.4465C210.514 80.7043 206.516 85.9972 200.473 91.476C194.431 96.9547 188.799 100.467 188.57 100.138C188.341 99.8079 193.472 95.7498 199.424 90.3251C205.376 84.9003 209.844 80.1528 210.194 80.4465Z" fill="#441170"/>
<path d="M216.048 100.634C215.795 100.988 209.047 96.6243 200.737 91.2355C192.428 85.8466 185.704 81.4529 185.927 81.0452C186.15 80.6376 193.26 84.48 201.606 89.8987C209.952 95.3175 216.295 100.287 216.048 100.634Z" fill="#441170"/>
<path d="M157.781 98.1971C157.515 97.8554 161.96 94.0551 167.7 89.7092C173.441 85.3634 178.308 82.1205 178.555 82.4622C178.802 82.8039 174.376 86.6042 168.635 90.9501C162.894 95.2959 158.04 98.5388 157.781 98.1971Z" fill="#441170"/>
<path d="M125.523 98.1971C125.258 97.8554 129.702 94.0551 135.443 89.7092C141.183 85.3634 146.05 82.1205 146.297 82.4622C146.544 82.8039 142.118 86.6042 136.377 90.9501C130.637 95.2959 125.782 98.5388 125.523 98.1971Z" fill="#441170"/>
<path d="M93.7144 98.1971C93.4491 97.8554 97.8933 94.0551 103.634 89.7092C109.375 85.3634 114.241 82.1205 114.488 82.4622C114.736 82.8039 110.309 86.6042 104.569 90.9501C98.828 95.2959 93.9737 98.5388 93.7144 98.1971Z" fill="#441170"/>
<path d="M130.539 125.416C130.273 125.074 134.718 121.274 140.458 116.928C146.199 112.582 151.065 109.339 151.313 109.681C151.56 110.023 147.134 113.823 141.393 118.169C135.652 122.515 130.798 125.758 130.539 125.416Z" fill="#441170"/>
<path d="M138.714 155.127C138.449 154.785 142.893 150.985 148.634 146.639C154.375 142.293 159.241 139.05 159.488 139.392C159.736 139.734 155.309 143.534 149.569 147.88C143.828 152.226 138.974 155.468 138.714 155.127Z" fill="#441170"/>
<path d="M107.359 155.127C107.094 154.785 111.538 150.985 117.279 146.639C123.019 142.293 127.886 139.05 128.133 139.392C128.38 139.734 123.954 143.534 118.213 147.88C112.473 152.226 107.618 155.468 107.359 155.127Z" fill="#441170"/>
<path d="M164.156 125.416C163.89 125.074 168.335 121.274 174.075 116.928C179.816 112.582 184.683 109.339 184.93 109.681C185.177 110.023 180.751 113.823 175.01 118.169C169.269 122.515 164.415 125.758 164.156 125.416Z" fill="#441170"/>
<path d="M196.191 125.416C195.926 125.074 200.37 121.274 206.111 116.928C211.851 112.582 216.718 109.339 216.965 109.681C217.212 110.023 212.786 113.823 207.045 118.169C201.305 122.515 196.45 125.758 196.191 125.416Z" fill="#441170"/>
<path d="M229.921 125.416C229.656 125.074 234.1 121.274 239.841 116.928C245.582 112.582 250.448 109.339 250.695 109.681C250.943 110.023 246.517 113.823 240.776 118.169C235.035 122.515 230.181 125.758 229.921 125.416Z" fill="#441170"/>
<path d="M182.173 100.05C181.896 100.41 175.986 96.2678 168.478 91.5084C160.971 86.749 154.73 83.1165 154.935 82.7388C155.14 82.3612 161.767 85.3763 169.329 90.1957C176.89 95.015 182.432 99.7265 182.173 100.05Z" fill="#441170"/>
<path d="M118.107 100.05C117.829 100.41 111.92 96.2678 104.412 91.5084C96.9044 86.749 90.6632 83.1165 90.8682 82.7388C91.0732 82.3612 97.7004 85.3763 105.262 90.1957C112.824 95.015 118.366 99.7265 118.107 100.05Z" fill="#441170"/>
<path d="M154.931 127.269C154.653 127.629 148.744 123.487 141.236 118.727C133.729 113.968 127.487 110.335 127.692 109.958C127.897 109.58 134.525 112.595 142.086 117.414C149.648 122.234 155.19 126.945 154.931 127.269Z" fill="#441170"/>
<path d="M149.915 100.05C149.638 100.41 143.728 96.2678 136.221 91.5084C128.713 86.749 122.472 83.1165 122.677 82.7388C122.882 82.3612 129.509 85.3763 137.071 90.1957C144.633 95.015 150.174 99.7265 149.915 100.05Z" fill="#441170"/>
<path d="M163.107 156.98C162.829 157.34 156.92 153.198 149.412 148.438C141.904 143.679 135.663 140.046 135.868 139.669C136.073 139.291 142.7 142.306 150.262 147.125C157.824 151.945 163.366 156.656 163.107 156.98Z" fill="#441170"/>
<path d="M131.751 156.98C131.474 157.34 125.564 153.198 118.057 148.438C110.549 143.679 104.308 140.046 104.513 139.669C104.718 139.291 111.345 142.306 118.907 147.125C126.469 151.945 132.01 156.656 131.751 156.98Z" fill="#441170"/>
<path d="M188.548 127.269C188.271 127.629 182.361 123.487 174.853 118.727C167.346 113.968 161.105 110.335 161.31 109.958C161.515 109.58 168.142 112.595 175.704 117.414C183.266 122.234 188.807 126.945 188.548 127.269Z" fill="#441170"/>
<path d="M220.583 127.269C220.306 127.629 214.396 123.487 206.889 118.727C199.381 113.968 193.14 110.335 193.345 109.958C193.55 109.58 200.177 112.595 207.739 117.414C215.301 122.234 220.842 126.945 220.583 127.269Z" fill="#441170"/>
<path d="M254.314 127.269C254.036 127.629 248.127 123.487 240.619 118.727C233.111 113.968 226.87 110.335 227.075 109.958C227.28 109.58 233.907 112.595 241.469 117.414C249.031 122.234 254.573 126.945 254.314 127.269Z" fill="#441170"/>
<path d="M183.871 135.03C183.871 134.982 184.179 134.91 184.782 134.868C185.67 134.84 186.558 134.928 187.423 135.132C188.806 135.45 190.121 136.011 191.307 136.786C192.904 137.814 194.24 139.198 195.208 140.826C196.375 142.83 196.988 145.105 196.987 147.42C196.997 148.703 196.835 149.981 196.505 151.22C196.14 152.539 195.584 153.797 194.852 154.955C193.193 157.521 190.807 159.541 187.994 160.761C185.181 161.98 182.068 162.344 179.047 161.806C175.911 161.274 173.01 159.811 170.726 157.61C168.614 155.526 167.208 152.84 166.703 149.926C166.228 147.311 166.478 144.617 167.427 142.133C168.257 139.973 169.672 138.083 171.516 136.672C173.012 135.52 174.732 134.689 176.569 134.233C177.945 133.876 179.373 133.759 180.79 133.885C181.063 133.899 181.336 133.933 181.604 133.987C181.857 134.029 182.092 134.059 182.31 134.113C182.738 134.233 183.1 134.317 183.383 134.431C183.944 134.658 184.227 134.802 184.209 134.85C184.161 135 183.003 134.502 180.76 134.49C179.424 134.487 178.096 134.689 176.822 135.09C175.14 135.598 173.578 136.435 172.227 137.554C170.601 138.887 169.37 140.633 168.663 142.607C167.855 144.875 167.676 147.319 168.145 149.68C168.626 152.279 169.902 154.667 171.799 156.519C173.873 158.487 176.492 159.792 179.319 160.266C182.137 160.779 185.045 160.421 187.652 159.241C190.086 158.146 192.16 156.39 193.634 154.176C194.306 153.148 194.824 152.03 195.172 150.855C195.493 149.737 195.666 148.582 195.685 147.42C195.724 145.333 195.228 143.27 194.243 141.426C193.402 139.899 192.227 138.578 190.806 137.56C189.73 136.774 188.532 136.167 187.26 135.761C185.15 135.066 183.865 135.174 183.871 135.03Z" fill="#441170"/>
<path d="M98.0858 128.561C97.7602 128.292 101.559 123.167 106.896 117.352C112.142 111.64 116.954 107.24 117.34 107.629C117.726 108.019 113.354 112.635 108.054 118.419C102.753 124.204 98.4296 128.837 98.0858 128.561Z" fill="#441170"/>
<path d="M122.547 126.115C122.318 126.481 116.149 123.118 108.768 118.569C101.387 114.019 95.586 110.057 95.8152 109.691C96.0443 109.326 102.141 112.688 109.528 117.238C116.915 121.788 122.776 125.75 122.547 126.115Z" fill="#441170"/>
<path d="M181.205 139.783L183.563 143.146C183.657 143.285 183.785 143.398 183.935 143.476C184.084 143.553 184.251 143.592 184.419 143.589H188.544C188.738 143.589 188.929 143.642 189.094 143.743C189.26 143.844 189.394 143.989 189.481 144.161C189.568 144.334 189.605 144.527 189.588 144.72C189.57 144.912 189.499 145.096 189.382 145.25L186.892 148.517C186.79 148.65 186.723 148.806 186.696 148.971C186.668 149.136 186.682 149.305 186.735 149.464L188.031 153.354C188.093 153.537 188.102 153.734 188.057 153.921C188.012 154.109 187.915 154.28 187.776 154.416C187.638 154.551 187.464 154.646 187.275 154.688C187.086 154.73 186.888 154.719 186.705 154.655L182.809 153.312C182.649 153.259 182.479 153.245 182.312 153.27C182.146 153.295 181.987 153.358 181.85 153.456L178.528 155.89C178.372 156.004 178.186 156.073 177.992 156.088C177.799 156.103 177.605 156.063 177.433 155.974C177.26 155.884 177.117 155.749 177.018 155.582C176.92 155.416 176.87 155.225 176.876 155.032L176.954 150.938C176.957 150.77 176.919 150.604 176.843 150.454C176.768 150.304 176.657 150.174 176.52 150.075L173.173 147.678C173.021 147.565 172.903 147.413 172.832 147.238C172.762 147.064 172.741 146.873 172.772 146.687C172.803 146.501 172.885 146.327 173.009 146.185C173.133 146.042 173.294 145.937 173.475 145.879L177.424 144.68C177.585 144.631 177.732 144.543 177.851 144.425C177.971 144.307 178.06 144.163 178.112 144.003L179.36 140.101C179.415 139.915 179.521 139.748 179.667 139.619C179.812 139.49 179.991 139.404 180.183 139.371C180.375 139.338 180.573 139.359 180.753 139.432C180.934 139.505 181.091 139.626 181.205 139.783Z" fill="#F3631B"/>
<path d="M245.421 80.5902C245.71 80.9079 240.458 86.057 233.686 92.0812C226.914 98.1054 221.191 102.727 220.902 102.403C220.613 102.08 225.865 96.9425 232.637 90.9183C239.409 84.8941 245.125 80.2665 245.421 80.5902Z" fill="#441170"/>
<path d="M249.353 99.1071C249.16 99.4907 241.797 96.2119 232.915 91.7881C224.032 87.3644 216.977 83.4562 217.176 83.0665C217.375 82.6769 224.726 85.9617 233.614 90.3915C242.503 94.8212 249.546 98.7235 249.353 99.1071Z" fill="#441170"/>
<path d="M583.335 244.11C583.335 244.536 458.426 244.9 304.395 244.9C150.365 244.9 25.4297 244.536 25.4297 244.11C25.4297 243.685 150.313 243.32 304.395 243.32C458.477 243.32 583.335 243.655 583.335 244.11Z" fill="#333E45"/>
<path d="M304.783 316C419.136 316 511.838 302.889 511.838 286.717C511.838 270.544 419.136 257.434 304.783 257.434C190.429 257.434 97.7266 270.544 97.7266 286.717C97.7266 302.889 190.429 316 304.783 316Z" fill="#E6E1FD"/>
<path d="M383.799 286.717C383.764 286.504 383.637 286.307 383.438 286.158C382.834 285.743 382.124 285.429 381.355 285.237C378.404 284.468 375.365 283.919 372.279 283.599C360.932 282.357 349.506 281.583 338.052 281.281C323.54 280.783 306.24 280.572 287.034 280.911C277.44 281.093 267.368 281.41 256.953 282.021C251.74 282.338 246.45 282.716 241.11 283.282C238.441 283.569 235.751 283.893 233.091 284.339C231.769 284.555 230.463 284.827 229.18 285.154C228.535 285.312 227.91 285.514 227.312 285.758C226.745 285.984 226.129 286.332 226.099 286.709C226.07 287.087 226.735 287.464 227.302 287.668C227.9 287.912 228.525 288.114 229.17 288.272C230.453 288.601 231.759 288.876 233.082 289.095C235.742 289.54 238.431 289.85 241.101 290.152C246.44 290.71 251.731 291.095 256.943 291.412C267.358 292.024 277.479 292.341 287.034 292.522C306.24 292.862 323.549 292.65 338.062 292.152C349.516 291.846 360.941 291.073 372.289 289.835C375.376 289.512 378.415 288.961 381.364 288.189C382.136 288 382.846 287.686 383.447 287.268C383.647 287.122 383.774 286.927 383.809 286.717C383.813 286.826 383.786 286.934 383.73 287.035C383.675 287.135 383.591 287.225 383.486 287.298C382.891 287.733 382.181 288.063 381.403 288.264C378.457 289.069 375.413 289.646 372.319 289.986C360.976 291.283 349.55 292.097 338.091 292.424C323.579 292.967 306.26 293.179 287.044 292.884C277.44 292.711 267.358 292.401 256.923 291.79C251.711 291.48 246.401 291.103 241.052 290.537C238.372 290.25 235.673 289.925 232.994 289.472C231.639 289.254 230.3 288.979 228.984 288.649C228.311 288.48 227.657 288.268 227.028 288.015C226.703 287.887 226.4 287.728 226.129 287.54C225.953 287.448 225.809 287.325 225.71 287.181C225.611 287.037 225.559 286.876 225.559 286.713C225.559 286.55 225.611 286.389 225.71 286.245C225.809 286.101 225.953 285.978 226.129 285.886C226.398 285.696 226.701 285.536 227.028 285.411C227.657 285.161 228.311 284.951 228.984 284.784C230.299 284.449 231.638 284.172 232.994 283.954C235.683 283.508 238.372 283.199 241.052 282.889C246.401 282.331 251.711 281.946 256.923 281.636C267.348 281.032 277.46 280.723 287.034 280.549C306.25 280.224 323.559 280.466 338.081 281.002C349.54 281.332 360.966 282.148 372.309 283.448C375.404 283.784 378.448 284.361 381.394 285.169C382.173 285.367 382.884 285.698 383.477 286.135C383.582 286.209 383.665 286.298 383.721 286.399C383.776 286.499 383.803 286.608 383.799 286.717Z" fill="#E6E1FD"/>
<path d="M430.876 286.719C430.841 286.378 430.7 286.049 430.466 285.76C429.684 284.953 428.652 284.312 427.463 283.895C424.422 282.657 419.523 281.517 413.147 280.476C400.355 278.407 381.54 276.701 358.226 275.667C334.913 274.633 307.071 274.157 276.198 274.867C260.766 275.229 244.572 275.871 227.85 277.131C219.488 277.773 211 278.558 202.423 279.706C198.15 280.294 193.867 280.966 189.642 281.88C187.539 282.328 185.481 282.89 183.481 283.563C182.478 283.896 181.524 284.311 180.635 284.801C180.19 285.006 179.809 285.284 179.518 285.616C179.228 285.947 179.035 286.324 178.953 286.719C179.029 287.114 179.217 287.491 179.504 287.822C179.792 288.154 180.172 288.432 180.616 288.636C181.504 289.128 182.458 289.546 183.462 289.882C185.474 290.556 187.546 291.119 189.662 291.565C193.872 292.455 198.138 293.18 202.443 293.739C210.98 294.894 219.478 295.68 227.869 296.314C244.592 297.567 260.796 298.209 276.227 298.578C307.1 299.265 334.903 298.82 358.256 297.771C381.609 296.721 400.394 295.038 413.176 292.962C419.562 291.928 424.451 290.788 427.493 289.542C428.68 289.128 429.712 288.489 430.495 287.685C430.73 287.395 430.87 287.067 430.906 286.726C430.906 286.726 430.906 286.809 430.906 286.983C430.854 287.249 430.738 287.505 430.563 287.738C429.787 288.559 428.754 289.216 427.561 289.648C424.51 290.916 419.62 292.079 413.235 293.143C400.443 295.264 381.618 296.993 358.295 298.08C334.971 299.167 307.13 299.635 276.237 298.971C260.796 298.616 244.582 297.982 227.84 296.706C219.469 296.072 210.971 295.287 202.414 294.132C198.13 293.543 193.837 292.879 189.583 291.95C187.44 291.499 185.342 290.929 183.305 290.244C182.269 289.901 181.285 289.471 180.371 288.961C179.898 288.697 179.477 288.381 179.12 288.025C178.715 287.663 178.492 287.201 178.492 286.722C178.492 286.244 178.715 285.782 179.12 285.42C179.477 285.068 179.899 284.758 180.371 284.499C181.288 283.991 182.272 283.559 183.305 283.208C185.344 282.529 187.442 281.962 189.583 281.51C193.837 280.589 198.13 279.917 202.414 279.328C210.971 278.173 219.478 277.395 227.84 276.761C244.582 275.508 260.786 274.874 276.227 274.497C307.11 273.832 334.962 274.308 358.285 275.387C381.609 276.467 400.434 278.203 413.225 280.325C419.611 281.381 424.5 282.552 427.551 283.82C428.745 284.251 429.777 284.908 430.554 285.73C430.723 285.951 430.839 286.194 430.896 286.447C430.876 286.628 430.876 286.719 430.876 286.719Z" fill="#E6E1FD"/>
<path d="M489.289 286.718C489.26 286.214 489.104 285.719 488.829 285.261C487.902 283.954 486.533 282.866 484.869 282.113C480.654 279.931 473.564 277.9 464.244 276.073C445.576 272.412 417.881 269.445 383.536 267.581C343.3 265.516 302.954 265.037 262.655 266.146C239.908 266.78 216.037 267.905 191.433 270.102C179.14 271.219 166.652 272.593 154.135 274.632C147.847 275.615 141.643 276.891 135.554 278.451C132.478 279.238 129.497 280.231 126.645 281.418C125.233 282.014 123.92 282.739 122.734 283.577C121.522 284.369 120.763 285.497 120.621 286.718C120.683 287.324 120.9 287.915 121.259 288.457C121.618 288.999 122.113 289.48 122.714 289.873C123.898 290.714 125.212 291.439 126.626 292.032C129.474 293.226 132.456 294.219 135.535 294.999C141.642 296.567 147.866 297.848 154.174 298.834C166.691 300.857 179.179 302.224 191.482 303.364C216.086 305.56 239.967 306.685 262.714 307.312C303.016 308.429 343.366 307.95 383.605 305.878C417.949 304.02 445.644 301.046 464.313 297.392C473.623 295.558 480.713 293.535 484.937 291.353C486.584 290.598 487.936 289.513 488.849 288.213C489.123 287.755 489.279 287.26 489.308 286.756C489.308 286.756 489.308 286.884 489.308 287.133C489.306 287.293 489.27 287.451 489.201 287.601C489.142 287.818 489.05 288.028 488.927 288.228C488.026 289.548 486.673 290.653 485.015 291.421C480.801 293.64 473.701 295.694 464.391 297.543C445.713 301.257 418.008 304.27 383.663 306.164C343.41 308.27 303.044 308.774 262.723 307.674C239.967 307.055 216.076 305.938 191.452 303.749C179.14 302.624 166.642 301.257 154.096 299.219C147.768 298.231 141.524 296.948 135.398 295.377C132.29 294.575 129.28 293.565 126.401 292.357C124.943 291.732 123.589 290.972 122.372 290.092C121.669 289.7 121.097 289.184 120.702 288.588C120.307 287.991 120.102 287.331 120.102 286.661C120.102 285.991 120.307 285.331 120.702 284.735C121.097 284.138 121.669 283.623 122.372 283.23C123.598 282.37 124.954 281.628 126.411 281.018C129.288 279.808 132.298 278.797 135.407 277.999C141.535 276.432 147.779 275.151 154.105 274.164C166.642 272.14 179.14 270.766 191.442 269.634C216.067 267.437 239.948 266.328 262.704 265.701C303.021 264.598 343.384 265.102 383.634 267.211C417.91 269.219 445.664 272.239 464.293 275.923C473.613 277.78 480.713 279.833 484.927 282.052C486.585 282.82 487.938 283.925 488.839 285.246C488.962 285.443 489.054 285.651 489.113 285.865C489.181 286.015 489.217 286.173 489.22 286.333C489.289 286.582 489.289 286.718 489.289 286.718Z" fill="#E6E1FD"/>
<path d="M333.092 275.38C314.114 274.578 295.044 273.775 276.021 274.293C256.997 274.81 237.811 276.7 220.999 281.043C214.376 282.738 207.568 285.198 206.399 288.782C205.137 292.652 211.158 296.282 218.29 298.15C232.995 301.9 251.162 299.942 266.468 296.762C281.775 293.582 296.573 289.262 313.072 288.385C326.828 287.635 340.618 289.442 353.597 291.745C366.577 294.047 379.209 296.905 392.64 298.495C406.071 300.085 420.765 300.302 433.258 297.437C439.939 295.937 446.238 293.095 446.62 289.517C446.897 286.975 444.061 284.538 440.124 282.858C436.187 281.178 431.266 280.15 426.322 279.295C394.632 273.82 360.023 274.48 326.411 275.215" fill="#8055F1"/>
<path d="M394.091 148.239C394.116 147.208 393.856 146.19 393.338 145.295C392.821 144.401 392.066 143.666 391.156 143.169C390.247 142.672 389.218 142.433 388.181 142.478C387.144 142.523 386.14 142.85 385.277 143.424C383.652 144.437 382.335 145.872 381.468 147.574C379.078 151.937 378.792 157.089 378.293 162.028C377.848 166.943 376.371 171.71 373.957 176.021L392.227 154.384C393.473 152.577 394.124 150.43 394.091 148.239Z" fill="#146CFD"/>
<g opacity="0.2">
<path d="M394.091 148.239C394.116 147.208 393.856 146.19 393.338 145.295C392.821 144.401 392.066 143.666 391.156 143.169C390.247 142.672 389.218 142.433 388.181 142.478C387.144 142.523 386.14 142.85 385.277 143.424C383.652 144.437 382.335 145.872 381.468 147.574C379.078 151.937 378.792 157.089 378.293 162.028C377.848 166.943 376.371 171.71 373.957 176.021L392.227 154.384C393.473 152.577 394.124 150.43 394.091 148.239Z" fill="black"/>
</g>
<path d="M373.162 136.418C374.242 137.305 409.818 177.9 409.818 177.9L390.576 193.09L366.133 162.808L373.162 136.418Z" fill="#D29576"/>
<path d="M267.149 150.137C266.204 151.183 237.461 189.154 237.461 189.154L255.454 208.538L277.533 175.4L267.149 150.137Z" fill="#D29576"/>
<path d="M267.469 175.293C269.565 176.25 270.752 178.476 271.546 180.613C272.339 182.75 272.928 185.047 274.418 186.82C275.908 188.594 278.691 189.543 280.564 188.195C282.438 186.847 282.438 184.249 281.635 182.218C280.569 179.783 278.738 177.758 276.416 176.445C274.1 175.151 271.596 174.221 268.994 173.688" fill="#146CFD"/>
<g opacity="0.2">
<path d="M267.469 175.293C269.565 176.25 270.752 178.476 271.546 180.613C272.339 182.75 272.928 185.047 274.418 186.82C275.908 188.594 278.691 189.543 280.564 188.195C282.438 186.847 282.438 184.249 281.635 182.218C280.569 179.783 278.738 177.758 276.416 176.445C274.1 175.151 271.596 174.221 268.994 173.688" fill="black"/>
</g>
<path d="M434.715 252.077C434.072 251.903 433.416 251.779 432.753 251.705L361.048 221.812H289.772L219.476 249.417C212.34 251.776 202.161 265.618 207.933 282.156C208.093 282.617 208.263 283.043 208.432 283.495C213.053 295.023 225.872 300.982 237.871 297.79C247.585 295.209 261.537 291.432 275.9 287.521H277.514L322.234 274.911C329.237 276.836 343.956 280.87 360.317 285.34C380.201 290.775 402.503 296.867 416.267 300.494C428.301 303.695 441.129 297.701 445.706 286.2C445.884 285.765 446.045 285.313 446.205 284.861C452.031 268.278 441.852 254.436 434.715 252.077Z" fill="#0B3F47"/>
<path d="M321.682 275.017L321.932 274.929L322.655 274.707L325.491 273.882L336.196 270.85L336.071 271.062L328.935 244.992L329.176 245.178H321.888C319.363 245.178 316.776 245.409 314.135 245.515L297.632 246.402C277.239 247.581 258.809 248.956 245.473 250.028L229.638 251.305L225.339 251.651L224.223 251.731C224.096 251.745 223.967 251.745 223.84 251.731C223.962 251.694 224.087 251.67 224.215 251.66L225.33 251.536L229.612 251.075C233.34 250.702 238.729 250.188 245.392 249.603C258.72 248.423 277.159 246.987 297.552 245.808L314.064 244.921C316.74 244.814 319.3 244.628 321.825 244.602H329.39V244.797C332.164 255.172 334.564 264.154 336.366 270.912L336.41 271.071L336.25 271.116L325.545 273.997L322.681 274.734L321.941 274.911C321.863 274.963 321.775 274.999 321.682 275.017Z" fill="#002664"/>
<path d="M298.461 245.842C298.381 245.966 296.401 244.84 294.251 243.058C292.101 241.276 290.629 239.511 290.736 239.44C290.843 239.369 292.52 240.859 294.616 242.623C296.713 244.388 298.55 245.7 298.461 245.842Z" fill="#002664"/>
<path d="M426.26 254.656C425.933 254.68 425.605 254.68 425.279 254.656L422.469 254.488L412.139 253.787L378.088 251.482L343.984 249.433L333.645 248.83L330.808 248.644C330.482 248.636 330.157 248.604 329.836 248.547C330.162 248.516 330.491 248.516 330.817 248.547L333.636 248.635L343.975 249.061C352.718 249.46 364.778 250.098 378.097 250.95C391.416 251.801 403.459 252.679 412.174 253.388L422.495 254.275L425.297 254.541C425.621 254.549 425.943 254.588 426.26 254.656Z" fill="#002664"/>
<path d="M322.869 253.293C322.771 253.187 323.948 252.114 325.813 251.653C327.677 251.191 329.229 251.546 329.185 251.653C329.14 251.759 327.686 251.715 325.956 252.167C324.225 252.619 322.967 253.426 322.869 253.293Z" fill="#002664"/>
<path d="M324.812 257.797C324.812 257.638 326.097 257.363 327.721 257.168C329.344 256.973 330.682 256.946 330.7 257.097C330.718 257.248 329.416 257.54 327.792 257.726C326.168 257.913 324.83 257.948 324.812 257.797Z" fill="#002664"/>
<path d="M325.688 263.03C325.688 262.862 327.284 262.817 329.14 262.268C330.995 261.718 332.36 260.938 332.458 261.079C331.603 261.97 330.501 262.587 329.292 262.853C327.338 263.385 325.67 263.172 325.688 263.03Z" fill="#002664"/>
<path d="M327.434 268.65C327.434 268.481 328.959 268.366 330.69 267.701C332.42 267.036 333.669 266.158 333.767 266.291C333.865 266.424 332.741 267.559 330.895 268.233C329.048 268.907 327.425 268.8 327.434 268.65Z" fill="#002664"/>
<path d="M360.111 243.139C360.227 243.254 359.032 244.638 357.703 246.438C356.373 248.238 355.374 249.772 355.231 249.692C355.089 249.612 355.874 247.919 357.239 246.101C358.604 244.283 360.004 243.033 360.111 243.139Z" fill="#002664"/>
<path d="M329.433 244.858L312.35 242.286C312.35 242.286 310.798 238.287 308.166 238.083C305.535 237.879 303.099 240.743 301.181 240.593C299.263 240.442 276.319 232.745 275.008 243.076L284.553 246.986" fill="#D29576"/>
<path d="M385.482 254.213L334.634 265.049L330.066 247.695L348.88 246.808C348.88 246.808 351.137 243.146 353.76 243.421C356.383 243.696 358.22 246.968 360.183 247.128C362.145 247.287 386.053 243.82 385.482 254.213Z" fill="#D29576"/>
<path d="M288.878 223.57C288.878 223.57 288.736 223.65 288.441 223.783L287.13 224.386C285.979 224.918 284.266 225.672 282.054 226.621C277.594 228.518 271.18 231.134 263.178 234.3C255.176 237.466 245.64 241.172 235.149 245.571C229.904 247.761 224.283 249.836 218.931 252.895L217.932 253.489C217.868 253.524 217.808 253.566 217.754 253.614V253.552C217.896 253.625 218.05 253.673 218.208 253.693C218.97 253.813 219.739 253.878 220.51 253.888C222.08 253.933 223.659 253.888 225.256 253.888C228.449 253.809 231.697 253.667 234.971 253.498C248.093 252.807 260.573 251.876 271.92 251.015L302.072 248.63L322.394 246.945L327.924 246.502L329.361 246.395C329.682 246.395 329.851 246.395 329.851 246.395C329.851 246.395 329.682 246.395 329.361 246.466L327.933 246.617L322.411 247.149L302.099 248.976C293.526 249.721 283.312 250.581 271.956 251.468C260.6 252.354 248.12 253.294 234.997 253.986C231.714 254.154 228.467 254.296 225.274 254.367C223.668 254.367 222.08 254.421 220.492 254.367C219.698 254.359 218.905 254.294 218.119 254.172C217.888 254.137 217.667 254.056 217.468 253.933C217.422 253.897 217.384 253.851 217.358 253.799C217.332 253.747 217.317 253.69 217.316 253.631C217.32 253.529 217.361 253.431 217.432 253.356C217.522 253.274 217.621 253.203 217.727 253.144L218.726 252.549C224.132 249.464 229.77 247.406 235.015 245.225C245.515 240.844 255.078 237.173 263.089 234.043C271.099 230.913 277.576 228.341 282.009 226.497L287.121 224.351L288.441 223.792L288.878 223.57Z" fill="white"/>
<path d="M359.211 223.57C359.326 223.593 359.437 223.632 359.541 223.686L360.496 224.085L364.135 225.645L377.516 231.312L421.861 249.721C426.137 251.358 430.307 253.253 434.35 255.396C434.841 255.662 435.323 255.937 435.786 256.221C436.038 256.357 436.279 256.511 436.509 256.682C436.573 256.742 436.633 256.808 436.687 256.877C436.724 256.927 436.75 256.985 436.764 257.046C436.778 257.107 436.779 257.17 436.768 257.232C436.768 257.391 436.661 257.444 436.58 257.533C436.509 257.583 436.435 257.627 436.357 257.666C435.29 257.948 434.188 258.082 433.083 258.065C430.942 258.109 428.855 258.065 426.839 257.95C418.712 257.56 411.415 256.895 405.286 256.336C399.158 255.777 394.216 255.236 390.799 254.864L386.865 254.412L385.839 254.279C385.725 254.268 385.611 254.248 385.5 254.217H385.848L386.874 254.296L390.817 254.669L405.322 255.99C411.451 256.504 418.748 257.143 426.866 257.506C428.891 257.586 430.969 257.657 433.11 257.604C434.157 257.62 435.201 257.498 436.215 257.24L436.339 257.169C436.286 257.214 436.339 257.107 436.232 257.036C436.125 256.966 435.813 256.762 435.572 256.62C435.108 256.345 434.636 256.07 434.154 255.804C430.124 253.683 425.971 251.8 421.718 250.164C404.394 242.981 388.712 236.455 377.418 231.631C371.771 229.219 367.213 227.197 364.037 225.823L360.469 224.191L359.532 223.748L359.211 223.57Z" fill="white"/>
<path d="M321.644 121.84C323.726 121.985 325.814 121.687 327.771 120.966C329.728 120.245 331.507 119.118 332.991 117.659C334.475 116.201 335.629 114.445 336.377 112.508C337.125 110.572 337.448 108.499 337.327 106.428C337.112 102.757 336.925 99.9549 336.925 99.9549C336.925 99.9549 348.567 98.1813 348.709 86.5915C348.852 75.0016 346.836 48.461 346.836 48.461C340.221 45.6387 332.968 44.6233 325.826 45.5197C318.684 46.4161 311.913 49.1917 306.211 53.5598L304.48 54.8811L308.049 108.246C308.285 111.761 309.791 115.072 312.289 117.57C314.787 120.068 318.11 121.585 321.644 121.84Z" fill="#D29576"/>
<path d="M336.954 99.8143C331.584 99.9131 326.305 98.4222 321.789 95.5313C321.789 95.5313 325.357 103.858 336.954 102.812V99.8143Z" fill="#99613B"/>
<path d="M305.918 66.862C305.722 66.7733 297.889 64.5121 298.184 72.4131C298.478 80.3141 306.364 78.4342 306.373 78.2125C306.382 77.9908 305.918 66.862 305.918 66.862Z" fill="#D29576"/>
<path d="M303.848 75.311C303.848 75.311 303.714 75.4086 303.483 75.5238C303.157 75.6724 302.787 75.6915 302.448 75.577C301.556 75.2933 300.842 73.9898 300.762 72.5709C300.721 71.8934 300.831 71.2154 301.083 70.5846C301.151 70.336 301.278 70.1073 301.454 69.9175C301.629 69.7278 301.847 69.5825 302.091 69.4939C302.249 69.4471 302.419 69.457 302.57 69.5218C302.722 69.5866 302.846 69.7023 302.921 69.8486C303.037 70.0614 302.992 70.221 303.036 70.2388C303.081 70.2565 303.197 70.0969 303.126 69.7777C303.08 69.5803 302.962 69.4067 302.796 69.2899C302.686 69.2107 302.562 69.1542 302.43 69.1237C302.298 69.0932 302.162 69.0895 302.028 69.1126C301.704 69.1856 301.403 69.3407 301.156 69.5628C300.909 69.7849 300.724 70.0666 300.619 70.3807C300.301 71.0748 300.16 71.8363 300.209 72.5975C300.307 74.1937 301.181 75.6569 302.341 75.9495C302.555 76.0064 302.781 76.0137 302.999 75.9706C303.217 75.9276 303.422 75.8354 303.599 75.7012C303.839 75.4972 303.875 75.3199 303.848 75.311Z" fill="#99613B"/>
<path d="M320.654 65.6474C320.859 65.4257 322.117 66.3568 323.91 66.348C325.703 66.3391 327.006 65.4612 327.202 65.674C327.398 65.8868 327.086 66.1617 326.515 66.5608C325.732 67.1052 324.794 67.3878 323.839 67.3677C322.91 67.3736 322.004 67.0847 321.252 66.543C320.743 66.1263 320.556 65.7361 320.654 65.6474Z" fill="#263238"/>
<path d="M338.228 65.3092C338.433 65.0964 339.691 66.0186 341.484 66.0186C343.277 66.0186 344.58 65.1319 344.776 65.3447C344.865 65.4334 344.66 65.8235 344.089 66.2315C343.302 66.7677 342.367 67.0495 341.413 67.0384C340.484 67.035 339.58 66.7436 338.826 66.2049C338.317 65.7969 338.13 65.4068 338.228 65.3092Z" fill="#263238"/>
<path d="M333.547 78.2824C334.49 77.9866 335.467 77.8108 336.455 77.7592C336.91 77.7149 337.347 77.6262 337.419 77.3159C337.458 76.8464 337.352 76.3761 337.115 75.968L335.768 72.5096C333.895 67.597 332.53 63.5445 332.735 63.4736C332.94 63.4027 334.618 67.331 336.491 72.2525L337.784 75.7286C338.072 76.2733 338.154 76.9023 338.016 77.5021C337.952 77.6635 337.851 77.8077 337.721 77.9232C337.591 78.0387 337.436 78.1223 337.267 78.1671C337.014 78.2376 336.753 78.2734 336.491 78.2736C335.514 78.3966 334.525 78.3996 333.547 78.2824Z" fill="#263238"/>
<path d="M330.932 84.2864C331.148 84.1006 332.416 85.5422 334.57 85.4938C336.723 85.4455 338.153 83.9439 338.335 84.1391C338.417 84.233 338.243 84.7235 337.594 85.3061C336.748 86.0628 335.659 86.4938 334.521 86.5213C333.43 86.5573 332.368 86.1659 331.564 85.4314C330.979 84.8681 330.805 84.3843 330.932 84.2864Z" fill="#263238"/>
<path d="M327.524 59.9429C327.345 60.4306 325.561 60.2001 323.465 60.4484C321.368 60.6967 319.673 61.2731 319.388 60.8386C319.272 60.6257 319.566 60.1735 320.28 59.7035C321.2 59.1251 322.241 58.7637 323.324 58.6469C324.406 58.5301 325.501 58.661 326.524 59.0296C327.238 59.3399 327.595 59.7124 327.524 59.9429Z" fill="#263238"/>
<path d="M343.975 61.6468C343.663 62.0459 342.432 61.6468 340.951 61.6468C339.47 61.6468 338.212 61.9129 337.927 61.4961C337.802 61.2833 337.998 60.8842 338.542 60.5029C339.279 60.0427 340.136 59.8112 341.005 59.838C341.875 59.8649 342.716 60.1489 343.422 60.6537C343.948 61.0261 344.118 61.4429 343.975 61.6468Z" fill="#263238"/>
<path d="M352.502 41.1977C352.584 40.4805 352.481 39.7544 352.203 39.0876C351.925 38.4207 351.482 37.8347 350.914 37.3846C350.33 36.9584 349.612 36.7537 348.889 36.8073C348.166 36.861 347.486 37.1695 346.972 37.6773C347.078 37.1941 347.082 36.694 346.983 36.2092C346.884 35.7244 346.684 35.2656 346.396 34.8622C346.108 34.4589 345.738 34.1199 345.31 33.8671C344.882 33.6143 344.406 33.4532 343.912 33.3942C342.021 33.279 340.397 34.6978 338.559 35.1678C336.728 35.5492 334.821 35.3283 333.127 34.5382C331.405 33.8554 329.799 32.8977 328.051 32.2681C324.368 30.9317 320.304 31.0939 316.741 32.7194C313.178 34.345 310.404 37.3025 309.023 40.9494C306.48 40.1602 303.59 41.446 302.02 43.6097C300.536 45.843 299.944 48.5469 300.361 51.1914C300.612 52.9637 301.057 54.7033 301.69 56.3789C301.69 56.5297 301.69 56.6804 301.69 56.8223C301.806 63.1803 302.537 70.6557 305.258 70.6912C310.022 70.7621 308.889 61.8236 308.889 61.8236C314.723 59.5801 312.546 50.8811 314.009 49.5687C315.472 48.2563 318.523 45.1349 330.745 51.3954C335.491 53.8073 341.797 53.7275 345.241 52.9472L345.544 52.894H345.616C345.653 52.8847 345.689 52.8697 345.723 52.8496C346.83 52.5755 347.886 52.1296 348.854 51.5284C349.998 50.8726 350.904 49.8729 351.441 48.673C351.692 48.07 351.762 47.4077 351.643 46.7659C351.525 46.1241 351.222 45.53 350.772 45.0551C351.712 43.963 352.313 42.6229 352.502 41.1977Z" fill="#495054"/>
<path d="M340.888 26.0703C340.888 26.0703 340.978 26.1767 341.111 26.3895C341.302 26.6998 341.457 27.0299 341.575 27.3738C342.023 28.6534 342.109 30.0304 341.825 31.3554C341.441 33.354 340.289 35.1255 338.614 36.2946C336.669 37.5804 334.002 37.8287 331.477 37.4474C328.952 37.0661 326.571 36.2414 324.403 35.798C322.509 35.317 320.529 35.2685 318.613 35.6561C317.326 35.9423 316.134 36.5531 315.152 37.4296C314.474 38.0681 314.26 38.5292 314.18 38.5026C314.099 38.476 314.18 38.3785 314.349 38.1568C314.541 37.8368 314.768 37.5394 315.027 37.27C315.998 36.3202 317.215 35.6571 318.542 35.3546C320.498 34.8884 322.536 34.8884 324.492 35.3546C326.696 35.7803 329.024 36.605 331.539 36.9597C333.878 37.4401 336.313 37.0688 338.4 35.9133C339.995 34.8198 341.11 33.1602 341.513 31.2756C341.813 30.0026 341.779 28.6744 341.415 27.4182C341.129 26.5314 340.844 26.0703 340.888 26.0703Z" fill="#0B3F47"/>
<path d="M337.87 28.2266C338.109 28.4569 338.298 28.7326 338.427 29.0374C338.556 29.3421 338.621 29.6695 338.62 30.0001C338.679 30.72 338.544 31.4426 338.227 32.0928C337.833 32.8858 337.212 33.5458 336.443 33.9905C335.677 34.4315 334.813 34.6781 333.927 34.7087C333.215 34.7344 332.502 34.6384 331.822 34.425C331.185 34.2772 330.596 33.9722 330.109 33.5382C330.109 33.4762 330.787 33.8309 331.894 34.1057C333.341 34.4863 334.881 34.299 336.193 33.5826C336.892 33.1837 337.466 32.6006 337.853 31.8977C338.155 31.3139 338.308 30.6653 338.299 30.0089C338.247 29.3968 338.102 28.796 337.87 28.2266Z" fill="#002664"/>
<path d="M378.614 218.602C378.747 220.34 378.357 222.078 377.493 223.594C376.628 225.11 375.329 226.336 373.761 227.115L361.049 221.795L345.375 222.841L351.557 206.152C351.557 206.152 369.167 208.298 371.655 210.285C374.144 212.271 378.81 215.978 378.614 218.602Z" fill="#146CFD"/>
<g opacity="0.4">
<path d="M378.614 218.602C378.747 220.34 378.357 222.078 377.493 223.594C376.628 225.11 375.329 226.336 373.761 227.115L361.049 221.795L345.375 222.841L351.557 206.152C351.557 206.152 369.167 208.298 371.655 210.285C374.144 212.271 378.81 215.978 378.614 218.602Z" fill="black"/>
</g>
<path d="M378.614 218.602C378.747 220.34 378.357 222.078 377.493 223.594C376.628 225.11 375.329 226.336 373.761 227.115L361.049 221.795L345.375 222.841L351.557 206.152C351.557 206.152 369.167 208.298 371.655 210.285C374.144 212.271 378.81 215.978 378.614 218.602Z" fill="#146CFD"/>
<g opacity="0.4">
<path d="M378.614 218.602C378.747 220.34 378.357 222.078 377.493 223.594C376.628 225.11 375.329 226.336 373.761 227.115L361.049 221.795L345.375 222.841L351.557 206.152C351.557 206.152 369.167 208.298 371.655 210.285C374.144 212.271 378.81 215.978 378.614 218.602Z" fill="black"/>
</g>
<path d="M391.817 143.619L390.577 142.52L363.681 121.583C355.375 112.813 349.336 110.171 337.659 108.796C338.756 108.938 335.75 108.575 337.659 108.796C328.738 111.536 316.704 111.802 307.739 109.053C303.591 109.222 300.147 110.499 296.615 111.173C285.482 113.292 279.531 121.104 275.249 128.793L253.715 164.697L254.607 166.116C257.616 170.737 262.094 174.224 267.328 176.021L268.773 176.739C273.842 179.137 278.214 182.778 281.476 187.318L290.959 170.851L288.283 197.241L286.445 223.161C299.09 226.752 312.21 228.414 325.357 228.091C344.091 228.18 370.193 205.488 378.614 218.603C378.73 211.882 370.219 202.642 367.855 198.208C360.532 184.348 361.905 178.744 361.379 168.342L373.957 176.012L376.214 171.623C378.123 167.916 381.763 159.661 383.119 153.232C383.119 153.24 384.6 141.234 391.817 143.619Z" fill="#146CFD"/>
<path d="M291.01 144.258C291.089 144.613 291.122 144.976 291.108 145.34C291.108 146.04 291.162 147.051 291.18 148.301C291.18 150.793 291.233 154.243 291.18 158.056C291.126 161.869 291.117 165.318 291.055 167.81C291.055 169.06 290.992 170.071 290.957 170.772C290.965 171.135 290.929 171.499 290.849 171.854C290.771 171.499 290.738 171.135 290.751 170.772C290.751 170.071 290.698 169.06 290.68 167.81C290.68 165.318 290.635 161.869 290.68 158.056C290.725 154.243 290.742 150.802 290.796 148.301C290.796 147.06 290.858 146.049 290.894 145.349C290.887 144.982 290.926 144.615 291.01 144.258Z" fill="#002664"/>
<path d="M362.919 186.112C362.799 185.56 362.724 184.999 362.696 184.436C362.589 183.265 362.455 181.722 362.286 179.851C361.956 175.985 361.546 170.629 361.126 164.714C360.707 158.799 360.35 153.443 360.127 149.568C360.02 147.697 359.94 146.145 359.877 144.975C359.833 144.411 359.833 143.845 359.877 143.281C359.998 143.833 360.073 144.393 360.1 144.957C360.207 146.128 360.35 147.671 360.511 149.542C360.841 153.417 361.251 158.764 361.67 164.679C362.09 170.593 362.447 175.949 362.678 179.824C362.777 181.695 362.857 183.247 362.919 184.427C362.964 184.987 362.964 185.551 362.919 186.112Z" fill="#002664"/>
<g opacity="0.2">
<path d="M312.868 214.69C319.422 215.84 326.167 215.172 332.364 212.762C338.561 210.351 343.97 206.291 347.998 201.025C349.283 199.314 350.46 197.212 349.925 195.146C349.39 193.08 346.999 191.644 344.76 191.697C342.506 191.89 340.388 192.852 338.765 194.419C334.679 197.966 332.342 203.189 328.265 206.763C324.58 209.971 319.776 211.617 314.884 211.347C314.137 211.292 313.386 211.322 312.645 211.436C312.203 211.501 311.796 211.71 311.487 212.032C311.178 212.353 310.986 212.767 310.941 213.209C310.941 214.096 311.637 214.469 312.859 214.699" fill="black"/>
</g>
<g opacity="0.2">
<path d="M360.262 152.203L361.368 168.351L373.955 176.012L376.587 171.144L360.262 152.203Z" fill="black"/>
</g>
<path d="M392.057 143.874C391.567 143.72 391.062 143.622 390.55 143.581C389.147 143.57 387.79 144.076 386.74 145C385.234 146.436 384.199 148.29 383.77 150.321C383.154 152.582 382.566 155.127 381.745 157.734C380.376 162.193 378.695 166.552 376.714 170.778C375.955 172.401 375.286 173.687 374.813 174.565C374.59 175.034 374.325 175.482 374.02 175.904C374.2 175.418 374.412 174.944 374.653 174.485C375.072 173.598 375.697 172.277 376.437 170.645C378.321 166.397 379.951 162.041 381.317 157.601C382.137 155.003 382.726 152.493 383.377 150.197C383.847 148.105 384.956 146.209 386.553 144.77C387.673 143.829 389.112 143.35 390.576 143.431C390.97 143.456 391.356 143.549 391.718 143.706C391.838 143.748 391.951 143.805 392.057 143.874Z" fill="#002664"/>
<path d="M281.467 187.317C281.149 186.968 280.851 186.601 280.575 186.218C279.757 185.213 278.888 184.251 277.97 183.336C276.613 181.982 275.101 180.792 273.465 179.789C271.627 178.636 269.477 177.59 267.22 176.455C265.092 175.398 263.031 174.213 261.047 172.908C259.423 171.829 257.926 170.57 256.587 169.157C255.692 168.199 254.919 167.136 254.285 165.991C254.109 165.681 253.951 165.362 253.812 165.033C253.714 164.812 253.67 164.696 253.687 164.688C254.567 166.218 255.621 167.643 256.828 168.935C258.18 170.296 259.675 171.509 261.288 172.553C263.27 173.827 265.322 174.991 267.434 176.038C269.673 177.173 271.841 178.237 273.679 179.425C275.327 180.463 276.838 181.702 278.175 183.114C279.083 184.054 279.923 185.055 280.69 186.111C280.958 186.484 281.163 186.777 281.288 186.998C281.361 187.097 281.421 187.204 281.467 187.317Z" fill="#002664"/>
<path d="M352.777 192.684C352.748 192.858 352.697 193.028 352.625 193.189C352.492 193.517 352.34 194.014 352.054 194.617C351.309 196.346 350.414 198.008 349.378 199.583C345.984 204.844 341.254 209.123 335.666 211.989C330.079 214.855 323.83 216.206 317.549 215.908C315.659 215.827 313.778 215.587 311.929 215.189C311.278 215.065 310.778 214.906 310.439 214.826C310.261 214.788 310.088 214.731 309.922 214.657C310.103 214.66 310.283 214.686 310.457 214.737C310.805 214.79 311.349 214.923 311.965 215.021C313.813 215.341 315.682 215.528 317.558 215.58C323.768 215.79 329.929 214.413 335.452 211.582C340.974 208.75 345.674 204.557 349.102 199.405C350.15 197.857 351.08 196.232 351.885 194.546C352.188 193.952 352.367 193.473 352.527 193.154C352.594 192.989 352.678 192.832 352.777 192.684Z" fill="#002664"/>
<g opacity="0.2">
<path d="M282.262 185.455C283.294 172.547 286.243 159.862 291.013 147.812V170.762L282.262 185.455Z" fill="black"/>
</g>
<path d="M257.658 207.323L313.635 175.045C315.734 173.838 317.493 172.125 318.749 170.063C320.006 168.002 320.72 165.659 320.825 163.251L322.306 129.368C322.309 128.93 322.148 128.506 321.855 128.179C321.562 127.851 321.157 127.643 320.718 127.595C320.311 127.564 319.906 127.673 319.569 127.904C319.233 128.135 318.987 128.473 318.872 128.863L311.735 154.286L245.089 182.343C243.317 183.09 241.717 184.191 240.39 185.576C239.062 186.962 238.035 188.603 237.37 190.399C236.706 192.194 236.418 194.106 236.526 196.017C236.634 197.927 237.134 199.795 237.997 201.506C238.86 203.212 240.065 204.725 241.538 205.952C243.011 207.178 244.721 208.092 246.563 208.636C248.405 209.181 250.339 209.346 252.247 209.12C254.155 208.894 255.996 208.283 257.658 207.323Z" fill="#D29576"/>
<path d="M392.78 197.843L335.687 172.491C333.546 171.536 331.682 170.061 330.266 168.201C328.85 166.341 327.929 164.157 327.587 161.85L322.779 129.501C322.718 129.073 322.823 128.639 323.073 128.286C323.324 127.934 323.7 127.689 324.126 127.603C324.513 127.526 324.916 127.586 325.264 127.774C325.611 127.962 325.881 128.266 326.026 128.632L335.473 152.326L402.307 172.588C410.675 175.248 413.904 183.008 411.067 190.323C410.408 192.045 409.402 193.615 408.111 194.937C406.819 196.258 405.269 197.303 403.556 198.008C401.844 198.712 400.004 199.06 398.151 199.032C396.298 199.004 394.47 198.599 392.78 197.843Z" fill="#D29576"/>
<path d="M335.453 152.328C335.684 152.362 335.911 152.419 336.131 152.497L338.049 153.082L345.088 155.281C351.02 157.143 359.227 159.715 368.281 162.455C377.336 165.195 385.623 167.598 391.609 169.309L398.692 171.331L400.619 171.899C400.843 171.959 401.064 172.033 401.279 172.12C401.046 172.101 400.816 172.057 400.592 171.987L398.648 171.509C396.962 171.083 394.526 170.436 391.511 169.62C385.507 167.997 377.238 165.647 368.139 162.898C359.04 160.149 350.859 157.533 344.945 155.591L337.96 153.25L336.069 152.585C335.856 152.518 335.65 152.432 335.453 152.328Z" fill="#99613B"/>
<path d="M473.443 245.21L466.686 248.984C466.011 249.362 465.258 249.875 465.375 250.494C465.512 251.287 466.833 251.551 467.869 251.596C475.116 251.891 480.064 251.302 486.45 248.713C487.569 248.272 488.653 247.78 489.696 247.241C490.195 246.954 492.308 245.731 491.916 245.331C491.668 245.16 491.372 245.035 491.052 244.964C490.732 244.894 490.396 244.88 490.068 244.923C484.298 245.021 479.164 245.051 473.443 245.157" fill="#8055F1"/>
<path d="M477.301 213.079C477.35 212.905 477.419 212.739 477.506 212.581L478.177 211.144C479.002 209.296 479.665 207.38 480.158 205.419C481.478 200.328 481.934 192.555 479.999 183.311C478.943 178.28 477.563 173.322 475.867 168.467C474.126 163.195 472.1 157.606 470.438 151.564C468.579 145.254 467.689 138.701 467.797 132.127C468.048 125.248 470.074 118.38 472.35 111.546C474.626 104.713 476.903 98.0262 477.62 91.2943C478.389 84.8214 477.083 78.2722 473.887 72.5809C470.904 67.1275 467.16 62.4548 464.349 57.6238C461.744 53.1336 459.826 48.2834 458.658 43.2323C456.97 35.9136 456.846 28.3244 458.293 20.955C458.812 18.245 459.597 15.5923 460.638 13.0352C460.608 13.2123 460.562 13.3865 460.501 13.5556L460.023 15.0604C459.439 16.9998 458.953 18.9672 458.567 20.955C457.24 28.2906 457.441 35.8188 459.158 43.0739C460.353 48.0683 462.291 52.8577 464.906 57.2843C467.706 62.0588 471.474 66.7089 474.513 72.2302C477.794 78.0277 479.141 84.7103 478.36 91.3169C477.665 98.1053 475.321 104.894 473.078 111.682C470.836 118.471 468.799 125.259 468.526 132.047C468.426 138.553 469.308 145.036 471.144 151.281C472.771 157.3 474.774 162.889 476.504 168.184C478.159 173.09 479.49 178.098 480.488 183.176C482.377 192.476 481.842 200.339 480.431 205.442C479.902 207.388 479.193 209.282 478.314 211.099L477.574 212.592C477.495 212.76 477.404 212.923 477.301 213.079Z" fill="#CEBFFF"/>
<path d="M468.119 62.3964C468.119 62.3964 462.428 44.2939 472.672 33.6701C472.749 33.5704 472.854 33.4957 472.974 33.4554C473.093 33.4151 473.222 33.411 473.344 33.4438C473.466 33.4765 473.576 33.5445 473.659 33.6392C473.742 33.7339 473.794 33.851 473.81 33.9755C474.266 36.9738 474.949 46.0815 468.119 62.3964Z" fill="#CEBFFF"/>
<path d="M471.534 39.7031C471.518 40.8444 471.388 41.9814 471.147 43.0973C470.771 45.3601 470.339 48.0981 469.849 51.085C469.36 54.0719 468.939 56.742 468.575 59.0727C468.472 60.1895 468.27 61.2951 467.971 62.3765C467.869 61.245 467.904 60.1055 468.074 58.9822C468.256 56.9118 468.632 54.0606 469.144 50.9379C469.656 47.8153 470.202 44.9981 470.658 43.0181C470.821 41.8834 471.115 40.771 471.534 39.7031Z" fill="#CEBFFF"/>
<path d="M474.812 105.107C474.812 105.107 478.295 86.4388 492.329 81.8226C492.44 81.7827 492.559 81.7745 492.674 81.799C492.789 81.8235 492.895 81.8797 492.979 81.9612C493.064 82.0426 493.123 82.1461 493.151 82.2596C493.179 82.3732 493.174 82.4923 493.137 82.6033C492.215 85.511 488.528 93.8834 474.812 105.107Z" fill="#CEBFFF"/>
<path d="M488.502 86.6562C487.958 87.6404 487.317 88.5689 486.59 89.4282L481.684 95.8885L476.79 102.36C476.184 103.304 475.486 104.187 474.707 104.996C475.146 103.957 475.708 102.973 476.38 102.066C477.518 100.324 479.18 97.9816 481.115 95.4586C483.05 92.9355 484.848 90.7067 486.191 89.1227C486.862 88.214 487.638 87.3863 488.502 86.6562Z" fill="#CEBFFF"/>
<path d="M471.02 151.936C471.02 151.936 468.938 133.075 480.98 124.601C481.073 124.531 481.185 124.489 481.302 124.479C481.419 124.469 481.536 124.492 481.64 124.545C481.745 124.598 481.832 124.679 481.892 124.779C481.952 124.879 481.983 124.994 481.981 125.11C481.936 128.142 480.866 137.216 471.02 151.936Z" fill="#CEBFFF"/>
<path d="M478.725 130.316C478.499 131.415 478.159 132.488 477.712 133.518C476.892 135.713 475.948 138.281 474.901 141.121C473.853 143.961 472.909 146.529 472.112 148.724C471.806 149.803 471.395 150.849 470.883 151.847C470.999 150.727 471.251 149.625 471.634 148.566C472.214 146.563 473.125 143.848 474.229 140.872C475.333 137.897 476.414 135.215 477.234 133.337C477.613 132.277 478.113 131.263 478.725 130.316Z" fill="#CEBFFF"/>
<path d="M481.582 199.015C481.582 199.015 480.148 180.087 492.52 172.054C492.616 171.989 492.729 171.951 492.845 171.946C492.961 171.941 493.077 171.968 493.179 172.024C493.28 172.081 493.364 172.164 493.421 172.265C493.477 172.367 493.504 172.481 493.499 172.597C493.351 175.641 491.951 184.669 481.582 199.015Z" fill="#CEBFFF"/>
<path d="M490.062 177.688C489.794 178.78 489.413 179.842 488.924 180.855L485.839 188.357L482.777 195.847C482.436 196.915 481.994 197.949 481.457 198.935C481.613 197.819 481.904 196.725 482.322 195.677C482.971 193.708 483.972 191.015 485.19 188.085C486.408 185.155 487.58 182.53 488.468 180.663C488.891 179.618 489.426 178.62 490.062 177.688Z" fill="#CEBFFF"/>
<path d="M459.923 46.4812C459.923 46.4812 442.998 37.6902 442.668 23.0046C442.665 22.8887 442.694 22.7742 442.753 22.6737C442.811 22.5731 442.895 22.4903 442.997 22.4343C443.1 22.3783 443.215 22.3512 443.332 22.356C443.448 22.3608 443.561 22.3973 443.658 22.4615C446.174 24.1926 453.139 30.1551 459.923 46.4812Z" fill="#CEBFFF"/>
<path d="M446.172 28.0508C446.963 28.8556 447.668 29.739 448.278 30.687L453.058 37.2265L457.85 43.766C458.596 44.6261 459.259 45.5542 459.83 46.5379C458.972 45.8202 458.208 44.9993 457.554 44.0941C456.211 42.4988 454.446 40.2247 452.58 37.6564C450.713 35.0881 449.165 32.7122 448.027 30.9698C447.298 30.0711 446.675 29.0916 446.172 28.0508Z" fill="#CEBFFF"/>
<path d="M478.1 85.3761C478.1 85.3761 460.674 77.6374 459.445 62.997C459.433 62.8819 459.453 62.7657 459.503 62.6613C459.554 62.557 459.632 62.4687 459.731 62.4064C459.829 62.3441 459.942 62.3102 460.059 62.3087C460.175 62.3071 460.29 62.3378 460.39 62.3974C463.007 63.97 470.326 69.4912 478.1 85.3761Z" fill="#CEBFFF"/>
<path d="M463.246 67.7734C464.089 68.5277 464.851 69.3655 465.522 70.2738L470.69 76.5305L475.869 82.7759C476.645 83.5904 477.346 84.4727 477.963 85.412C477.054 84.7551 476.226 83.9957 475.493 83.1492C474.047 81.6444 472.147 79.4835 470.132 77.0283C468.118 74.5732 466.353 72.299 465.124 70.6246C464.394 69.7459 463.764 68.7897 463.246 67.7734Z" fill="#CEBFFF"/>
<path d="M468.072 128.776C468.072 128.776 456.098 113.989 461.721 100.4C461.76 100.287 461.832 100.187 461.927 100.113C462.022 100.039 462.136 99.9937 462.257 99.983C462.377 99.9722 462.498 99.9963 462.605 100.052C462.712 100.108 462.8 100.194 462.859 100.299C464.452 102.844 468.436 111.115 468.072 128.776Z" fill="#CEBFFF"/>
<path d="M462.906 106.422C463.301 107.474 463.594 108.562 463.783 109.669C464.272 111.932 464.921 114.625 465.501 117.589C466.082 120.553 466.753 123.246 467.254 125.509C467.578 126.583 467.8 127.685 467.914 128.801C467.408 127.795 467.025 126.731 466.776 125.633C466.196 123.631 465.49 120.847 464.818 117.713C464.147 114.579 463.68 111.796 463.293 109.793C463.035 108.688 462.905 107.557 462.906 106.422Z" fill="#CEBFFF"/>
<path d="M479.919 179.848C479.919 179.848 462.63 171.861 461.652 157.153C461.64 157.037 461.661 156.92 461.713 156.815C461.765 156.711 461.845 156.623 461.945 156.562C462.045 156.501 462.159 156.468 462.277 156.469C462.394 156.469 462.508 156.502 462.608 156.564C465.203 158.182 472.43 163.828 479.919 179.848Z" fill="#CEBFFF"/>
<path d="M465.387 162.039C466.214 162.804 466.958 163.654 467.606 164.573L472.66 170.909L477.736 177.245C478.501 178.07 479.187 178.964 479.785 179.915C478.878 179.216 478.06 178.411 477.349 177.517C475.938 175.989 474.071 173.794 472.102 171.305C470.133 168.816 468.403 166.519 467.208 164.822C466.499 163.965 465.888 163.031 465.387 162.039Z" fill="#CEBFFF"/>
<path d="M514.386 105.223C514.406 105.362 514.406 105.502 514.386 105.641C514.386 105.969 514.386 106.365 514.386 106.852C514.386 107.983 514.261 109.533 514.181 111.457C513.953 115.496 513.646 121.141 513.271 127.885C512.03 134.752 508.513 142.367 503.789 149.755C500.375 155.197 496.687 160.152 493.546 164.757C490.697 168.776 488.134 172.987 485.874 177.361C484.397 180.33 483.197 183.428 482.289 186.616C481.982 187.747 481.754 188.63 481.618 189.241C481.565 189.554 481.481 189.861 481.367 190.157C481.379 189.841 481.417 189.527 481.481 189.218C481.572 188.596 481.754 187.702 482.016 186.548C482.83 183.307 483.974 180.157 485.431 177.146C487.644 172.713 490.181 168.448 493.022 164.384C496.129 159.756 499.749 154.789 503.198 149.381C507.898 142.027 511.393 134.526 512.679 127.772C513.157 120.983 513.555 115.394 513.817 111.355C513.976 109.431 514.101 107.961 514.192 106.761C514.192 106.275 514.284 105.879 514.318 105.551C514.352 105.223 514.363 105.223 514.386 105.223Z" fill="#CEBFFF"/>
<path d="M504.085 148.385C504.085 148.385 511.404 130.86 502.196 119.376C502.125 119.277 502.027 119.2 501.914 119.155C501.801 119.11 501.677 119.098 501.557 119.121C501.438 119.143 501.327 119.199 501.238 119.283C501.15 119.366 501.087 119.473 501.058 119.591C500.272 122.521 498.758 131.527 504.085 148.385Z" fill="#CEBFFF"/>
<path d="M502.739 125.473C503.064 126.551 503.259 127.664 503.32 128.788C503.582 130.847 503.878 133.698 504.105 136.866C504.333 140.034 504.435 142.885 504.435 144.967C504.508 146.102 504.439 147.242 504.23 148.361C504.028 147.241 503.929 146.105 503.935 144.967C503.775 142.647 503.593 139.921 503.388 136.9C503.183 133.879 502.99 131.152 502.819 128.822C502.687 127.71 502.661 126.589 502.739 125.473Z" fill="#CEBFFF"/>
<g opacity="0.3">
<path d="M504.085 148.385C504.085 148.385 511.404 130.86 502.196 119.376C502.125 119.277 502.027 119.2 501.914 119.155C501.801 119.11 501.677 119.098 501.557 119.121C501.438 119.143 501.327 119.199 501.238 119.283C501.15 119.366 501.087 119.473 501.058 119.591C500.272 122.521 498.758 131.527 504.085 148.385Z" fill="#8055F1"/>
</g>
<path d="M481.39 190.633C481.39 190.633 487.263 172.531 477.145 161.861C477.068 161.762 476.963 161.687 476.843 161.647C476.724 161.606 476.595 161.602 476.473 161.635C476.351 161.668 476.241 161.736 476.158 161.831C476.075 161.925 476.023 162.042 476.007 162.167C475.483 165.154 474.709 174.262 481.39 190.633Z" fill="#CEBFFF"/>
<path d="M478.191 167.914C478.6 168.964 478.886 170.058 479.045 171.173C479.466 173.198 479.99 176.015 480.479 179.149C480.969 182.283 481.299 185.134 481.469 187.204C481.633 188.329 481.656 189.469 481.538 190.599C481.251 189.512 481.061 188.403 480.969 187.284C480.627 185.021 480.217 182.272 479.83 179.285C479.443 176.298 478.954 173.628 478.601 171.274C478.355 170.17 478.218 169.045 478.191 167.914Z" fill="#CEBFFF"/>
<g opacity="0.3">
<path d="M481.39 190.633C481.39 190.633 487.263 172.531 477.145 161.861C477.068 161.762 476.963 161.687 476.843 161.647C476.724 161.606 476.595 161.602 476.473 161.635C476.351 161.668 476.241 161.736 476.158 161.831C476.075 161.925 476.023 162.042 476.007 162.167C475.483 165.154 474.709 174.262 481.39 190.633Z" fill="#8055F1"/>
</g>
<path d="M513.406 126.968C513.406 126.968 529.056 116.084 527.474 101.477C527.465 101.361 527.422 101.25 527.352 101.157C527.282 101.063 527.188 100.991 527.078 100.949C526.969 100.907 526.851 100.895 526.735 100.917C526.62 100.938 526.513 100.991 526.427 101.07C524.151 103.107 518.016 109.906 513.406 126.968Z" fill="#CEBFFF"/>
<g opacity="0.3">
<path d="M513.406 126.968C513.406 126.968 529.056 116.084 527.474 101.477C527.465 101.361 527.422 101.25 527.352 101.157C527.282 101.063 527.188 100.991 527.078 100.949C526.969 100.907 526.851 100.895 526.735 100.917C526.62 100.938 526.513 100.991 526.427 101.07C524.151 103.107 518.016 109.906 513.406 126.968Z" fill="#8055F1"/>
</g>
<path d="M524.639 106.93C524.33 108.014 523.895 109.058 523.341 110.041C522.453 111.908 521.156 114.476 519.642 117.259C518.128 120.043 516.671 122.532 515.602 124.342C515.052 125.325 514.387 126.241 513.621 127.069C514.044 126.028 514.562 125.028 515.169 124.082L519.016 116.92L522.897 109.803C523.382 108.791 523.965 107.829 524.639 106.93Z" fill="#CEBFFF"/>
<path d="M487.695 172.722C487.695 172.722 506.566 169.803 511.597 156C511.639 155.891 511.65 155.772 511.628 155.657C511.606 155.542 511.553 155.436 511.474 155.349C511.395 155.262 511.294 155.199 511.181 155.166C511.068 155.133 510.948 155.132 510.835 155.163C507.921 156.023 499.396 159.417 487.695 172.722Z" fill="#CEBFFF"/>
<g opacity="0.3">
<path d="M487.695 172.722C487.695 172.722 506.566 169.803 511.597 156C511.639 155.891 511.65 155.772 511.628 155.657C511.606 155.542 511.553 155.436 511.474 155.349C511.395 155.262 511.294 155.199 511.181 155.166C511.068 155.133 510.948 155.132 510.835 155.163C507.921 156.023 499.396 159.417 487.695 172.722Z" fill="#8055F1"/>
</g>
<path d="M506.656 159.652C505.901 160.502 505.049 161.261 504.118 161.915C502.479 163.205 500.191 164.947 497.596 166.78C495.001 168.613 492.588 170.174 490.767 171.306C489.836 171.947 488.831 172.475 487.773 172.878C488.636 172.111 489.57 171.425 490.562 170.831L497.175 166.203L503.81 161.519C504.69 160.798 505.644 160.172 506.656 159.652Z" fill="#CEBFFF"/>
<path d="M465.375 207.23L470.781 242.519L492.396 242.485L499.68 207.23H465.375Z" fill="#CEBFFF"/>
<path d="M496.514 220.85L496.332 220.975C496.15 221.097 495.96 221.207 495.763 221.303C494.998 221.667 494.179 221.908 493.338 222.016C492.022 222.187 490.683 222.059 489.423 221.642C487.703 221.102 486.205 220.022 485.155 218.565C484.56 217.688 484.214 216.668 484.153 215.612C484.086 215.028 484.182 214.437 484.431 213.904C484.68 213.371 485.072 212.917 485.564 212.591C486.136 212.303 486.777 212.178 487.416 212.23C488.055 212.282 488.667 212.509 489.184 212.885C490.263 213.663 491.003 214.82 491.255 216.121C491.537 217.429 491.625 218.771 491.517 220.104C491.453 221.504 491.157 222.884 490.641 224.188C490.108 225.556 489.249 226.776 488.137 227.741C486.983 228.757 485.521 229.362 483.982 229.46C482.447 229.489 480.939 229.055 479.657 228.216C478.426 227.434 477.334 226.456 476.425 225.319C475.501 224.219 474.933 222.866 474.797 221.439C474.744 220.742 474.854 220.042 475.119 219.394C475.383 218.746 475.795 218.168 476.322 217.705C476.87 217.3 477.524 217.062 478.205 217.019C478.886 216.977 479.564 217.133 480.158 217.467C480.723 217.746 481.217 218.15 481.599 218.648C481.982 219.147 482.245 219.726 482.366 220.341C482.529 221.438 482.356 222.558 481.869 223.555C481.381 224.552 480.603 225.38 479.635 225.93C478.042 226.789 476.193 227.053 474.422 226.677C473.106 226.411 471.847 225.921 470.7 225.229C469.977 224.809 469.281 224.344 468.617 223.837C468.376 223.67 468.151 223.48 467.945 223.272C468.209 223.397 468.457 223.553 468.685 223.735C469.163 224.052 469.823 224.516 470.814 225.037C471.956 225.67 473.193 226.117 474.479 226.36C476.168 226.678 477.915 226.398 479.418 225.568C480.297 225.056 481.002 224.294 481.442 223.381C481.882 222.468 482.037 221.445 481.888 220.443C481.777 219.902 481.541 219.394 481.199 218.958C480.858 218.522 480.42 218.171 479.919 217.931C479.416 217.647 478.841 217.514 478.263 217.548C477.685 217.582 477.13 217.782 476.664 218.124C476.206 218.533 475.85 219.043 475.623 219.612C475.395 220.181 475.304 220.795 475.355 221.405C475.498 222.714 476.038 223.949 476.903 224.946C477.771 226.029 478.813 226.962 479.987 227.707C481.173 228.477 482.566 228.871 483.982 228.838C485.39 228.738 486.725 228.182 487.784 227.254C488.826 226.356 489.631 225.218 490.129 223.939C490.618 222.691 490.907 221.373 490.982 220.036C491.088 218.756 491.007 217.468 490.743 216.212C490.529 215.039 489.874 213.991 488.911 213.281C488.474 212.955 487.955 212.755 487.411 212.701C486.868 212.647 486.319 212.742 485.826 212.976C485.397 213.251 485.053 213.638 484.832 214.096C484.612 214.553 484.522 215.062 484.574 215.567C484.624 216.543 484.934 217.488 485.473 218.305C486.453 219.715 487.867 220.771 489.503 221.314C490.732 221.745 492.042 221.899 493.338 221.767C494.439 221.629 495.51 221.319 496.514 220.85Z" fill="#441170"/>
</svg>
