<svg width="122" height="124" viewBox="0 0 122 124" fill="none" xmlns="http://www.w3.org/2000/svg">
<path d="M54.3307 113.105L54.3303 113.104L20.165 93.3803C15.9363 90.9371 13.3277 86.4189 13.3261 81.5352C13.3261 81.5351 13.3261 81.5351 13.3261 81.535L13.3175 42.0913C13.3251 37.2014 15.9343 32.6896 20.1607 30.2495L54.3275 10.5233C58.5647 8.07693 63.776 8.07475 68.0033 10.5172L68.0037 10.5174L102.169 30.2415C106.398 32.6847 109.006 37.2028 109.008 42.0864C109.008 42.0865 109.008 42.0867 109.008 42.0868L109.007 81.535C109 86.4254 106.39 90.9376 102.164 93.3779L68.0065 113.099C63.7693 115.545 58.5579 115.547 54.3307 113.105Z" fill="white" stroke="#0f766e" stroke-width="2.59141"/>
<path d="M72.8899 73.5609L84.862 61.5888L90.4532 67.1801L78.4811 79.1521C78.4349 79.1984 78.3972 79.2228 78.3539 79.2445C78.3045 79.2692 78.2489 79.2906 78.1379 79.3283L71.4044 80.6376L72.7137 73.9041C72.7515 73.7931 72.7728 73.7375 72.7975 73.6881C72.8192 73.6448 72.8436 73.6071 72.8899 73.5609ZM97.6589 56.5484C98.5963 57.4859 98.5963 59.0369 97.6589 59.9744L94.657 62.9762L89.0658 57.385L92.0676 54.3832C93.0051 53.4457 94.5562 53.4457 95.4936 54.3832L97.6589 56.5484Z" stroke="#0f766e" stroke-width="2.59141"/>
<path d="M27.568 78.2987C27.568 58.2619 43.0726 42.0189 62.1986 42.0189C73.2291 42.0189 83.055 47.4215 89.3969 55.8386" stroke="#0f766e" stroke-width="2.59141"/>
<path d="M37.4629 78.2991C37.4629 63.7269 48.8687 51.9138 62.9384 51.9138C71.4649 51.9138 79.013 56.2523 83.6372 62.9141" stroke="#0f766e" stroke-width="2.59141"/>
<path d="M47.3578 78.2996C47.3578 69.192 54.5681 61.8088 63.4624 61.8088C69.1679 61.8088 74.1805 64.847 77.0413 69.4296" stroke="#0f766e" stroke-width="2.59141"/>
<path d="M62.2 84.777C62.9156 84.777 63.4957 84.1969 63.4957 83.4813C63.4957 82.7657 62.9156 82.1856 62.2 82.1856V84.777ZM62.2 82.1856H23.3288V84.777H62.2V82.1856Z" fill="#0f766e"/>
</svg>
