<svg width="123" height="123" viewBox="0 0 123 123" fill="none" xmlns="http://www.w3.org/2000/svg">
<path d="M54.8354 111.752L54.835 111.752L21.4462 92.3267C21.4461 92.3267 21.4459 92.3266 21.4458 92.3265C17.3233 89.926 14.7753 85.4833 14.7737 80.6758C14.7737 80.6758 14.7737 80.6758 14.7737 80.6757L14.7653 41.8296C14.7728 37.0159 17.3215 32.5795 21.442 30.1821L54.8323 10.7547C58.9622 8.35183 64.0402 8.34972 68.1603 10.7487L68.1607 10.7489L101.55 30.1742C105.672 32.5746 108.22 37.0173 108.222 41.8248C108.222 41.8249 108.222 41.8251 108.222 41.8252L108.221 80.6757C108.214 85.4898 105.665 89.9267 101.544 92.3243L68.1634 111.746C64.0335 114.149 58.9556 114.151 54.8354 111.752Z" fill="white" stroke="#0f766e" stroke-width="2.59141"/>
<path d="M78.5618 61.2525H90.5641M62.0586 44.7493V32.7469M62.0586 89.758L62.0586 77.7557M33.553 61.2525H45.5554M73.7296 72.922L82.2166 81.4089M73.7296 49.583L82.2166 41.096M41.9037 81.4089L50.3906 72.922M41.9037 41.096L50.3906 49.5829M72.5608 61.2511C72.5608 67.0512 67.8589 71.7531 62.0587 71.7531C56.2586 71.7531 51.5567 67.0512 51.5567 61.2511C51.5567 55.451 56.2586 50.7491 62.0587 50.7491C67.8589 50.7491 72.5608 55.451 72.5608 61.2511Z" stroke="#0f766e" stroke-width="2.59141"/>
</svg>
